<svg xmlns="http://www.w3.org/2000/svg" id="svg34780" version="1.1" viewBox="0 0 730 223"><metadata id="metadata34786"/><title id="title34696">images/basic-merging-2</title><desc id="desc34698">Created with Sketch.</desc><g id="03---Basic-Merging-2" fill="none" fill-rule="evenodd" transform="translate(-8,-65)"><path id="Line" fill="#8f8981" fill-rule="nonzero" d="m110 146h35v1h-35v4l-9-4.5 9-4.5z"/><path id="Line-2" fill="#8f8981" fill-rule="nonzero" d="m237 148h35v1h-35v4l-9-4.5 9-4.5z"/><path id="Line-6" fill="#8f8981" fill-rule="nonzero" d="m364 147h35v1h-35v4l-9-4.5 9-4.5z"/><g id="brown" transform="translate(12,131)"><rect id="Rectangle-1" width="89" height="33" fill="#efefe7" fill-rule="evenodd" rx="16.5" ry="16.5"/><text id="C6" fill="#979797" font-family="Source Code Pro" font-size="12" font-weight="700" text-anchor="middle"><tspan id="tspan34704" x="44.5" y="21" fill="gray">C0</tspan></text></g><g id="g34714" transform="translate(139,131)"><rect id="rect34708" width="89" height="33" fill="#efefe7" fill-rule="evenodd" rx="16.5" ry="16.5"/><text id="text34712" fill="#979797" font-family="Source Code Pro" font-size="12" font-weight="700" text-anchor="middle"><tspan id="tspan34710" x="44.5" y="21" fill="gray">C1</tspan></text></g><g id="g34722" transform="translate(266,131)"><rect id="rect34716" width="89" height="33" fill="#efefe7" fill-rule="evenodd" rx="16.5" ry="16.5"/><text id="text34720" fill="#979797" font-family="Source Code Pro" font-size="12" font-weight="700" text-anchor="middle"><tspan id="tspan34718" x="44.5" y="21" fill="gray">C2</tspan></text></g><path id="Line-5" fill="#8f8981" fill-rule="nonzero" d="m359.18 162.78 40.028 35.677-.66537.74651-40.028-35.677-2.6615 2.986-3.7245-9.3476 9.7128 2.629z"/><g id="Line-7-+-ref-3" transform="translate(647,69)"><path id="Line-7" fill="#8f8981" fill-rule="nonzero" d="m43 53v-32h1v32h4l-4.5 9-4.5-9z"/><g id="ref" transform="translate(-2)"><rect id="Rectangle-2" width="106" height="33" fill="#f44d27" fill-rule="evenodd" transform="scale(.83962 1)"/><text id="master" fill="#979797" font-family="Source Code Pro" font-size="12" font-weight="700" text-anchor="middle" transform="translate(-8.4003 .316)"><tspan id="tspan34727" x="53" y="20" fill="#f0f0f0">master</tspan></text></g></g><g id="g34738" transform="translate(393,131)"><rect id="rect34732" width="89" height="33" fill="#efefe7" fill-rule="evenodd" rx="16.5" ry="16.5"/><text id="text34736" fill="#979797" font-family="Source Code Pro" font-size="12" font-weight="700" text-anchor="middle"><tspan id="tspan34734" x="44.5" y="21" fill="gray">C4</tspan></text></g><g id="Line-8-+-brown-6" transform="translate(481,189)"><path id="Line-8" fill="#8f8981" fill-rule="nonzero" d="m9 16h35v1h-35v4l-9-4.5 9-4.5z" transform="translate(.9)"/><g id="g34747" transform="translate(38)"><rect id="rect34741" width="89" height="33" fill="#efefe7" fill-rule="evenodd" rx="16.5" ry="16.5"/><text id="text34745" fill="#979797" font-family="Source Code Pro" font-size="12" font-weight="700" text-anchor="middle"><tspan id="tspan34743" x="44.5" y="21" fill="gray">C5</tspan></text></g></g><path id="path34750" fill="#8f8981" fill-rule="nonzero" d="m491 147h160v1h-160v4l-9-4.5 9-4.5z"/><path id="Line-9" fill="#8f8981" fill-rule="nonzero" d="m611.78 189.75 41.791-33.955.63059.77611-41.791 33.955 2.5224 3.1045-9.8227 2.1828 4.1474-9.1678z"/><g id="g34759" transform="translate(645,131)"><rect id="rect34753" width="89" height="33" fill="#efefe7" fill-rule="evenodd" rx="16.5" ry="16.5"/><text id="text34757" fill="#979797" font-family="Source Code Pro" font-size="12" font-weight="700" text-anchor="middle"><tspan id="tspan34755" x="44.5" y="21" fill="gray">C6</tspan></text></g><g id="g34767" transform="translate(393,189)"><rect id="rect34761" width="89" height="33" fill="#efefe7" fill-rule="evenodd" rx="16.5" ry="16.5"/><text id="text34765" fill="#979797" font-family="Source Code Pro" font-size="12" font-weight="700" text-anchor="middle"><tspan id="tspan34763" x="44.5" y="21" fill="gray">C3</tspan></text></g><g id="Line-4-+-ref-2" transform="translate(521,222)"><path id="Line-4" fill="#8f8981" fill-rule="nonzero" d="m44 9v35h-1v-35h-4l4.5-9 4.5 9z" transform="translate(-1)"/><g id="g34776" transform="translate(-2,29)"><rect id="rect34770" width="106" height="33" fill="#f44d27" fill-rule="evenodd" transform="scale(.83962 1)"/><text id="text34774" fill="#979797" font-family="Source Code Pro" font-size="12" font-weight="700" text-anchor="middle" transform="translate(-8.5623 .958)"><tspan id="tspan34772" x="53" y="20" fill="#f0f0f0">iss53</tspan></text></g></g></g></svg>