<svg xmlns="http://www.w3.org/2000/svg" id="svg33893" version="1.1" viewBox="0 0 478 223"><metadata id="metadata33899"/><title id="title33820">images/basic-branching-4</title><desc id="desc33822">Created with Sketch.</desc><g id="03---Basic-Branching-3" fill="none" fill-rule="evenodd" transform="translate(4,-5)"><g id="brown-4-+-Line-4-+-ref-2" transform="translate(381,129)"><g id="Line-4-+-ref-2" transform="translate(2,33)"><g id="g33984"><path id="Line" fill="#8f8981" fill-rule="nonzero" d="m98 86h35v1h-35v4l-9-4.5 9-4.5z" transform="translate(-383,-162)"/><path id="Line-2" fill="#8f8981" fill-rule="nonzero" d="m225 88h35v1h-35v4l-9-4.5 9-4.5z" transform="translate(-383,-162)"/><path id="Line-6" fill="#8f8981" fill-rule="nonzero" d="m352 87h35v1h-35v4l-9-4.5 9-4.5z" transform="translate(-383,-162)"/><g id="brown" fill="none" fill-rule="evenodd" transform="translate(-383,-91)"><rect id="Rectangle-1" width="89" height="33" fill="#efefe7" fill-rule="evenodd" rx="16.5" ry="16.5"/><text id="C6" fill="#979797" font-family="Source Code Pro" font-size="12" font-weight="700" text-anchor="middle"><tspan id="tspan33828" x="44.5" y="21" fill="gray">C0</tspan></text></g><g id="g33838" fill="none" fill-rule="evenodd" transform="translate(-256,-91)"><rect id="rect33832" width="89" height="33" fill="#efefe7" fill-rule="evenodd" rx="16.5" ry="16.5"/><text id="text33836" fill="#979797" font-family="Source Code Pro" font-size="12" font-weight="700" text-anchor="middle"><tspan id="tspan33834" x="44.5" y="21" fill="gray">C1</tspan></text></g><g id="g33846" fill="none" fill-rule="evenodd" transform="translate(-129,-91)"><rect id="rect33840" width="89" height="33" fill="#efefe7" fill-rule="evenodd" rx="16.5" ry="16.5"/><text id="text33844" fill="#979797" font-family="Source Code Pro" font-size="12" font-weight="700" text-anchor="middle"><tspan id="tspan33842" x="44.5" y="21" fill="gray">C2</tspan></text></g><path id="Line-3" fill="#8f8981" fill-rule="nonzero" d="m298 62v-32h1v32h4l-4.5 9-4.5-9z" transform="translate(-383,-162)"/><g id="ref" fill="none" fill-rule="evenodd" transform="translate(-129,-153)"><rect id="Rectangle-2" width="106" height="33" fill="#f44d27" fill-rule="evenodd" transform="scale(.83962 1)"/><text id="master" fill="#979797" font-family="Source Code Pro" font-size="12" font-weight="700" text-anchor="middle" transform="translate(-8.4003 .316)"><tspan id="tspan33850" x="53" y="20" fill="#f0f0f0">master</tspan></text></g><path id="Line-5" fill="#8f8981" fill-rule="nonzero" d="m347.18 102.78 40.028 35.677-.66537.74651-40.028-35.677-2.6615 2.986-3.7245-9.3476 9.7128 2.629z" transform="translate(-383,-162)"/><g id="Line-7-+-ref-3" fill="none" fill-rule="evenodd" transform="translate(-2,-153)"><path id="Line-7" fill="#8f8981" fill-rule="nonzero" d="m43 53v-32h1v32h4l-4.5 9-4.5-9z" transform="translate(1)"/><g id="g33862"><rect id="rect33856" width="106" height="33" fill="#f44d27" fill-rule="evenodd" transform="scale(.83962 1)"/><text id="text33860" fill="#979797" font-family="Source Code Pro" font-size="12" font-weight="700" text-anchor="middle" transform="translate(-8.7063 .958)"><tspan id="tspan33858" x="53" y="20" fill="#f0f0f0">hotfix</tspan></text></g></g><g id="g33871" fill="none" fill-rule="evenodd" transform="translate(-2,-91)"><rect id="rect33865" width="89" height="33" fill="#efefe7" fill-rule="evenodd" rx="16.5" ry="16.5"/><text id="text33869" fill="#979797" font-family="Source Code Pro" font-size="12" font-weight="700" text-anchor="middle"><tspan id="tspan33867" x="44.5" y="21" fill="gray">C4</tspan></text></g><g id="g33879" fill="none" fill-rule="evenodd" transform="translate(-2,-33)"><rect id="rect33873" width="89" height="33" fill="#efefe7" fill-rule="evenodd" rx="16.5" ry="16.5"/><text id="text33877" fill="#979797" font-family="Source Code Pro" font-size="12" font-weight="700" text-anchor="middle"><tspan id="tspan33875" x="44.5" y="21" fill="gray">C3</tspan></text></g><path id="Line-4" fill="#8f8981" fill-rule="nonzero" d="m44 9v35h-1v-35h-4l4.5-9 4.5 9z" transform="translate(-1)"/><g id="g33888" transform="translate(-2,29)"><rect id="rect33882" width="106" height="33" fill="#f44d27" fill-rule="evenodd" transform="scale(.83962 1)"/><text id="text33886" fill="#979797" font-family="Source Code Pro" font-size="12" font-weight="700" text-anchor="middle" transform="translate(-8.5623 .958)"><tspan id="tspan33884" x="53" y="20" fill="#f0f0f0">iss53</tspan></text></g></g></g></g></g></svg>