<svg xmlns="http://www.w3.org/2000/svg" id="svg1285" version="1.1" viewBox="0 0 351 103"><metadata id="metadata1291"/><title id="title1251">images/basic-branching-1</title><desc id="desc1253">Created with Sketch.</desc><g id="brown" fill="none" fill-rule="evenodd" transform="translate(4,66)"><rect id="Rectangle-1" width="89" height="33" fill="#efefe7" fill-rule="evenodd" rx="16.5" ry="16.5"/><text id="C6" fill="#979797" font-family="Source Code Pro" font-size="12" font-weight="700" text-anchor="middle"><tspan id="tspan1256" x="44.5" y="21" fill="gray">C0</tspan></text></g><path id="Line" fill="#8f8981" d="m106 84h35v1h-35v4l-9-4.5 9-4.5z" transform="translate(-4,-3)"/><path id="Line-2" fill="#8f8981" d="m233 86h35v1h-35v4l-9-4.5 9-4.5z" transform="translate(-4,-3)"/><g id="g1269" fill="none" fill-rule="evenodd" transform="translate(131,66)"><rect id="rect1263" width="89" height="33" fill="#efefe7" fill-rule="evenodd" rx="16.5" ry="16.5"/><text id="text1267" fill="#979797" font-family="Source Code Pro" font-size="12" font-weight="700" text-anchor="middle"><tspan id="tspan1265" x="44.5" y="21" fill="gray">C1</tspan></text></g><g id="g1277" fill="none" fill-rule="evenodd" transform="translate(258,66)"><rect id="rect1271" width="89" height="33" fill="#efefe7" fill-rule="evenodd" rx="16.5" ry="16.5"/><text id="text1275" fill="gray" font-family="Source Code Pro" font-size="12" font-weight="700" text-anchor="middle"><tspan id="tspan1273" x="44.5" y="21" fill="gray">C2</tspan></text></g><g id="g5031"><path id="Line-3" fill="#8f8981" d="m306 60v-32h1v32h4l-4.5 9-4.5-9z" transform="translate(-4.0001 -3)"/><g id="g5024"><rect id="Rectangle-2" width="106" height="33" fill="#f44d27" fill-rule="evenodd" transform="matrix(.83962 0 0 1 258 4)"/><text id="master" fill="#f0f0f0" fill-rule="evenodd" font-family="Source Code Pro" font-size="12" font-weight="700" text-anchor="middle" transform="translate(249.6 4.316)"><tspan id="tspan1280" x="53" y="20" fill="#f0f0f0">master</tspan></text></g></g></svg>