<svg xmlns="http://www.w3.org/2000/svg" id="svg34938" version="1.1" viewBox="0 0 479 223"><metadata id="metadata34944"/><title id="title34874">images/basic-rebase-1</title><desc id="desc34876">Created with Sketch.</desc><g id="03---Rebase-1" fill="none" fill-rule="evenodd" transform="translate(-10,-7)"><path id="Line" fill="#8f8981" fill-rule="nonzero" d="m112 146h35v1h-35v4l-9-4.5 9-4.5z"/><path id="Line-2" fill="#8f8981" fill-rule="nonzero" d="m239 148h35v1h-35v4l-9-4.5 9-4.5z"/><path id="Line-6" fill="#8f8981" fill-rule="nonzero" d="m366 147h35v1h-35v4l-9-4.5 9-4.5z"/><g id="brown" transform="translate(14,131)"><rect id="Rectangle-1" width="89" height="33" fill="#efefe7" fill-rule="evenodd" rx="16.5" ry="16.5"/><text id="C6" fill="#979797" font-family="Source Code Pro" font-size="12" font-weight="700" text-anchor="middle"><tspan id="tspan34882" x="44.5" y="21" fill="gray">C0</tspan></text></g><g id="g34892" transform="translate(141,131)"><rect id="rect34886" width="89" height="33" fill="#efefe7" fill-rule="evenodd" rx="16.5" ry="16.5"/><text id="text34890" fill="#979797" font-family="Source Code Pro" font-size="12" font-weight="700" text-anchor="middle"><tspan id="tspan34888" x="44.5" y="21" fill="gray">C1</tspan></text></g><g id="g34900" transform="translate(268,131)"><rect id="rect34894" width="89" height="33" fill="#efefe7" fill-rule="evenodd" rx="16.5" ry="16.5"/><text id="text34898" fill="#979797" font-family="Source Code Pro" font-size="12" font-weight="700" text-anchor="middle"><tspan id="tspan34896" x="44.5" y="21" fill="gray">C2</tspan></text></g><path id="Line-5" fill="#8f8981" fill-rule="nonzero" d="m358.93 129.92 45.659-35.122.60971.79262-45.659 35.122 2.4388 3.1705-9.8773 1.9206 4.3899-9.0542z"/><g id="Line-7-+-ref-3" transform="translate(396,11)"><path id="Line-7" fill="#8f8981" fill-rule="nonzero" d="m43 53v-32h1v32h4l-4.5 9-4.5-9z" transform="translate(1)"/><g id="ref"><rect id="Rectangle-2" width="106" height="36" fill="#f44d27" fill-rule="evenodd" transform="scale(.83962 1)"/><text id="master" fill="#979797" font-family="Source Code Pro" font-size="12" font-weight="700" text-anchor="middle" transform="translate(-8.5323 .51691)"><tspan id="tspan34905" x="53" y="20.909" fill="#f0f0f0">experiment</tspan></text></g></g><g id="brown-5-+-brown-4" transform="translate(396,73)"><g id="g34916"><rect id="rect34910" width="89" height="33" fill="#efefe7" fill-rule="evenodd" rx="16.5" ry="16.5"/><text id="text34914" fill="#979797" font-family="Source Code Pro" font-size="12" font-weight="700" text-anchor="middle"><tspan id="tspan34912" x="44.5" y="21" fill="gray">C4</tspan></text></g><g id="g34924" transform="translate(0,58)"><rect id="rect34918" width="89" height="33" fill="#efefe7" fill-rule="evenodd" rx="16.5" ry="16.5"/><text id="text34922" fill="#979797" font-family="Source Code Pro" font-size="12" font-weight="700" text-anchor="middle"><tspan id="tspan34920" x="44.5" y="21" fill="gray">C3</tspan></text></g></g><g id="Line-4-+-ref-2" transform="translate(397,164)"><path id="Line-4" fill="#8f8981" fill-rule="nonzero" d="m44 9v35h-1v-35h-4l4.5-9 4.5 9z"/><g id="g34934" transform="translate(-1,29)"><rect id="rect34928" width="106" height="33" fill="#f44d27" fill-rule="evenodd" transform="scale(.83962 1)"/><text id="text34932" fill="#979797" font-family="Source Code Pro" font-size="12" font-weight="700" text-anchor="middle" transform="translate(-8.4003 .316)"><tspan id="tspan34930" x="53" y="20" fill="#f0f0f0">master</tspan></text></g></g></g></svg>