<svg xmlns="http://www.w3.org/2000/svg" id="svg35448" version="1.1" viewBox="0 0 607 165"><metadata id="metadata35454"/><title id="title35384">images/basic-rebase-4</title><desc id="desc35386">Created with Sketch.</desc><g id="03---Rebase-4" fill="none" fill-rule="evenodd" transform="translate(-10,-7)"><path id="Line" fill="#8f8981" fill-rule="nonzero" d="m112 88h35v1h-35v4l-9-4.5 9-4.5z"/><path id="Line-2" fill="#8f8981" fill-rule="nonzero" d="m239 90h35v1h-35v4l-9-4.5 9-4.5z"/><g id="brown" transform="translate(14,73)"><rect id="Rectangle-1" width="89" height="33" fill="#efefe7" fill-rule="evenodd" rx="16.5" ry="16.5"/><text id="C6" fill="#979797" font-family="Source Code Pro" font-size="12" font-weight="700" text-anchor="middle"><tspan id="tspan35391" x="44.5" y="21" fill="gray">C0</tspan></text></g><g id="g35401" transform="translate(141,73)"><rect id="rect35395" width="89" height="33" fill="#efefe7" fill-rule="evenodd" rx="16.5" ry="16.5"/><text id="text35399" fill="#979797" font-family="Source Code Pro" font-size="12" font-weight="700" text-anchor="middle"><tspan id="tspan35397" x="44.5" y="21" fill="gray">C1</tspan></text></g><g id="g35409" transform="translate(268,73)"><rect id="rect35403" width="89" height="33" fill="#efefe7" fill-rule="evenodd" rx="16.5" ry="16.5"/><text id="text35407" fill="#979797" font-family="Source Code Pro" font-size="12" font-weight="700" text-anchor="middle"><tspan id="tspan35405" x="44.5" y="21" fill="gray">C2</tspan></text></g><g id="Line-7-+-ref-3" transform="translate(526,11)"><path id="Line-7" fill="#8f8981" fill-rule="nonzero" d="m43 53v-32h1v32h4l-4.5 9-4.5-9z" transform="translate(-1)"/><g id="ref" transform="translate(-2)"><rect id="Rectangle-2" width="106" height="36" fill="#f44d27" fill-rule="evenodd" transform="scale(.83962 1)"/><text id="master" fill="#979797" font-family="Source Code Pro" font-size="12" font-weight="700" text-anchor="middle" transform="translate(-8.5323 .51691)"><tspan id="tspan35413" x="53" y="20.909" fill="#f0f0f0">experiment</tspan></text></g></g><g id="Line-6-+-brown-4" transform="translate(357,73)"><path id="Line-6" fill="#8f8981" fill-rule="nonzero" d="m9 16h35v1h-35v4l-9-4.5 9-4.5z"/><g id="g35425" transform="translate(39)"><rect id="rect35419" width="89" height="33" fill="#efefe7" fill-rule="evenodd" rx="16.5" ry="16.5"/><text id="text35423" fill="#979797" font-family="Source Code Pro" font-size="12" font-weight="700" text-anchor="middle"><tspan id="tspan35421" x="44.5" y="21" fill="gray">C3</tspan></text></g></g><path id="Line-8" fill="#8f8981" fill-rule="nonzero" d="m494 89h35v1h-35v4l-9-4.5 9-4.5z"/><g id="g35435" transform="translate(524,73)"><rect id="rect35429" width="89" height="33" fill="#efefe7" fill-rule="evenodd" rx="16.5" ry="16.5"/><text id="text35433" fill="#979797" font-family="Source Code Pro" font-size="12" font-weight="700" text-anchor="middle"><tspan id="tspan35431" x="44.5" y="21" fill="gray">C4&apos;</tspan></text></g><g id="Line-4-+-ref-2" transform="translate(526,106)"><path id="Line-4" fill="#8f8981" fill-rule="nonzero" d="m44 9v35h-1v-35h-4l4.5-9 4.5 9z" transform="translate(-1)"/><g id="g35444" transform="translate(-2,29)"><rect id="rect35438" width="106" height="33" fill="#f44d27" fill-rule="evenodd" transform="scale(.83962 1)"/><text id="text35442" fill="#979797" font-family="Source Code Pro" font-size="12" font-weight="700" text-anchor="middle" transform="translate(-8.4003 .316)"><tspan id="tspan35440" x="53" y="20" fill="#f0f0f0">master</tspan></text></g></g></g></svg>