<svg xmlns="http://www.w3.org/2000/svg" id="svg34148" version="1.1" viewBox="0 0 478 281"><metadata id="metadata34154"/><title id="title34075">images/basic-branching-5</title><desc id="desc34077">Created with Sketch.</desc><g id="03---Basic-Branching-4" fill="none" fill-rule="evenodd" transform="translate(4,-7)"><path id="Line" fill="#8f8981" fill-rule="nonzero" d="m98 146h35v1h-35v4l-9-4.5 9-4.5z"/><path id="Line-2" fill="#8f8981" fill-rule="nonzero" d="m225 148h35v1h-35v4l-9-4.5 9-4.5z"/><path id="Line-6" fill="#8f8981" fill-rule="nonzero" d="m352 147h35v1h-35v4l-9-4.5 9-4.5z"/><g id="brown" transform="translate(0,131)"><rect id="Rectangle-1" width="89" height="33" fill="#efefe7" fill-rule="evenodd" rx="16.5" ry="16.5"/><text id="C6" fill="#979797" font-family="Source Code Pro" font-size="12" font-weight="700" text-anchor="middle"><tspan id="tspan34083" x="44.5" y="21" fill="gray">C0</tspan></text></g><g id="g34093" transform="translate(127,131)"><rect id="rect34087" width="89" height="33" fill="#efefe7" fill-rule="evenodd" rx="16.5" ry="16.5"/><text id="text34091" fill="#979797" font-family="Source Code Pro" font-size="12" font-weight="700" text-anchor="middle"><tspan id="tspan34089" x="44.5" y="21" fill="gray">C1</tspan></text></g><g id="g34101" transform="translate(254,131)"><rect id="rect34095" width="89" height="33" fill="#efefe7" fill-rule="evenodd" rx="16.5" ry="16.5"/><text id="text34099" fill="#979797" font-family="Source Code Pro" font-size="12" font-weight="700" text-anchor="middle"><tspan id="tspan34097" x="44.5" y="21" fill="gray">C2</tspan></text></g><path id="Line-3" fill="#8f8981" stroke="#8f8981" stroke-linecap="square" d="m425.5 32.5v40"/><g id="ref" transform="translate(381,11)"><rect id="Rectangle-2" width="106" height="33" fill="#f44d27" fill-rule="evenodd" transform="scale(.83962 1)"/><text id="master" fill="#979797" font-family="Source Code Pro" font-size="12" font-weight="700" text-anchor="middle" transform="translate(-8.4003 .316)"><tspan id="tspan34105" x="53" y="20" fill="#f0f0f0">master</tspan></text></g><path id="Line-5" fill="#8f8981" fill-rule="nonzero" d="m347.18 162.78 40.028 35.677-.66537.74651-40.028-35.677-2.6615 2.986-3.7245-9.3476 9.7128 2.629z"/><g id="Line-7-+-ref-3" transform="translate(382,69)"><path id="Line-7" fill="#8f8981" fill-rule="nonzero" d="m43 53v-32h1v32h4l-4.5 9-4.5-9z"/><g id="g34117" transform="translate(-1)"><rect id="rect34111" width="106" height="33" fill="#f44d27" fill-rule="evenodd" transform="scale(.83962 1)"/><text id="text34115" fill="#979797" font-family="Source Code Pro" font-size="12" font-weight="700" text-anchor="middle" transform="translate(-8.7063 .958)"><tspan id="tspan34113" x="53" y="20" fill="#f0f0f0">hotfix</tspan></text></g></g><g id="g34126" transform="translate(381,131)"><rect id="rect34120" width="89" height="33" fill="#efefe7" fill-rule="evenodd" rx="16.5" ry="16.5"/><text id="text34124" fill="#979797" font-family="Source Code Pro" font-size="12" font-weight="700" text-anchor="middle"><tspan id="tspan34122" x="44.5" y="21" fill="gray">C4</tspan></text></g><g id="brown-4-+-Line-4-+-ref-2" transform="translate(381,189)"><g id="g34134"><rect id="rect34128" width="89" height="33" fill="#efefe7" fill-rule="evenodd" rx="16.5" ry="16.5"/><text id="text34132" fill="#979797" font-family="Source Code Pro" font-size="12" font-weight="700" text-anchor="middle"><tspan id="tspan34130" x="44.5" y="21" fill="gray">C3</tspan></text></g></g><g id="Line-4-+-ref-2" transform="translate(383,222)"><path id="Line-4" fill="#8f8981" fill-rule="nonzero" d="m44 9v35h-1v-35h-4l4.5-9 4.5 9z" transform="translate(-1)"/><g id="g34143" transform="translate(-2,29)"><rect id="rect34137" width="106" height="33" fill="#f44d27" fill-rule="evenodd" transform="scale(.83962 1)"/><text id="text34141" fill="#979797" font-family="Source Code Pro" font-size="12" font-weight="700" text-anchor="middle" transform="translate(-8.5623 .958)"><tspan id="tspan34139" x="53" y="20" fill="#f0f0f0">iss53</tspan></text></g></g></g></svg>