<svg xmlns="http://www.w3.org/2000/svg" id="svg35292" version="1.1" viewBox="0 0 607 165"><metadata id="metadata35298"/><title id="title35217">images/basic-rebase-3</title><desc id="desc35219">Created with Sketch.</desc><g id="03---Rebase-3" fill="none" fill-rule="evenodd" transform="translate(-10,-8)"><path id="Line" fill="#8f8981" fill-rule="nonzero" d="m112 89h35v1h-35v4l-9-4.5 9-4.5z"/><path id="Line-2" fill="#8f8981" fill-rule="nonzero" d="m239 91h35v1h-35v4l-9-4.5 9-4.5z"/><g id="brown" transform="translate(14,74)"><rect id="Rectangle-1" width="89" height="33" fill="#efefe7" fill-rule="evenodd" rx="16.5" ry="16.5"/><text id="C6" fill="#979797" font-family="Source Code Pro" font-size="12" font-weight="700" text-anchor="middle"><tspan id="tspan35224" x="44.5" y="21" fill="gray">C0</tspan></text></g><g id="g35234" transform="translate(141,74)"><rect id="rect35228" width="89" height="33" fill="#efefe7" fill-rule="evenodd" rx="16.5" ry="16.5"/><text id="text35232" fill="#979797" font-family="Source Code Pro" font-size="12" font-weight="700" text-anchor="middle"><tspan id="tspan35230" x="44.5" y="21" fill="gray">C1</tspan></text></g><g id="g35242" transform="translate(268,74)"><rect id="rect35236" width="89" height="33" fill="#efefe7" fill-rule="evenodd" rx="16.5" ry="16.5"/><text id="text35240" fill="#979797" font-family="Source Code Pro" font-size="12" font-weight="700" text-anchor="middle"><tspan id="tspan35238" x="44.5" y="21" fill="gray">C2</tspan></text></g><g id="Line-7-+-ref-3" transform="translate(526,12)"><path id="Line-7" fill="#8f8981" fill-rule="nonzero" d="m43 53v-32h1v32h4l-4.5 9-4.5-9z" transform="translate(-1)"/><g id="ref" transform="translate(-2)"><rect id="Rectangle-2" width="106" height="36" fill="#f44d27" fill-rule="evenodd" transform="scale(.83962 1)"/><text id="master" fill="#979797" font-family="Source Code Pro" font-size="12" font-weight="700" text-anchor="middle" transform="translate(-8.5323 .51691)"><tspan id="tspan35246" x="53" y="20.909" fill="#f0f0f0">experiment</tspan></text></g></g><g id="Line-5-+-brown-5" opacity=".5" transform="translate(352,16)"><path id="Line-5" fill="#8f8981" fill-rule="nonzero" d="m6.9324 56.921 45.659-35.122.60971.79262-45.659 35.122 2.4388 3.1705-9.8773 1.9206 4.3899-9.0542z"/><g id="g35258" transform="translate(44)"><rect id="rect35252" width="89" height="33" fill="#efefe7" fill-rule="evenodd" rx="16.5" ry="16.5"/><text id="text35256" fill="#979797" font-family="Source Code Pro" font-size="12" font-weight="700" text-anchor="middle"><tspan id="tspan35254" x="44.5" y="21" fill="gray">C4</tspan></text></g></g><g id="Line-6-+-brown-4" transform="translate(357,74)"><path id="Line-6" fill="#8f8981" fill-rule="nonzero" d="m9 16h35v1h-35v4l-9-4.5 9-4.5z"/><g id="g35268" transform="translate(39)"><rect id="rect35262" width="89" height="33" fill="#efefe7" fill-rule="evenodd" rx="16.5" ry="16.5"/><text id="text35266" fill="#979797" font-family="Source Code Pro" font-size="12" font-weight="700" text-anchor="middle"><tspan id="tspan35264" x="44.5" y="21" fill="gray">C3</tspan></text></g></g><path id="path35271" fill="#8f8981" fill-rule="nonzero" d="m494 90h35v1h-35v4l-9-4.5 9-4.5z"/><g id="g35279" transform="translate(524,74)"><rect id="rect35273" width="89" height="33" fill="#efefe7" fill-rule="evenodd" rx="16.5" ry="16.5"/><text id="text35277" fill="#979797" font-family="Source Code Pro" font-size="12" font-weight="700" text-anchor="middle"><tspan id="tspan35275" x="44.5" y="21" fill="gray">C4&apos;</tspan></text></g><g id="Line-4-+-ref-2" transform="translate(397,107)"><path id="Line-4" fill="#8f8981" fill-rule="nonzero" d="m44 9v35h-1v-35h-4l4.5-9 4.5 9z" transform="translate(.1)"/><g id="g35288" transform="translate(-.9 29)"><rect id="rect35282" width="106" height="33" fill="#f44d27" fill-rule="evenodd" transform="scale(.83962 1)"/><text id="text35286" fill="#979797" font-family="Source Code Pro" font-size="12" font-weight="700" text-anchor="middle" transform="translate(-8.4003 .316)"><tspan id="tspan35284" x="53" y="20" fill="#f0f0f0">master</tspan></text></g></g></g></svg>