<svg xmlns="http://www.w3.org/2000/svg" id="svg35114" version="1.1" viewBox="0 0 607 223"><metadata id="metadata35120"/><title id="title35039">images/basic-rebase-2</title><desc id="desc35041">Created with Sketch.</desc><g id="03---Rebase-2" fill="none" fill-rule="evenodd" transform="translate(-10,-7)"><path id="Line" fill="#8f8981" fill-rule="nonzero" d="m112 146h35v1h-35v4l-9-4.5 9-4.5z"/><path id="Line-2" fill="#8f8981" fill-rule="nonzero" d="m239 148h35v1h-35v4l-9-4.5 9-4.5z"/><g id="brown" transform="translate(14,131)"><rect id="Rectangle-1" width="89" height="33" fill="#efefe7" fill-rule="evenodd" rx="16.5" ry="16.5"/><text id="C6" fill="#979797" font-family="Source Code Pro" font-size="12" font-weight="700" text-anchor="middle"><tspan id="tspan35046" x="44.5" y="21" fill="gray">C0</tspan></text></g><g id="g35056" transform="translate(141,131)"><rect id="rect35050" width="89" height="33" fill="#efefe7" fill-rule="evenodd" rx="16.5" ry="16.5"/><text id="text35054" fill="#979797" font-family="Source Code Pro" font-size="12" font-weight="700" text-anchor="middle"><tspan id="tspan35052" x="44.5" y="21" fill="gray">C1</tspan></text></g><g id="g35064" transform="translate(268,131)"><rect id="rect35058" width="89" height="33" fill="#efefe7" fill-rule="evenodd" rx="16.5" ry="16.5"/><text id="text35062" fill="#979797" font-family="Source Code Pro" font-size="12" font-weight="700" text-anchor="middle"><tspan id="tspan35060" x="44.5" y="21" fill="gray">C2</tspan></text></g><path id="Line-5" fill="#8f8981" fill-rule="nonzero" d="m358.93 129.92 45.659-35.122.60971.79262-45.659 35.122 2.4388 3.1705-9.8773 1.9206 4.3899-9.0542z"/><path id="Line-8" fill="#8f8981" fill-rule="nonzero" d="m490.34 103.57 42.865 35.866-.64172.76694-42.865-35.866-2.5669 3.0678-4.0147-9.2267 9.7902 2.3243z"/><g id="Line-7-+-ref-3" transform="translate(397,11)"><path id="Line-7" fill="#8f8981" fill-rule="nonzero" d="m43 53v-32h1v32h4l-4.5 9-4.5-9z"/><g id="ref" transform="translate(-1)"><rect id="Rectangle-2" width="106" height="36" fill="#f44d27" fill-rule="evenodd" transform="scale(.83962 1)"/><text id="master" fill="#979797" font-family="Source Code Pro" font-size="12" font-weight="700" text-anchor="middle" transform="translate(-8.5323 .51691)"><tspan id="tspan35070" x="53" y="20.909" fill="#f0f0f0">experiment</tspan></text></g></g><g id="g35081" transform="translate(396,73)"><rect id="rect35075" width="89" height="33" fill="#efefe7" fill-rule="evenodd" rx="16.5" ry="16.5"/><text id="text35079" fill="#979797" font-family="Source Code Pro" font-size="12" font-weight="700" text-anchor="middle"><tspan id="tspan35077" x="44.5" y="21" fill="gray">C4</tspan></text></g><g id="Line-6-+-brown-4" transform="translate(357,131)"><path id="Line-6" fill="#8f8981" fill-rule="nonzero" d="m9 16h35v1h-35v4l-9-4.5 9-4.5z"/><g id="g35090" transform="translate(39)"><rect id="rect35084" width="89" height="33" fill="#efefe7" fill-rule="evenodd" rx="16.5" ry="16.5"/><text id="text35088" fill="#979797" font-family="Source Code Pro" font-size="12" font-weight="700" text-anchor="middle"><tspan id="tspan35086" x="44.5" y="21" fill="gray">C3</tspan></text></g></g><path id="path35093" fill="#8f8981" fill-rule="nonzero" d="m494 147h35v1h-35v4l-9-4.5 9-4.5z"/><g id="g35101" transform="translate(524,131)"><rect id="rect35095" width="89" height="33" fill="#efefe7" fill-rule="evenodd" rx="16.5" ry="16.5"/><text id="text35099" fill="#979797" font-family="Source Code Pro" font-size="12" font-weight="700" text-anchor="middle"><tspan id="tspan35097" x="44.5" y="21" fill="gray">C5</tspan></text></g><g id="Line-4-+-ref-2" transform="translate(526,164)"><path id="Line-4" fill="#8f8981" fill-rule="nonzero" d="m44 9v35h-1v-35h-4l4.5-9 4.5 9z" transform="translate(-1)"/><g id="g35110" transform="translate(-2,29)"><rect id="rect35104" width="106" height="33" fill="#f44d27" fill-rule="evenodd" transform="scale(.83962 1)"/><text id="text35108" fill="#979797" font-family="Source Code Pro" font-size="12" font-weight="700" text-anchor="middle" transform="translate(-8.4003 .316)"><tspan id="tspan35106" x="53" y="20" fill="#f0f0f0">master</tspan></text></g></g></g></svg>