<svg xmlns="http://www.w3.org/2000/svg" id="svg34328" version="1.1" viewBox="0 0 604 223"><metadata id="metadata34334"/><title id="title34255">images/basic-branching-6</title><desc id="desc34257">Created with Sketch.</desc><g id="03---Basic-Branching-5" fill="none" fill-rule="evenodd" transform="translate(-8,-65)"><g id="g34389"><g id="brown" transform="translate(12,131)"><rect id="Rectangle-1" width="89" height="33" fill="#efefe7" fill-rule="evenodd" rx="16.5" ry="16.5"/><text id="C6" fill="#979797" font-family="Source Code Pro" font-size="12" font-weight="700" text-anchor="middle"><tspan id="tspan34263" x="44.5" y="21" fill="gray">C0</tspan></text></g><g id="g34273" transform="translate(139,131)"><rect id="rect34267" width="89" height="33" fill="#efefe7" fill-rule="evenodd" rx="16.5" ry="16.5"/><text id="text34271" fill="#979797" font-family="Source Code Pro" font-size="12" font-weight="700" text-anchor="middle"><tspan id="tspan34269" x="44.5" y="21" fill="gray">C1</tspan></text></g><g id="g34281" transform="translate(266,131)"><rect id="rect34275" width="89" height="33" fill="#efefe7" fill-rule="evenodd" rx="16.5" ry="16.5"/><text id="text34279" fill="#979797" font-family="Source Code Pro" font-size="12" font-weight="700" text-anchor="middle"><tspan id="tspan34277" x="44.5" y="21" fill="gray">C2</tspan></text></g><g id="g34344"><path id="Line" fill="#8f8981" fill-rule="nonzero" d="m110 146h35v1h-35v4l-9-4.5 9-4.5z"/><path id="Line-2" fill="#8f8981" fill-rule="nonzero" d="m237 148h35v1h-35v4l-9-4.5 9-4.5z"/><path id="Line-6" fill="#8f8981" fill-rule="nonzero" d="m364 147h35v1h-35v4l-9-4.5 9-4.5z"/><path id="Line-5" fill="#8f8981" fill-rule="nonzero" d="m359.18 162.78 40.028 35.677-.66537.74651-40.028-35.677-2.6615 2.986-3.7245-9.3476 9.7128 2.629z"/></g><g id="Line-7-+-ref-3" transform="translate(394,69)"><path id="Line-7" fill="#8f8981" fill-rule="nonzero" d="m43 53v-32h1v32h4l-4.5 9-4.5-9z"/><g id="ref" transform="translate(-1)"><rect id="Rectangle-2" width="106" height="33" fill="#f44d27" fill-rule="evenodd" transform="scale(.83962 1)"/><text id="master" fill="#979797" font-family="Source Code Pro" font-size="12" font-weight="700" text-anchor="middle" transform="translate(-8.4003)"><tspan id="tspan34286" x="53" y="20" fill="#f0f0f0">master</tspan></text></g></g><g id="g34297" transform="translate(393,131)"><rect id="rect34291" width="89" height="33" fill="#efefe7" fill-rule="evenodd" rx="16.5" ry="16.5"/><text id="text34295" fill="#979797" font-family="Source Code Pro" font-size="12" font-weight="700" text-anchor="middle"><tspan id="tspan34293" x="44.5" y="21" fill="gray">C4</tspan></text></g><g id="Line-8-+-brown-6" transform="translate(481,189)"><path id="Line-8" fill="#8f8981" fill-rule="nonzero" d="m9 16h35v1h-35v4l-9-4.5 9-4.5z" transform="translate(1)"/><g id="g34306" transform="translate(38)"><rect id="rect34300" width="89" height="33" fill="#efefe7" fill-rule="evenodd" rx="16.5" ry="16.5"/><text id="text34304" fill="#979797" font-family="Source Code Pro" font-size="12" font-weight="700" text-anchor="middle"><tspan id="tspan34302" x="44.5" y="21" fill="gray">C5</tspan></text></g></g><g id="g34315" transform="translate(393,189)"><rect id="rect34309" width="89" height="33" fill="#efefe7" fill-rule="evenodd" rx="16.5" ry="16.5"/><text id="text34313" fill="#979797" font-family="Source Code Pro" font-size="12" font-weight="700" text-anchor="middle"><tspan id="tspan34311" x="44.5" y="21" fill="gray">C3</tspan></text></g><g id="Line-4-+-ref-2" transform="translate(521,222)"><path id="Line-4" fill="#8f8981" fill-rule="nonzero" d="m44 9v35h-1v-35h-4l4.5-9 4.5 9z" transform="translate(-1)"/><g id="g34324" transform="translate(-2,29)"><rect id="rect34318" width="106" height="33" fill="#f44d27" fill-rule="evenodd" transform="scale(.83962 1)"/><text id="text34322" fill="#979797" font-family="Source Code Pro" font-size="12" font-weight="700" text-anchor="middle" transform="translate(-8.5623 .958)"><tspan id="tspan34320" x="53" y="20" fill="#f0f0f0">iss53</tspan></text></g></g></g></g></svg>