<svg xmlns="http://www.w3.org/2000/svg" id="svg33710" version="1.1" viewBox="0 0 478 165"><metadata id="metadata33716"/><title id="title33657">images/basic-branching-3</title><desc id="desc33659">Created with Sketch.</desc><g id="03---Basic-Branching-2" fill="none" fill-rule="evenodd" transform="translate(4,-7)"><g id="g33721"><path id="Line-5" fill="#8f8981" fill-rule="nonzero" d="m352 89h35v1h-35v4l-9-4.5 9-4.5z"/><path id="Line" fill="#8f8981" fill-rule="nonzero" d="m98 88h35v1h-35v4l-9-4.5 9-4.5z"/><path id="Line-2" fill="#8f8981" fill-rule="nonzero" d="m225 90h35v1h-35v4l-9-4.5 9-4.5z"/></g><g id="brown" transform="translate(0,73)"><rect id="Rectangle-1" width="89" height="33" fill="#efefe7" fill-rule="evenodd" rx="16.5" ry="16.5"/><text id="C6" fill="#979797" font-family="Source Code Pro" font-size="12" font-weight="700" text-anchor="middle"><tspan id="tspan33663" x="44.5" y="21" fill="gray">C0</tspan></text></g><g id="g33673" transform="translate(127,73)"><rect id="rect33667" width="89" height="33" fill="#efefe7" fill-rule="evenodd" rx="16.5" ry="16.5"/><text id="text33671" fill="#979797" font-family="Source Code Pro" font-size="12" font-weight="700" text-anchor="middle"><tspan id="tspan33669" x="44.5" y="21" fill="gray">C1</tspan></text></g><g id="g33681" transform="translate(254,73)"><rect id="rect33675" width="89" height="33" fill="#efefe7" fill-rule="evenodd" rx="16.5" ry="16.5"/><text id="text33679" fill="#979797" font-family="Source Code Pro" font-size="12" font-weight="700" text-anchor="middle"><tspan id="tspan33677" x="44.5" y="21" fill="gray">C2</tspan></text></g><g id="g33689" transform="translate(381,73)"><rect id="rect33683" width="89" height="33" fill="#efefe7" fill-rule="evenodd" rx="16.5" ry="16.5"/><text id="text33687" fill="#979797" font-family="Source Code Pro" font-size="12" font-weight="700" text-anchor="middle"><tspan id="tspan33685" x="44.5" y="21" fill="gray">C3</tspan></text></g><path id="Line-3" fill="#8f8981" fill-rule="nonzero" d="m298 64v-32h1v32h4l-4.5 9-4.5-9z"/><g id="ref" transform="translate(254,11)"><rect id="Rectangle-2" width="106" height="33" fill="#f44d27" fill-rule="evenodd" transform="scale(.83962 1)"/><text id="master" fill="#979797" font-family="Source Code Pro" font-size="12" font-weight="700" text-anchor="middle" transform="translate(-8.4003 .316)"><tspan id="tspan33695" x="53" y="20" fill="#f0f0f0">master</tspan></text></g><g id="Line-4-+-ref-2" transform="translate(381,106)"><path id="Line-4" fill="#8f8981" fill-rule="nonzero" d="m44 9v35h-1v-35h-4l4.5-9 4.5 9z" transform="translate(1)"/><g id="g33706" transform="translate(0,29)"><rect id="rect33700" width="106" height="33" fill="#f44d27" fill-rule="evenodd" transform="scale(.83962 1)"/><text id="text33704" fill="#979797" font-family="Source Code Pro" font-size="12" font-weight="700" text-anchor="middle" transform="translate(-8.5623 .958)"><tspan id="tspan33702" x="53" y="20" fill="#f0f0f0">iss53</tspan></text></g></g></g></svg>