<svg xmlns="http://www.w3.org/2000/svg" id="svg437" version="1.1" viewBox="0 0 604.1 223"><metadata id="metadata443"/><title id="title353">images/basic-merging-1</title><desc id="desc355">Created with Sketch.</desc><g id="03---Basic-Merging-1" fill="none" fill-rule="evenodd" transform="translate(-8,-65)"><g id="g34594"><path id="Line" fill="#8f8981" fill-rule="nonzero" d="m110 146h35v1h-35v4l-9-4.5 9-4.5z"/><path id="Line-2" fill="#8f8981" fill-rule="nonzero" d="m237 148h35v1h-35v4l-9-4.5 9-4.5z"/><path id="Line-6" fill="#8f8981" fill-rule="nonzero" d="m364 147h35v1h-35v4l-9-4.5 9-4.5z"/><g id="brown" transform="translate(12,131)"><rect id="Rectangle-1" width="89" height="33" fill="#efefe7" fill-rule="evenodd" rx="16.5" ry="16.5"/><text id="C6" fill="#979797" font-family="Source Code Pro" font-size="12" font-weight="700" text-anchor="middle"><tspan id="tspan361" x="44.5" y="21" fill="gray">C0</tspan></text></g><g id="g371" transform="translate(139,131)"><rect id="rect365" width="89" height="33" fill="#efefe7" fill-rule="evenodd" rx="16.5" ry="16.5"/><text id="text369" fill="#979797" font-family="Source Code Pro" font-size="12" font-weight="700" text-anchor="middle"><tspan id="tspan367" x="44.5" y="21" fill="gray">C1</tspan></text></g><g id="brown-3" transform="translate(266,131)"><rect id="rect373" width="87" height="31" x="1" y="1" fill="#efefe7" stroke="#159099" stroke-width="2" rx="15.5" ry="15.5"/><text id="C5" fill="#979797" font-family="Source Code Pro" font-size="12" font-weight="700" text-anchor="middle"><tspan id="tspan375" x="43.5" y="21" fill="gray">C2</tspan></text></g><path id="Line-5" fill="#8f8981" fill-rule="nonzero" d="m359.18 162.78 40.028 35.677-.66537.74651-40.028-35.677-2.6615 2.9861-3.7245-9.3476 9.7128 2.629-2.6615 2.9861z"/><path id="Line-7" fill="#8f8981" fill-rule="nonzero" d="m43 53v-32h1v32h4l-4.5 9-4.5-9z" transform="translate(394,69)"/><g id="ref" transform="translate(393,69)"><rect id="Rectangle-2" width="106" height="33" fill="#f44d27" fill-rule="evenodd" transform="scale(.83962 1)"/><text id="master" fill="#979797" font-family="Source Code Pro" font-size="12" font-weight="700" text-anchor="middle" transform="translate(-8.4003 .316)"><tspan id="tspan382" x="53" y="20" fill="#f0f0f0">master</tspan></text></g><text id="text34525" x="112.493" y="246.855" fill="#404040" font-family="Source Code Pro" font-size="12" font-weight="bold" letter-spacing="0" transform="translate(371.04 -122.9)" word-spacing="0" xml:space="preserve" style="font-feature-settings:normal;font-variant-caps:normal;font-variant-ligatures:normal;font-variant-numeric:normal;line-height:14px"><tspan id="tspan34523" x="112.493" y="246.855">Snapshot to</tspan><tspan id="tspan34527" x="112.493" y="260.855">Merge Into</tspan></text><g id="brown-5" transform="translate(393,131)"><rect id="rect387" width="87" height="31" x="1" y="1" fill="#efefe7" stroke="#159099" stroke-width="2" rx="15.5" ry="15.5"/><text id="text391" fill="#979797" font-family="Source Code Pro" font-size="12" font-weight="700" text-anchor="middle"><tspan id="tspan389" x="43.5" y="21" fill="gray">C4</tspan></text></g><path id="Line-8" fill="#8f8981" fill-rule="nonzero" d="m490 205h35v1h-35v4l-9-4.5 9-4.5z" transform="translate(.9)"/><g id="brown-6" transform="translate(519,189)"><rect id="rect395" width="87" height="31" x="1" y="1" fill="#efefe7" stroke="#159099" stroke-width="2" rx="15.5" ry="15.5"/><text id="text399" fill="#979797" font-family="Source Code Pro" font-size="12" font-weight="700" text-anchor="middle"><tspan id="tspan397" x="43.5" y="21" fill="gray">C5</tspan></text></g><g id="g408" transform="translate(393,189)"><rect id="rect402" width="89" height="33" fill="#efefe7" fill-rule="evenodd" rx="16.5" ry="16.5"/><text id="text406" fill="#979797" font-family="Source Code Pro" font-size="12" font-weight="700" text-anchor="middle"><tspan id="tspan404" x="44.5" y="21" fill="gray">C3</tspan></text></g><g id="Line-4-+-ref-2" transform="translate(521,222)"><path id="Line-4" fill="#8f8981" fill-rule="nonzero" d="m44 9v35h-1v-35h-4l4.5-9 4.5 9z" transform="translate(-.9)"/><g id="g417" transform="translate(-1.9,29)"><rect id="rect411" width="106" height="33" fill="#f44d27" fill-rule="evenodd" transform="scale(.83962 1)"/><text id="text415" fill="#979797" font-family="Source Code Pro" font-size="12" font-weight="700" text-anchor="middle" transform="translate(-8.5623)"><tspan id="tspan413" x="53" y="20" fill="#f0f0f0">iss53</tspan></text></g></g><text style="line-height:12.33333302px" id="Common" fill="#404141" font-family="Source Code Pro" font-size="12" font-weight="700" transform="translate(0,-1.4)"><tspan style="line-height:12.33333302px" id="tspan431" x="289.326" y="115" fill="#404141">Common</tspan> <tspan style="line-height:12.33333302px" id="tspan433" x="282.102" y="129" fill="#404141">Ancestor</tspan></text><text id="text34539" x="669.725" y="113.009" fill="#404040" font-family="Source Code Pro" font-size="12" font-weight="bold" letter-spacing="0" text-anchor="middle" transform="translate(-106.25 55.082)" word-spacing="0" xml:space="preserve" style="font-feature-settings:normal;font-variant-caps:normal;font-variant-ligatures:normal;font-variant-numeric:normal;line-height:14px;text-align:center"><tspan id="tspan34537" x="669.725" y="113.009" fill="#404040">Snapshot to</tspan><tspan id="tspan34541" x="669.725" y="127.009" fill="#404040">Merge In</tspan></text></g></g></svg>