<svg xmlns="http://www.w3.org/2000/svg" id="svg36371" version="1.1" viewBox="0 0 529 225"><metadata id="metadata36377"/><title id="title36310">images/checkout-master</title><desc id="desc36312">Created with Sketch.</desc><g id="03---Branch-Progression-2" fill="none" fill-rule="evenodd" transform="translate(4,4)"><g id="g36419"><path id="Line-7" fill="#8f8981" fill-rule="nonzero" d="m333 113v-29h1v29h4l-4.5 9-4.5-9z" transform="translate(-.5)"/><path id="Line" fill="#8f8981" fill-rule="nonzero" d="m240 138h50v1h-50v4l-9-4.5 9-4.5z"/><path id="Line-3" fill="#8f8981" fill-rule="nonzero" d="m385 138h50v1h-50v4l-9-4.5 9-4.5z"/><path id="Line-2" fill="#8f8981" fill-rule="nonzero" d="m95 138h50v1h-50v4l-9-4.5 9-4.5z"/><g id="ref" transform="translate(290,61)"><rect id="Rectangle-2" width="106" height="33" fill="#f44d27" fill-rule="evenodd" transform="scale(.81132 1)"/><text id="master" fill="#979797" font-family="Source Code Pro" font-size="12" font-weight="700" text-anchor="middle" transform="translate(-9.9003 .316)"><tspan id="tspan36319" x="53" y="20" fill="#f0f0f0">master</tspan></text></g><g id="other" transform="translate(290,122)"><rect id="rect36323" width="86" height="33" fill="#efefe7" fill-rule="evenodd"/><text id="text36327" fill="#979797" font-family="Source Code Pro" font-size="12" font-weight="700" text-anchor="middle"><tspan id="tspan36325" x="43" y="21" fill="gray">f30ab</tspan></text></g><g id="g36336" transform="translate(435,122)"><rect id="rect36330" width="86" height="33" fill="#efefe7" fill-rule="evenodd"/><text id="text36334" fill="#979797" font-family="Source Code Pro" font-size="12" font-weight="700" text-anchor="middle"><tspan id="tspan36332" x="43" y="21" fill="gray">87ab2</tspan></text></g><g id="g36344" transform="translate(145,122)"><rect id="rect36338" width="86" height="33" fill="#efefe7" fill-rule="evenodd"/><text id="text36342" fill="#979797" font-family="Source Code Pro" font-size="12" font-weight="700" text-anchor="middle"><tspan id="tspan36340" x="43" y="21" fill="gray">34ac2</tspan></text></g><g id="g36352" transform="translate(0,122)"><rect id="rect36346" width="86" height="33" fill="#efefe7" fill-rule="evenodd"/><text id="text36350" fill="#979797" font-family="Source Code Pro" font-size="12" font-weight="700" text-anchor="middle"><tspan id="tspan36348" x="43" y="21" fill="gray">98ca9</tspan></text></g><path id="Line-8" fill="#8f8981" fill-rule="nonzero" d="m479 164v30h-1v-30h-4l4.5-9 4.5 9z" transform="translate(-.5)"/><g id="g36361" transform="translate(435,184)"><rect id="rect36355" width="106" height="33" fill="#f44d27" fill-rule="evenodd" transform="scale(.81132 1)"/><text id="text36359" fill="#979797" font-family="Source Code Pro" font-size="12" font-weight="700" text-anchor="middle" transform="translate(-10.128 -.236)"><tspan id="tspan36357" x="53" y="20" fill="#f0f0f0">testing</tspan></text></g><path id="Line-11" fill="#8f8981" fill-rule="nonzero" d="m334 52v-34h1v34h4l-4.5 9-4.5-9z" transform="translate(-1.5)"/><g id="goldref" transform="translate(290)"><rect id="Rectangle-3" width="108" height="33" fill="#cd9f00" fill-rule="evenodd" transform="scale(.7963 1)"/><text id="master-2" fill="#979797" font-family="Source Code Pro" font-size="12" font-weight="700" text-anchor="middle" transform="translate(-11.17 .412)"><tspan id="tspan36366" x="54" y="20" fill="#f0f0f0">HEAD</tspan></text></g></g></g></svg>