<svg xmlns="http://www.w3.org/2000/svg" id="svg1463" version="1.1" viewBox="0 0 384 228"><metadata id="metadata1469"/><title id="title1412">images/head-to-master</title><desc id="desc1414">Created with Sketch.</desc><g id="g1557" transform="translate(290)"><path id="Line-7" fill="#8f8981" d="m333 117v-29h1v29h4l-4.5 9-4.5-9z" transform="translate(-286,4)"/><path id="Line-9" fill="#8f8981" d="m333 56v-29h1v29h4l-4.5 9-4.5-9z" transform="translate(-286,4)"/><path id="Line-8" fill="#8f8981" d="m334 167v30h-1v-30h-4l4.5-9 4.5 9z" transform="translate(-286,4.7)"/><path id="Line" fill="#8f8981" d="m240 142h50v1h-50v4l-9-4.5 9-4.5z" transform="translate(-286,4)"/><path id="Line-2" fill="#8f8981" d="m95 142h50v1h-50v4l-9-4.5 9-4.5z" transform="translate(-286,4)"/><g id="g1518" transform="translate(-286,4)"><rect id="Rectangle-2" width="106" height="33" fill="#f44d27" fill-rule="evenodd" transform="matrix(.81132 0 0 1 290 65)"/><text id="master" fill="#979797" fill-rule="evenodd" font-family="Source Code Pro" font-size="12" font-weight="700" text-anchor="middle" transform="translate(280.1 65.316)"><tspan id="tspan1422" x="53" y="20" fill="#f0f0f0">master</tspan></text></g><g id="g1513" transform="translate(-286,4)"><rect id="rect1426" width="106" height="33" fill="#f44d27" fill-rule="evenodd" transform="matrix(.81132 0 0 1 290 187)"/><text id="text1430" fill="#979797" fill-rule="evenodd" font-family="Source Code Pro" font-size="12" font-weight="700" text-anchor="middle" transform="translate(279.87 186.76)"><tspan id="tspan1428" x="53" y="20" fill="#f0f0f0">testing</tspan></text></g><g id="other" fill="none" fill-rule="evenodd" transform="translate(4,130)"><rect id="rect1434" width="86" height="33" fill="#efefe7" fill-rule="evenodd"/><text id="text1438" fill="#979797" font-family="Source Code Pro" font-size="12" font-weight="700" text-anchor="middle"><tspan id="tspan1436" x="43" y="21" fill="gray">f30ab</tspan></text></g><g id="g1447" fill="none" fill-rule="evenodd" transform="translate(-141,130)"><rect id="rect1441" width="86" height="33" fill="#efefe7" fill-rule="evenodd"/><text id="text1445" fill="#979797" font-family="Source Code Pro" font-size="12" font-weight="700" text-anchor="middle"><tspan id="tspan1443" x="43" y="21" fill="gray">34ac2</tspan></text></g><g id="g1455" fill="none" fill-rule="evenodd" transform="translate(-286,130)"><rect id="rect1449" width="86" height="33" fill="#efefe7" fill-rule="evenodd"/><text id="text1453" fill="#979797" font-family="Source Code Pro" font-size="12" font-weight="700" text-anchor="middle"><tspan id="tspan1451" x="43" y="21" fill="gray">98ca9</tspan></text></g><g id="g1526" transform="translate(-286,4)"><rect id="Rectangle-3" width="108" height="33" fill="#cd9f00" fill-rule="evenodd" transform="matrix(.7963 0 0 1 290 0)"/><text id="master-2" fill="#979797" fill-rule="evenodd" font-family="Source Code Pro" font-size="12" font-weight="700" text-anchor="middle" transform="translate(278.83 .412)"><tspan id="tspan1458" x="54" y="20" fill="#f0f0f0">HEAD</tspan></text></g></g></svg>