<svg xmlns="http://www.w3.org/2000/svg" id="svg2730" version="1.1" viewBox="0 0 606 347"><metadata id="metadata2736"/><title id="title2611">images/interesting-rebase-1</title><desc id="desc2613">Created with Sketch.</desc><g id="g2965" transform="translate(-10,-7)"><g id="brown" fill="none" fill-rule="evenodd" transform="translate(14,73)"><rect id="Rectangle-1" width="89" height="33" fill="#efefe7" fill-rule="evenodd" rx="16.5" ry="16.5"/><text id="C6" fill="#979797" font-family="Source Code Pro" font-size="12" font-weight="700" text-anchor="middle"><tspan id="tspan2616" x="44.5" y="21" fill="gray">C1</tspan></text></g><g id="Line-+-brown-2" fill="none" fill-rule="evenodd" transform="translate(103,73)"><path id="Line" fill="#8f8981" fill-rule="nonzero" d="m9 15h35v1h-35v4l-9-4.5 9-4.5z"/><g id="g2627" transform="translate(38)"><rect id="rect2621" width="89" height="33" fill="#efefe7" fill-rule="evenodd" rx="16.5" ry="16.5"/><text id="text2625" fill="#979797" font-family="Source Code Pro" font-size="12" font-weight="700" text-anchor="middle"><tspan id="tspan2623" x="44.5" y="21" fill="gray">C2</tspan></text></g></g><g id="Line-2-+-brown-3" fill="none" fill-rule="evenodd" transform="translate(230,73)"><path id="Line-2" fill="#8f8981" fill-rule="nonzero" d="m9 17h35v1h-35v4l-9-4.5 9-4.5z"/><g id="g2637" transform="translate(38)"><rect id="rect2631" width="89" height="33" fill="#efefe7" fill-rule="evenodd" rx="16.5" ry="16.5"/><text id="text2635" fill="#979797" font-family="Source Code Pro" font-size="12" font-weight="700" text-anchor="middle"><tspan id="tspan2633" x="44.5" y="21" fill="gray">C5</tspan></text></g></g><g id="g2848"><path id="Line-7" fill="#8f8981" d="m43 53v-32h1v32h4l-4.5 9-4.5-9z" transform="translate(396.8,11)"/><g id="g2821"><rect id="Rectangle-2" width="106" height="36" fill="#f44d27" fill-rule="evenodd" transform="matrix(.83962 0 0 1 395.8 11)"/><text id="master" fill="#979797" fill-rule="evenodd" font-family="Source Code Pro" font-size="12" font-weight="700" text-anchor="middle" transform="translate(387.4 11.907)"><tspan id="tspan2642" x="53" y="20.909" fill="#f0f0f0">master</tspan></text></g></g><g id="Line-6-+-brown-4" fill="none" fill-rule="evenodd" transform="translate(357,73)"><path id="Line-6" fill="#8f8981" fill-rule="nonzero" d="m9 16h35v1h-35v4l-9-4.5 9-4.5z"/><g id="g2654" transform="translate(39)"><rect id="rect2648" width="89" height="33" fill="#efefe7" fill-rule="evenodd" rx="16.5" ry="16.5"/><text id="text2652" fill="#979797" font-family="Source Code Pro" font-size="12" font-weight="700" text-anchor="middle"><tspan id="tspan2650" x="44.5" y="21" fill="gray">C6</tspan></text></g></g><g id="g2893"><path id="path2657" fill="#8f8981" d="m232.15 107.81 44.054 39.648-.66896.7433-44.054-39.648-2.6759 2.9732-3.6793-9.3655 9.7 2.6759z"/><g id="g2665" fill="none" fill-rule="evenodd" transform="translate(268,137)"><rect id="rect2659" width="89" height="33" fill="#efefe7" fill-rule="evenodd" rx="16.5" ry="16.5"/><text id="text2663" fill="#979797" font-family="Source Code Pro" font-size="12" font-weight="700" text-anchor="middle"><tspan id="tspan2661" x="44.5" y="21" fill="gray">C3</tspan></text></g></g><g id="Line-6-+-brown-6" fill="none" fill-rule="evenodd" transform="translate(357,137)"><path id="path2667" fill="#8f8981" fill-rule="nonzero" d="m9 16h35v1h-35v4l-9-4.5 9-4.5z"/><g id="g2675" transform="translate(39)"><rect id="rect2669" width="89" height="33" fill="#efefe7" fill-rule="evenodd" rx="16.5" ry="16.5"/><text id="text2673" fill="#979797" font-family="Source Code Pro" font-size="12" font-weight="700" text-anchor="middle"><tspan id="tspan2671" x="44.5" y="21" fill="gray">C4</tspan></text></g></g><g id="g2886"><g id="g2878"><path id="path2678" fill="#8f8981" d="m354.44 175.43 54.747 87.224-.84698.53162-54.747-87.224-3.3879 2.1265-.97313-10.015 8.596 5.2306z"/></g><g id="g2686" fill="none" fill-rule="evenodd" transform="translate(396,255)"><rect id="rect2680" width="89" height="33" fill="#efefe7" fill-rule="evenodd" rx="16.5" ry="16.5"/><text id="text2684" fill="#979797" font-family="Source Code Pro" font-size="12" font-weight="700" text-anchor="middle"><tspan id="tspan2682" x="44.5" y="21" fill="gray">C8</tspan></text></g></g><g id="g2868"><path id="path2688" fill="#8f8981" d="m493 271h35v1h-35v4l-9-4.5 9-4.5z" transform="translate(1)"/><g id="g2696" fill="none" fill-rule="evenodd" transform="translate(523,255)"><rect id="rect2690" width="89" height="33" fill="#efefe7" fill-rule="evenodd" rx="16.5" ry="16.5"/><text id="text2694" fill="#979797" font-family="Source Code Pro" font-size="12" font-weight="700" text-anchor="middle"><tspan id="tspan2692" x="44.5" y="21" fill="gray">C9</tspan></text></g></g><g id="g2875"><path id="path2698" fill="#8f8981" d="m493 153h35v1h-35v4l-9-4.5 9-4.5z"/><g id="g2706" fill="none" fill-rule="evenodd" transform="translate(523,137)"><rect id="rect2700" width="89" height="33" fill="#efefe7" fill-rule="evenodd" rx="16.5" ry="16.5"/><text id="text2704" fill="#979797" font-family="Source Code Pro" font-size="12" font-weight="700" text-anchor="middle"><tspan id="tspan2702" x="44.5" y="21" fill="gray">C10</tspan></text></g></g><g id="g2841"><path id="Line-4" fill="#8f8981" d="m44 9v35h-1v-35h-4l4.5-9 4.5 9z" transform="translate(524,170)"/><g id="g2834"><rect id="rect2709" width="106" height="33" fill="#f44d27" fill-rule="evenodd" transform="matrix(.83962 0 0 1 523 199)"/><text id="text2713" fill="#979797" fill-rule="evenodd" font-family="Source Code Pro" font-size="12" font-weight="700" text-anchor="middle" transform="translate(514.49 198.48)"><tspan id="tspan2711" x="53" y="20" fill="#f0f0f0">server</tspan></text></g></g><path id="path2718" fill="#8f8981" d="m44 9v35h-1v-35h-4l4.5-9 4.5 9z" transform="translate(523.9,288)"/><g id="g2861"><rect id="rect2720" width="106" height="33" fill="#f44d27" fill-rule="evenodd" transform="matrix(.83962 0 0 1 522.9 317)"/><text id="text2724" fill="#979797" fill-rule="evenodd" font-family="Source Code Pro" font-size="12" font-weight="700" text-anchor="middle" transform="translate(514.3 317.96)"><tspan id="tspan2722" x="53" y="20" fill="#f0f0f0">client</tspan></text></g></g></svg>