<svg xmlns="http://www.w3.org/2000/svg" id="svg4923" version="1.1" viewBox="0 0 1116 103"><metadata id="metadata4929"/><title id="title4825">images/interesting-rebase-5</title><desc id="desc4827">Created with Sketch.</desc><g id="g5111" transform="translate(-10,-7)"><g id="brown" fill="none" fill-rule="evenodd" transform="translate(14,73)"><rect id="Rectangle-1" width="89" height="33" fill="#efefe7" fill-rule="evenodd" rx="16.5" ry="16.5"/><text id="C6" fill="#979797" font-family="Source Code Pro" font-size="12" font-weight="700" text-anchor="middle"><tspan id="tspan4830" x="44.5" y="21" fill="gray">C1</tspan></text></g><g id="Line-+-brown-2" fill="none" fill-rule="evenodd" transform="translate(103,73)"><path id="Line" fill="#8f8981" fill-rule="nonzero" d="m9 15h35v1h-35v4l-9-4.5 9-4.5z"/><g id="g4841" transform="translate(38)"><rect id="rect4835" width="89" height="33" fill="#efefe7" fill-rule="evenodd" rx="16.5" ry="16.5"/><text id="text4839" fill="#979797" font-family="Source Code Pro" font-size="12" font-weight="700" text-anchor="middle"><tspan id="tspan4837" x="44.5" y="21" fill="gray">C2</tspan></text></g></g><g id="Line-2-+-brown-3" fill="none" fill-rule="evenodd" transform="translate(230,73)"><path id="Line-2" fill="#8f8981" fill-rule="nonzero" d="m9 17h35v1h-35v4l-9-4.5 9-4.5z"/><g id="g4851" transform="translate(38)"><rect id="rect4845" width="89" height="33" fill="#efefe7" fill-rule="evenodd" rx="16.5" ry="16.5"/><text id="text4849" fill="#979797" font-family="Source Code Pro" font-size="12" font-weight="700" text-anchor="middle"><tspan id="tspan4847" x="44.5" y="21" fill="gray">C5</tspan></text></g></g><g id="g5043"><path id="Line-7" fill="#8f8981" d="m43 53v-32h1v32h4l-4.5 9-4.5-9z" transform="translate(1033.7,11)"/><g id="g5036"><rect id="Rectangle-2" width="106" height="36" fill="#f44d27" fill-rule="evenodd" transform="matrix(.83962 0 0 1 1032.7 11)"/><text id="master" fill="#979797" fill-rule="evenodd" font-family="Source Code Pro" font-size="12" font-weight="700" text-anchor="middle" transform="translate(1024.3 11.907)"><tspan id="tspan4856" x="53" y="20.909" fill="#f0f0f0">master</tspan></text></g></g><g id="Line-6-+-brown-4" fill="none" fill-rule="evenodd" transform="translate(357,73)"><path id="Line-6" fill="#8f8981" fill-rule="nonzero" d="m9 16h35v1h-35v4l-9-4.5 9-4.5z"/><g id="g4868" transform="translate(39)"><rect id="rect4862" width="89" height="33" fill="#efefe7" fill-rule="evenodd" rx="16.5" ry="16.5"/><text id="text4866" fill="#979797" font-family="Source Code Pro" font-size="12" font-weight="700" text-anchor="middle"><tspan id="tspan4864" x="44.5" y="21" fill="gray">C6</tspan></text></g></g><path id="path4871" fill="#8f8981" d="m9 16h35v1h-35v4l-9-4.5 9-4.5z" transform="translate(484.5,73)"/><rect id="rect4873" width="89" height="33" fill="#efefe7" fill-rule="evenodd" rx="16.5" ry="16.5" transform="translate(523,73)"/><text id="text4877" fill="#979797" fill-rule="evenodd" font-family="Source Code Pro" font-size="12" font-weight="700" text-anchor="middle" transform="translate(523.96 72.538)"><tspan id="tspan4875" x="44.5" y="21" fill="gray">C8&apos;</tspan></text><path id="Line-12" fill="#8f8981" d="m620 89h35v1h-35v4l-9-4.5 9-4.5z" transform="translate(.4)"/><g id="g4889" fill="none" fill-rule="evenodd" transform="translate(650,73)"><rect id="rect4883" width="89" height="33" fill="#efefe7" fill-rule="evenodd" rx="16.5" ry="16.5"/><text id="text4887" fill="#979797" font-family="Source Code Pro" font-size="12" font-weight="700" text-anchor="middle"><tspan id="tspan4885" x="44.5" y="21" fill="gray">C9&apos;</tspan></text></g><path id="path4891" fill="#8f8981" d="m9 16h35v1h-35v4l-9-4.5 9-4.5z" transform="translate(738.6,73)"/><g id="g4899" fill="none" fill-rule="evenodd" transform="translate(777,73)"><rect id="rect4893" width="89" height="33" fill="#efefe7" fill-rule="evenodd" rx="16.5" ry="16.5"/><text id="text4897" fill="#979797" font-family="Source Code Pro" font-size="12" font-weight="700" text-anchor="middle"><tspan id="tspan4895" x="44.5" y="21" fill="gray">C3&apos;</tspan></text></g><g id="Line-6-+-brown-8" fill="none" fill-rule="evenodd" transform="translate(866,73)"><path id="path4902" fill="#8f8981" fill-rule="nonzero" d="m9 16h35v1h-35v4l-9-4.5 9-4.5z"/><g id="g4910" transform="translate(39)"><rect id="rect4904" width="89" height="33" fill="#efefe7" fill-rule="evenodd" rx="16.5" ry="16.5"/><text id="text4908" fill="#979797" font-family="Source Code Pro" font-size="12" font-weight="700" text-anchor="middle"><tspan id="tspan4906" x="44.5" y="21" fill="gray">C4&apos;</tspan></text></g></g><path id="Line-9" fill="#8f8981" d="m1003 89h35v1h-35v4l-9-4.5 9-4.5z"/><g id="g4920" fill="none" fill-rule="evenodd" transform="translate(1033,73)"><rect id="rect4914" width="89" height="33" fill="#efefe7" fill-rule="evenodd" rx="16.5" ry="16.5"/><text id="text4918" fill="#979797" font-family="Source Code Pro" font-size="12" font-weight="700" text-anchor="middle"><tspan id="tspan4916" x="44.5" y="21" fill="gray">C10&apos;</tspan></text></g></g></svg>