<svg xmlns="http://www.w3.org/2000/svg" id="svg3877" version="1.1" viewBox="0 0 733.3 229"><metadata id="metadata3883"/><title id="title3760">images/interesting-rebase-3</title><desc id="desc3762">Created with Sketch.</desc><g id="g4083" transform="translate(-10,-7)"><g id="brown" fill="none" fill-rule="evenodd" transform="translate(14,73)"><rect id="Rectangle-1" width="89" height="33" fill="#efefe7" fill-rule="evenodd" rx="16.5" ry="16.5"/><text id="C6" fill="#979797" font-family="Source Code Pro" font-size="12" font-weight="700" text-anchor="middle"><tspan id="tspan3765" x="44.5" y="21" fill="gray">C1</tspan></text></g><g id="Line-+-brown-2" fill="none" fill-rule="evenodd" transform="translate(103,73)"><path id="Line" fill="#8f8981" fill-rule="nonzero" d="m9 15h35v1h-35v4l-9-4.5 9-4.5z"/><g id="g3776" transform="translate(38)"><rect id="rect3770" width="89" height="33" fill="#efefe7" fill-rule="evenodd" rx="16.5" ry="16.5"/><text id="text3774" fill="#979797" font-family="Source Code Pro" font-size="12" font-weight="700" text-anchor="middle"><tspan id="tspan3772" x="44.5" y="21" fill="gray">C2</tspan></text></g></g><g id="Line-2-+-brown-3" fill="none" fill-rule="evenodd" transform="translate(230,73)"><path id="Line-2" fill="#8f8981" fill-rule="nonzero" d="m9 17h35v1h-35v4l-9-4.5 9-4.5z"/><g id="g3786" transform="translate(38)"><rect id="rect3780" width="89" height="33" fill="#efefe7" fill-rule="evenodd" rx="16.5" ry="16.5"/><text id="text3784" fill="#979797" font-family="Source Code Pro" font-size="12" font-weight="700" text-anchor="middle"><tspan id="tspan3782" x="44.5" y="21" fill="gray">C5</tspan></text></g></g><g id="g4014"><path id="Line-7" fill="#8f8981" d="m43 53v-32h1v32h4l-4.5 9-4.5-9z" transform="translate(651.3,11)"/><g id="g4007"><rect id="Rectangle-2" width="106" height="36" fill="#f44d27" fill-rule="evenodd" transform="matrix(.83962 0 0 1 650.3 11)"/><text id="master" fill="#979797" fill-rule="evenodd" font-family="Source Code Pro" font-size="12" font-weight="700" text-anchor="middle" transform="translate(641.9 11.907)"><tspan id="tspan3791" x="53" y="20.909" fill="#f0f0f0">master</tspan></text></g></g><g id="Line-6-+-brown-4" fill="none" fill-rule="evenodd" transform="translate(357,73)"><path id="Line-6" fill="#8f8981" fill-rule="nonzero" d="m9 16h35v1h-35v4l-9-4.5 9-4.5z"/><g id="g3803" transform="translate(39)"><rect id="rect3797" width="89" height="33" fill="#efefe7" fill-rule="evenodd" rx="16.5" ry="16.5"/><text id="text3801" fill="#979797" font-family="Source Code Pro" font-size="12" font-weight="700" text-anchor="middle"><tspan id="tspan3799" x="44.5" y="21" fill="gray">C6</tspan></text></g></g><g id="Line-6-+-brown-5" fill="none" fill-rule="evenodd" transform="translate(484,73)"><path id="path3806" fill="#8f8981" fill-rule="nonzero" d="m9 16h35v1h-35v4l-9-4.5 9-4.5z"/><g id="g3814" transform="translate(39)"><rect id="rect3808" width="89" height="33" fill="#efefe7" fill-rule="evenodd" rx="16.5" ry="16.5"/><text id="text3812" fill="#979797" font-family="Source Code Pro" font-size="12" font-weight="700" text-anchor="middle"><tspan id="tspan3810" x="44.5" y="21" fill="gray">C8&apos;</tspan></text></g></g><path id="Line-12" fill="#8f8981" d="m620 89h35v1h-35v4l-9-4.5 9-4.5z" transform="translate(.7)"/><g id="g3824" fill="none" fill-rule="evenodd" transform="translate(650,73)"><rect id="rect3818" width="89" height="33" fill="#efefe7" fill-rule="evenodd" rx="16.5" ry="16.5"/><text id="text3822" fill="#979797" font-family="Source Code Pro" font-size="12" font-weight="700" text-anchor="middle"><tspan id="tspan3820" x="44.5" y="21" fill="gray">C9&apos;</tspan></text></g><path id="Line-8" fill="#8f8981" d="m232.15 107.81 44.054 39.648-.66896.7433-44.054-39.648-2.6759 2.9732-3.6793-9.3655 9.7 2.6759z"/><g id="g3833" fill="none" fill-rule="evenodd" transform="translate(268,137)"><rect id="rect3827" width="89" height="33" fill="#efefe7" fill-rule="evenodd" rx="16.5" ry="16.5"/><text id="text3831" fill="#979797" font-family="Source Code Pro" font-size="12" font-weight="700" text-anchor="middle"><tspan id="tspan3829" x="44.5" y="21" fill="gray">C3</tspan></text></g><g id="Line-6-+-brown-6" fill="none" fill-rule="evenodd" transform="translate(357,137)"><path id="path3835" fill="#8f8981" fill-rule="nonzero" d="m9 16h35v1h-35v4l-9-4.5 9-4.5z"/><g id="g3843" transform="translate(39)"><rect id="rect3837" width="89" height="33" fill="#efefe7" fill-rule="evenodd" rx="16.5" ry="16.5"/><text id="text3841" fill="#979797" font-family="Source Code Pro" font-size="12" font-weight="700" text-anchor="middle"><tspan id="tspan3839" x="44.5" y="21" fill="gray">C4</tspan></text></g></g><path id="Line-11" fill="#8f8981" d="m493 153h35v1h-35v4l-9-4.5 9-4.5z" transform="translate(.6)"/><g id="g3853" fill="none" fill-rule="evenodd" transform="translate(523,137)"><rect id="rect3847" width="89" height="33" fill="#efefe7" fill-rule="evenodd" rx="16.5" ry="16.5"/><text id="text3851" fill="#979797" font-family="Source Code Pro" font-size="12" font-weight="700" text-anchor="middle"><tspan id="tspan3849" x="44.5" y="21" fill="gray">C10</tspan></text></g><g id="g3974"><path id="Line-4" fill="#8f8981" d="m44 9v35h-1v-35h-4l4.5-9 4.5 9z" transform="translate(524,170)"/><g id="g3967"><rect id="rect3856" width="106" height="33" fill="#f44d27" fill-rule="evenodd" transform="matrix(.83962 0 0 1 523 199)"/><text id="text3860" fill="#979797" fill-rule="evenodd" font-family="Source Code Pro" font-size="12" font-weight="700" text-anchor="middle" transform="translate(514.49 198.48)"><tspan id="tspan3858" x="53" y="20" fill="#f0f0f0">server</tspan></text></g></g><g id="g3994"><path id="path3865" fill="#8f8981" d="m44 9v35h-1v-35h-4l4.5-9 4.5 9z" transform="translate(651.3,106)"/><g id="g3987"><rect id="rect3867" width="106" height="33" fill="#f44d27" fill-rule="evenodd" transform="matrix(.83962 0 0 1 650.3 135)"/><text id="text3871" fill="#979797" fill-rule="evenodd" font-family="Source Code Pro" font-size="12" font-weight="700" text-anchor="middle" transform="translate(641.7 135.96)"><tspan id="tspan3869" x="53" y="20" fill="#f0f0f0">client</tspan></text></g></g></g></svg>