<svg xmlns="http://www.w3.org/2000/svg" id="svg4401" version="1.1" viewBox="0 0 1116 167"><metadata id="metadata4407"/><title id="title4251">images/interesting-rebase-4</title><desc id="desc4253">Created with Sketch.</desc><g id="g4653" transform="translate(-10,-7)"><g id="brown" fill="none" fill-rule="evenodd" transform="translate(14,73)"><rect id="Rectangle-1" width="89" height="33" fill="#efefe7" fill-rule="evenodd" rx="16.5" ry="16.5"/><text id="C6" fill="#979797" font-family="Source Code Pro" font-size="12" font-weight="700" text-anchor="middle"><tspan id="tspan4256" x="44.5" y="21" fill="gray">C1</tspan></text></g><g id="Line-+-brown-2" fill="none" fill-rule="evenodd" transform="translate(103,73)"><path id="Line" fill="#8f8981" fill-rule="nonzero" d="m9 15h35v1h-35v4l-9-4.5 9-4.5z"/><g id="g4267" transform="translate(38)"><rect id="rect4261" width="89" height="33" fill="#efefe7" fill-rule="evenodd" rx="16.5" ry="16.5"/><text id="text4265" fill="#979797" font-family="Source Code Pro" font-size="12" font-weight="700" text-anchor="middle"><tspan id="tspan4263" x="44.5" y="21" fill="gray">C2</tspan></text></g></g><g id="Line-2-+-brown-3" fill="none" fill-rule="evenodd" transform="translate(230,73)"><path id="Line-2" fill="#8f8981" fill-rule="nonzero" d="m9 17h35v1h-35v4l-9-4.5 9-4.5z"/><g id="g4277" transform="translate(38)"><rect id="rect4271" width="89" height="33" fill="#efefe7" fill-rule="evenodd" rx="16.5" ry="16.5"/><text id="text4275" fill="#979797" font-family="Source Code Pro" font-size="12" font-weight="700" text-anchor="middle"><tspan id="tspan4273" x="44.5" y="21" fill="gray">C5</tspan></text></g></g><g id="g4514"><path id="Line-7" fill="#8f8981" d="m43 53v-32h1v32h4l-4.5 9-4.5-9z" transform="translate(650.8,11)"/><g id="g4507"><rect id="Rectangle-2" width="106" height="36" fill="#f44d27" fill-rule="evenodd" transform="matrix(.83962 0 0 1 649.8 11)"/><text id="master" fill="#979797" fill-rule="evenodd" font-family="Source Code Pro" font-size="12" font-weight="700" text-anchor="middle" transform="translate(641.4 11.907)"><tspan id="tspan4282" x="53" y="20.909" fill="#f0f0f0">master</tspan></text></g></g><g id="Line-6-+-brown-4" fill="none" fill-rule="evenodd" transform="translate(357,73)"><path id="Line-6" fill="#8f8981" fill-rule="nonzero" d="m9 16h35v1h-35v4l-9-4.5 9-4.5z"/><g id="g4294" transform="translate(39)"><rect id="rect4288" width="89" height="33" fill="#efefe7" fill-rule="evenodd" rx="16.5" ry="16.5"/><text id="text4292" fill="#979797" font-family="Source Code Pro" font-size="12" font-weight="700" text-anchor="middle"><tspan id="tspan4290" x="44.5" y="21" fill="gray">C6</tspan></text></g></g><path id="path4297" fill="#8f8981" d="m9 16h35v1h-35v4l-9-4.5 9-4.5z" transform="translate(484.6,73)"/><g id="g4305" fill="none" fill-rule="evenodd" transform="translate(523,73)"><rect id="rect4299" width="89" height="33" fill="#efefe7" fill-rule="evenodd" rx="16.5" ry="16.5"/><text id="text4303" fill="#979797" font-family="Source Code Pro" font-size="12" font-weight="700" text-anchor="middle"><tspan id="tspan4301" x="44.5" y="21" fill="gray">C8&apos;</tspan></text></g><path id="Line-12" fill="#8f8981" d="m620 89h35v1h-35v4l-9-4.5 9-4.5z" transform="translate(.7)"/><g id="g4315" fill="none" fill-rule="evenodd" transform="translate(650,73)"><rect id="rect4309" width="89" height="33" fill="#efefe7" fill-rule="evenodd" rx="16.5" ry="16.5"/><text id="text4313" fill="#979797" font-family="Source Code Pro" font-size="12" font-weight="700" text-anchor="middle"><tspan id="tspan4311" x="44.5" y="21" fill="gray">C9&apos;</tspan></text></g><path id="path4317" fill="#8f8981" d="m9 16h35v1h-35v4l-9-4.5 9-4.5z" transform="translate(738.7,73)"/><g id="g4325" fill="none" fill-rule="evenodd" transform="translate(777.2,73)"><rect id="rect4319" width="89" height="33" fill="#efefe7" fill-rule="evenodd" rx="16.5" ry="16.5"/><text id="text4323" fill="#979797" font-family="Source Code Pro" font-size="12" font-weight="700" text-anchor="middle"><tspan id="tspan4321" x="44.5" y="21" fill="gray">C3&apos;</tspan></text></g><g id="Line-6-+-brown-8" fill="none" fill-rule="evenodd" transform="translate(866,73)"><path id="path4328" fill="#8f8981" fill-rule="nonzero" d="m9 16h35v1h-35v4l-9-4.5 9-4.5z"/><g id="g4336" transform="translate(39)"><rect id="rect4330" width="89" height="33" fill="#efefe7" fill-rule="evenodd" rx="16.5" ry="16.5"/><text id="text4334" fill="#979797" font-family="Source Code Pro" font-size="12" font-weight="700" text-anchor="middle"><tspan id="tspan4332" x="44.5" y="21" fill="gray">C4&apos;</tspan></text></g></g><path id="path4339" fill="#8f8981" d="m1003 89h35v1h-35v4l-9-4.5 9-4.5z"/><g id="g4347" fill="none" fill-rule="evenodd" transform="translate(1033,73)"><rect id="rect4341" width="89" height="33" fill="#efefe7" fill-rule="evenodd" rx="16.5" ry="16.5"/><text id="text4345" fill="#979797" font-family="Source Code Pro" font-size="12" font-weight="700" text-anchor="middle"><tspan id="tspan4343" x="44.5" y="21" fill="gray">C10&apos;</tspan></text></g><g id="Group" fill="none" fill-rule="evenodd" opacity=".5" transform="translate(225,102)"><path id="Line-8" fill="#8f8981" fill-rule="nonzero" d="m7.1525 5.8146 44.054 39.648-.66896.74329-44.054-39.648-2.6759 2.9732-3.6793-9.3655 9.7 2.6759z"/><g id="g4356" transform="translate(43,35)"><rect id="rect4350" width="89" height="33" fill="#efefe7" fill-rule="evenodd" rx="16.5" ry="16.5"/><text id="text4354" fill="#979797" font-family="Source Code Pro" font-size="12" font-weight="700" text-anchor="middle"><tspan id="tspan4352" x="44.5" y="21" fill="gray">C3</tspan></text></g><g id="Line-6-+-brown-6" transform="translate(132,35)"><path id="path4358" fill="#8f8981" fill-rule="nonzero" d="m9 16h35v1h-35v4l-9-4.5 9-4.5z"/><g id="g4366" transform="translate(39)"><rect id="rect4360" width="89" height="33" fill="#efefe7" fill-rule="evenodd" rx="16.5" ry="16.5"/><text id="text4364" fill="#979797" font-family="Source Code Pro" font-size="12" font-weight="700" text-anchor="middle"><tspan id="tspan4362" x="44.5" y="21" fill="gray">C4</tspan></text></g></g><path id="Line-11" fill="#8f8981" fill-rule="nonzero" d="m268 51h35v1h-35v4l-9-4.5 9-4.5z"/><g id="g4376" transform="translate(298,35)"><rect id="rect4370" width="89" height="33" fill="#efefe7" fill-rule="evenodd" rx="16.5" ry="16.5"/><text id="text4374" fill="#979797" font-family="Source Code Pro" font-size="12" font-weight="700" text-anchor="middle"><tspan id="tspan4372" x="44.5" y="21" fill="gray">C10</tspan></text></g></g><g id="g4568"><path id="Line-4" fill="#8f8981" d="m44 9v35h-1v-35h-4l4.5-9 4.5 9z" transform="translate(1033.8,106)"/><g id="g4561"><rect id="rect4380" width="106" height="33" fill="#f44d27" fill-rule="evenodd" transform="matrix(.83962 0 0 1 1032.8 135)"/><text id="text4384" fill="#979797" fill-rule="evenodd" font-family="Source Code Pro" font-size="12" font-weight="700" text-anchor="middle" transform="translate(1024.3 134.48)"><tspan id="tspan4382" x="53" y="20" fill="#f0f0f0">server</tspan></text></g></g><g id="g4539"><path id="path4389" fill="#8f8981" d="m44 9v35h-1v-35h-4l4.5-9 4.5 9z" transform="translate(650.8,106)"/><g id="g4532"><rect id="rect4391" width="106" height="33" fill="#f44d27" fill-rule="evenodd" transform="matrix(.83962 0 0 1 649.8 135)"/><text id="text4395" fill="#979797" fill-rule="evenodd" font-family="Source Code Pro" font-size="12" font-weight="700" text-anchor="middle" transform="translate(641.2 135.96)"><tspan id="tspan4393" x="53" y="20" fill="#f0f0f0">client</tspan></text></g></g></g></svg>