<svg xmlns="http://www.w3.org/2000/svg" id="svg37952" version="1.1" viewBox="0 0 392.79 130"><metadata id="metadata37958"/><title id="title37866">images/integration-manager</title><desc id="desc37868">Created with Sketch.</desc><g id="05---Workflows" fill="none" fill-rule="evenodd" transform="translate(-3,-1)"><g id="Group"><g id="g38145"><g id="symref-(2-line)" transform="translate(149.21 5)"><rect id="rect37884" width="110.58" height="38" fill="#00909a" fill-rule="evenodd"/><text id="text37890" fill="#979797" font-family="Source Code Pro" font-size="12" font-weight="700" text-anchor="middle"><tspan id="tspan37886" x="55.29" y="15" fill="#f0f0f0">developer</tspan> <tspan id="tspan37888" x="55.29" y="28" fill="#f0f0f0">public</tspan></text></g><g id="other-(2-line)" stroke="#979797" transform="translate(149,89)"><rect id="rect37893" width="109.58" height="37" x=".5" y=".5" fill="#efefe7" fill-rule="evenodd"/><text id="master-4" fill="#979797" stroke="none" font-family="Source Code Pro" font-size="12" font-weight="700" text-anchor="middle"><tspan id="tspan37895" x="54.79" y="16.031" fill="gray">developer</tspan> <tspan id="tspan37897" x="54.79" y="30.031" fill="gray">private</tspan></text></g><rect id="rect37911" width="109.58" height="37" x=".5" y=".5" fill="#efefe7" fill-rule="evenodd" stroke="#979797" transform="translate(149,89)"/><path id="Line-4" fill="#8f8981" fill-rule="nonzero" d="m57 47v37h-1v-37h-4l4.5-9 4.5 9z" transform="translate(149,5)"/><path id="Line-7" fill="#8f8981" fill-rule="nonzero" d="m63.42 52v37h-1v-37h-4l4.5-9 4.5 9z" transform="matrix(1 0 0 1.0287 -.62984 -1.2326)"/><path id="Line-8" fill="#8f8981" fill-rule="nonzero" d="m105.96 82.948 52.639-40.148.60645.79512-52.639 40.148 2.4258 3.1805-9.8851 1.88 4.4271-9.0361z" opacity=".5"/><path id="Line-10" fill="#8f8981" fill-rule="nonzero" d="m158.48 83.685-51.679-40.096.613-.79008 51.679 40.096 2.452-3.1603 4.3523 9.0724-9.8692-1.9616z" opacity=".5"/><path id="Line-11" fill="#8f8981" fill-rule="nonzero" d="m272.2 86.579-155.33-45.74.28249-.95927 155.33 45.74 1.1299-3.8371 7.3623 6.8591-9.9046 1.7744z" opacity=".5"/><path id="Line-9" fill="#8f8981" fill-rule="nonzero" d="m126.62 86.932 174.24-44.04.24504.96951-174.24 44.04.98016 3.8781-9.8283-2.1574 7.6229-6.5682z" opacity=".5"/><rect id="rect37938" width="109.58" height="37" x=".5" y=".5" fill="#efefe7" fill-rule="evenodd" stroke="#979797" transform="translate(281,89)"/><path id="Line-5" fill="#8f8981" fill-rule="nonzero" d="m55.21 47v37h-1v-37h-4l4.5-9 4.5 9z" transform="translate(281,5)"/><g id="g37996"><rect id="Rectangle-4" width="110.58" height="38" fill="#cd9f00" fill-rule="evenodd" transform="translate(7,5)"/><text id="text37984" x="124.398" y="-47.362" fill="#f0f0f0" font-family="Source Code Pro" font-size="12" font-weight="bold" letter-spacing="0" text-anchor="middle" transform="translate(-62.632 67.404)" word-spacing="0" xml:space="preserve" style="font-feature-settings:normal;font-variant-caps:normal;font-variant-ligatures:normal;font-variant-numeric:normal;line-height:14px;text-align:center"><tspan id="tspan37982" x="124.398" y="-47.362">blessed</tspan><tspan id="tspan37986" x="124.398" y="-33.362">repository</tspan></text></g><g id="g38012"><rect id="Rectangle-2" width="110.58" height="38" fill="#f44d27" fill-rule="evenodd" transform="translate(7,89)"/><text id="text38000" x="136.576" y="-39.533" fill="#f0f0f0" font-family="Source Code Pro" font-size="12" font-weight="bold" letter-spacing="0" text-anchor="middle" transform="translate(-74.403 143.8)" word-spacing="0" xml:space="preserve" style="font-feature-settings:normal;font-variant-caps:normal;font-variant-ligatures:normal;font-variant-numeric:normal;line-height:14px;text-align:center"><tspan id="tspan37998" x="136.576" y="-39.533">integration</tspan><tspan id="tspan38002" x="136.576" y="-25.533">manager</tspan></text></g><g id="g38063"><rect id="rect37928" width="110.58" height="38" fill="#00909a" fill-rule="evenodd" transform="translate(281.21 5)"/><text id="text38020" x="180.652" y="-35.473" fill="#f0f0f0" font-family="Source Code Pro" font-size="12" font-weight="bold" letter-spacing="0" text-anchor="middle" transform="translate(155.88 55.575)" word-spacing="0" xml:space="preserve" style="font-feature-settings:normal;font-variant-caps:normal;font-variant-ligatures:normal;font-variant-numeric:normal;line-height:14px;text-align:center"><tspan id="tspan38018" x="180.652" y="-35.473">developer</tspan><tspan id="tspan38022" x="180.652" y="-21.473">public</tspan></text></g><g id="g38069"><rect id="rect37901" width="110.58" height="38" fill="#00909a" fill-rule="evenodd" transform="translate(149.21 5)"/><text id="text38020-2" x="180.652" y="-35.473" fill="#f0f0f0" font-family="Source Code Pro" font-size="12" font-weight="bold" letter-spacing="0" text-anchor="middle" transform="translate(23.876 55.575)" word-spacing="0" xml:space="preserve" style="font-feature-settings:normal;font-variant-caps:normal;font-variant-ligatures:normal;font-variant-numeric:normal;line-height:14px;text-align:center"><tspan id="tspan38018-8" x="180.652" y="-35.473">developer</tspan><tspan id="tspan38022-4" x="180.652" y="-21.473">public</tspan></text></g><text id="text38020-0" x="180.652" y="-35.473" fill="gray" font-family="Source Code Pro" font-size="12" font-weight="bold" letter-spacing="0" text-anchor="middle" transform="translate(155.67 139.58)" word-spacing="0" xml:space="preserve" style="font-feature-settings:normal;font-variant-caps:normal;font-variant-ligatures:normal;font-variant-numeric:normal;line-height:14px;text-align:center"><tspan id="tspan38018-3" x="180.652" y="-35.473">developer</tspan><tspan id="tspan38022-6" x="180.652" y="-21.473">private</tspan></text><text id="text38020-0-8" x="180.652" y="-35.473" fill="gray" font-family="Source Code Pro" font-size="12" font-weight="bold" letter-spacing="0" text-anchor="middle" transform="translate(23.666 139.58)" word-spacing="0" xml:space="preserve" style="font-feature-settings:normal;font-variant-caps:normal;font-variant-ligatures:normal;font-variant-numeric:normal;line-height:14px;text-align:center"><tspan id="tspan38018-3-5" x="180.652" y="-35.473">developer</tspan><tspan id="tspan38022-6-9" x="180.652" y="-21.473">private</tspan></text></g></g></g></svg>