<svg xmlns="http://www.w3.org/2000/svg" id="svg3257" version="1.1" viewBox="0 0 733 285"><metadata id="metadata3263"/><title id="title3120">images/interesting-rebase-2</title><desc id="desc3122">Created with Sketch.</desc><g id="g3535" transform="translate(-10,-7)"><g id="brown" fill="none" fill-rule="evenodd" transform="translate(14,73)"><rect id="Rectangle-1" width="89" height="33" fill="#efefe7" fill-rule="evenodd" rx="16.5" ry="16.5"/><text id="C6" fill="#979797" font-family="Source Code Pro" font-size="12" font-weight="700" text-anchor="middle"><tspan id="tspan3125" x="44.5" y="21" fill="gray">C1</tspan></text></g><g id="Line-+-brown-2" fill="none" fill-rule="evenodd" transform="translate(103,73)"><path id="Line" fill="#8f8981" fill-rule="nonzero" d="m9 15h35v1h-35v4l-9-4.5 9-4.5z"/><g id="g3136" transform="translate(38)"><rect id="rect3130" width="89" height="33" fill="#efefe7" fill-rule="evenodd" rx="16.5" ry="16.5"/><text id="text3134" fill="#979797" font-family="Source Code Pro" font-size="12" font-weight="700" text-anchor="middle"><tspan id="tspan3132" x="44.5" y="21" fill="gray">C2</tspan></text></g></g><g id="Line-2-+-brown-3" fill="none" fill-rule="evenodd" transform="translate(230,73)"><path id="Line-2" fill="#8f8981" fill-rule="nonzero" d="m9 17h35v1h-35v4l-9-4.5 9-4.5z"/><g id="g3146" transform="translate(38)"><rect id="rect3140" width="89" height="33" fill="#efefe7" fill-rule="evenodd" rx="16.5" ry="16.5"/><text id="text3144" fill="#979797" font-family="Source Code Pro" font-size="12" font-weight="700" text-anchor="middle"><tspan id="tspan3142" x="44.5" y="21" fill="gray">C5</tspan></text></g></g><g id="g3370"><path id="Line-7" fill="#8f8981" d="m43 53v-32h1v32h4l-4.5 9-4.5-9z" transform="translate(397.1,11)"/><g id="g3363"><rect id="Rectangle-2" width="106" height="36" fill="#f44d27" fill-rule="evenodd" transform="matrix(.83962 0 0 1 396.1 11)"/><text id="master" fill="#979797" fill-rule="evenodd" font-family="Source Code Pro" font-size="12" font-weight="700" text-anchor="middle" transform="translate(387.7 11.907)"><tspan id="tspan3151" x="53" y="20.909" fill="#f0f0f0">master</tspan></text></g></g><g id="Line-6-+-brown-4" fill="none" fill-rule="evenodd" transform="translate(357,73)"><path id="Line-6" fill="#8f8981" fill-rule="nonzero" d="m9 16h35v1h-35v4l-9-4.5 9-4.5z"/><g id="g3163" transform="translate(39)"><rect id="rect3157" width="89" height="33" fill="#efefe7" fill-rule="evenodd" rx="16.5" ry="16.5"/><text id="text3161" fill="#979797" font-family="Source Code Pro" font-size="12" font-weight="700" text-anchor="middle"><tspan id="tspan3159" x="44.5" y="21" fill="gray">C6</tspan></text></g></g><g id="g3428"><path id="path3166" fill="#8f8981" d="m9 16h35v1h-35v4l-9-4.5 9-4.5z" transform="translate(485,73)"/><g id="g3174" fill="none" fill-rule="evenodd" transform="translate(523,73)"><rect id="rect3168" width="89" height="33" fill="#efefe7" fill-rule="evenodd" rx="16.5" ry="16.5"/><text id="text3172" fill="#979797" font-family="Source Code Pro" font-size="12" font-weight="700" text-anchor="middle"><tspan id="tspan3170" x="44.5" y="21" fill="gray">C8&apos;</tspan></text></g></g><g id="g3421"><path id="path3177" fill="#8f8981" d="m620 89h35v1h-35v4l-9-4.5 9-4.5z" transform="translate(.7)"/><g id="g3185" fill="none" fill-rule="evenodd" transform="translate(650,73)"><rect id="rect3179" width="89" height="33" fill="#efefe7" fill-rule="evenodd" rx="16.5" ry="16.5"/><text id="text3183" fill="#979797" font-family="Source Code Pro" font-size="12" font-weight="700" text-anchor="middle"><tspan id="tspan3181" x="44.5" y="21" fill="gray">C9&apos;</tspan></text></g></g><g id="g3452"><path id="Line-8" fill="#8f8981" d="m232.15 107.81 44.054 39.648-.66896.7433-44.054-39.648-2.6759 2.9732-3.6793-9.3655 9.7 2.6759z"/><g id="g3194" fill="none" fill-rule="evenodd" transform="translate(268,137)"><rect id="rect3188" width="89" height="33" fill="#efefe7" fill-rule="evenodd" rx="16.5" ry="16.5"/><text id="text3192" fill="#979797" font-family="Source Code Pro" font-size="12" font-weight="700" text-anchor="middle"><tspan id="tspan3190" x="44.5" y="21" fill="gray">C3</tspan></text></g></g><g id="Line-6-+-brown-6" fill="none" fill-rule="evenodd" transform="translate(357,137)"><path id="path3196" fill="#8f8981" fill-rule="nonzero" d="m9 16h35v1h-35v4l-9-4.5 9-4.5z"/><g id="g3204" transform="translate(39)"><rect id="rect3198" width="89" height="33" fill="#efefe7" fill-rule="evenodd" rx="16.5" ry="16.5"/><text id="text3202" fill="#979797" font-family="Source Code Pro" font-size="12" font-weight="700" text-anchor="middle"><tspan id="tspan3200" x="44.5" y="21" fill="gray">C4</tspan></text></g></g><g id="Group" fill="none" fill-rule="evenodd" opacity=".5" transform="translate(349,168)"><path id="Line-9" fill="#8f8981" fill-rule="nonzero" d="m5.4422 7.4336 54.747 87.224-.84698.53162-54.747-87.224-3.3879 2.1265-.97313-10.015 8.596 5.2306z"/><g id="g3214" transform="translate(47,87)"><rect id="rect3208" width="89" height="33" fill="#efefe7" fill-rule="evenodd" rx="16.5" ry="16.5"/><text id="text3212" fill="#979797" font-family="Source Code Pro" font-size="12" font-weight="700" text-anchor="middle"><tspan id="tspan3210" x="44.5" y="21" fill="gray">C8</tspan></text></g><path id="Line-10" fill="#8f8981" fill-rule="nonzero" d="m144 103h35v1h-35v4l-9-4.5 9-4.5z" transform="translate(1.1)"/><g id="g3223" transform="translate(174,87)"><rect id="rect3217" width="89" height="33" fill="#efefe7" fill-rule="evenodd" rx="16.5" ry="16.5"/><text id="text3221" fill="#979797" font-family="Source Code Pro" font-size="12" font-weight="700" text-anchor="middle"><tspan id="tspan3219" x="44.5" y="21" fill="gray">C9</tspan></text></g></g><g id="g3435"><path id="Line-11" fill="#8f8981" d="m493 153h35v1h-35v4l-9-4.5 9-4.5z" transform="translate(1)"/><g id="g3233" fill="none" fill-rule="evenodd" transform="translate(523,137)"><rect id="rect3227" width="89" height="33" fill="#efefe7" fill-rule="evenodd" rx="16.5" ry="16.5"/><text id="text3231" fill="#979797" font-family="Source Code Pro" font-size="12" font-weight="700" text-anchor="middle"><tspan id="tspan3229" x="44.5" y="21" fill="gray">C10</tspan></text></g></g><g id="g3392"><path id="Line-4" fill="#8f8981" d="m44 9v35h-1v-35h-4l4.5-9 4.5 9z" transform="translate(524,170)"/><g id="g3385"><rect id="rect3236" width="106" height="33" fill="#f44d27" fill-rule="evenodd" transform="matrix(.83962 0 0 1 523 199)"/><text id="text3240" fill="#979797" fill-rule="evenodd" font-family="Source Code Pro" font-size="12" font-weight="700" text-anchor="middle" transform="translate(514.49 198.48)"><tspan id="tspan3238" x="53" y="20" fill="#f0f0f0">server</tspan></text></g></g><g id="g3414"><path id="path3245" fill="#8f8981" d="m44 9v35h-1v-35h-4l4.5-9 4.5 9z" transform="translate(650.9,106)"/><g id="g3407"><rect id="rect3247" width="106" height="33" fill="#f44d27" fill-rule="evenodd" transform="matrix(.83962 0 0 1 649.9 135)"/><text id="text3251" fill="#979797" fill-rule="evenodd" font-family="Source Code Pro" font-size="12" font-weight="700" text-anchor="middle" transform="translate(641.3 135.96)"><tspan id="tspan3249" x="53" y="20" fill="#f0f0f0">client</tspan></text></g></g></g></svg>