<svg xmlns="http://www.w3.org/2000/svg" id="svg7076" version="1.1" viewBox="0 0 516 227"><metadata id="metadata7080"/><title id="title7020">images/lifecycle</title><desc id="desc7022">Created with Sketch.</desc><g id="layer1"><g id="02---lifecycle" fill="none" fill-rule="evenodd"><path id="Line-6" fill="#8f8981" stroke="#8f8981" stroke-linecap="square" d="m43.5 17.469v195.88" transform="translate(10.5)"/><path id="Line-3" fill="#8f8981" stroke="#8f8981" stroke-linecap="square" d="m323.5 17.469v195.88" transform="translate(1.9)"/><path id="Line-2" fill="#8f8981" stroke="#8f8981" stroke-linecap="square" d="m183.5 17.469v195.88" transform="translate(6.2)"/><path id="Line-7" fill="#8f8981" stroke="#8f8981" stroke-linecap="square" d="m463.5 16.937v195.88" transform="translate(-2.4841)"/><g id="goldref" transform="translate(281)"><rect id="Rectangle-3" width="108" height="33" fill="#cd9f00" fill-rule="evenodd" transform="matrix(.99844 0 0 1 -9.6 0)"/><text id="master-2" fill="#979797" font-family="Source Code Pro" font-size="12" font-weight="700" text-anchor="middle" transform="translate(-9.6023)"><tspan id="tspan7032" x="54" y="20" fill="#f0f0f0">Modified</tspan></text></g><path id="Line-4" fill="#8f8981" fill-rule="nonzero" d="m261 116.32h-71.316v-21.682l71.316-.0349v-6.4182l64.395 17.311-64.395 17.305z"/><path id="Line-9" fill="#8f8981" fill-rule="nonzero" d="m397.91 76.738h-343.93v-21.717h343.93v-6.4121l63.071 17.271-63.071 17.33z"/><path id="Line-10" fill="#8f8981" fill-rule="nonzero" d="m110.43 142.72h72.744v21.67l-72.744-1e-5v6.449l-62.956-17.3 62.956-17.32z" transform="translate(6.5119)"/><path id="Line-5" fill="#8f8981" fill-rule="nonzero" d="m399.93 151.83h-72.52v-21.717h72.52v-6.4368l63.071 17.325-63.071 17.322z" transform="translate(-2.0144 -12.314)"/><path id="Line-8" fill="#8f8981" fill-rule="nonzero" d="m252.46 174.61h208.52v21.636l-208.52-.0262v6.5437l-62.777-17.317 62.777-17.307z"/><text id="Edit-the-file" fill="#fff" font-family="Source Code Pro" font-size="12" font-weight="700" transform="translate(2 -7.2452)"><tspan id="tspan7041" x="195.59" y="116">Edit the file</tspan></text><text id="Add-the-file" fill="#fff" font-family="Source Code Pro" font-size="12" font-weight="700" transform="translate(9 .19847)"><tspan id="tspan7044" x="57.391" y="70.17">Add the file</tspan></text><text id="Remove-the-file" fill="#fff" font-family="Source Code Pro" font-size="12" font-weight="700" transform="translate(1.5325 .45528)"><tspan id="tspan7047" x="76.989" y="157.031">Remove the file</tspan></text><text id="Stage-the-file" fill="#fff" font-family="Source Code Pro" font-size="12" font-weight="700" transform="translate(-.8512 -13.221)"><tspan id="tspan7050" x="331.79" y="145.17">Stage the file</tspan></text><g id="other"><rect id="Rectangle-2" width="86" height="33" fill="#efefe7" fill-rule="evenodd" transform="scale(1.2558 1)"/><text id="master" fill="#979797" font-family="Source Code Pro" font-size="12" font-weight="700" text-anchor="middle" transform="translate(11.045)"><tspan id="tspan7054" x="43" y="21" fill="gray">Untracked</tspan></text></g><g id="symref" transform="translate(140)"><rect id="rect7058" width="86" height="33" fill="#00909a" fill-rule="evenodd" transform="matrix(1.2566 0 0 1 -4.3944 0)"/><text id="text7062" fill="#979797" font-family="Source Code Pro" font-size="12" font-weight="700" text-anchor="middle" transform="translate(6.6865)"><tspan id="tspan7060" x="43" y="20" fill="#f0f0f0">Unmodified</tspan></text></g><text id="Commit" fill="#fff" font-family="Source Code Pro" font-size="12" font-weight="700" transform="translate(-14.974 -.090725)"><tspan id="tspan7065" x="318.697" y="190">Commit</tspan></text><g id="ref" transform="translate(409)"><rect id="rect7068" width="106" height="33" fill="#f44d27" fill-rule="evenodd" transform="matrix(1.0184 0 0 1 -1.9532 0)"/><text id="text7072" fill="#979797" font-family="Source Code Pro" font-size="12" font-weight="700" text-anchor="middle" transform="translate(-.84695)"><tspan id="tspan7070" x="53" y="20" fill="#f0f0f0">Staged</tspan></text></g></g></g></svg>