<svg xmlns="http://www.w3.org/2000/svg" id="svg7334" version="1.1" viewBox="0 0 805.2 111"><metadata id="metadata7340"/><title id="title7239">images/lr-branches-1</title><desc id="desc7241">Created with Sketch.</desc><g id="g7506" transform="translate(6.2,4)"><g id="brown" fill="none" fill-rule="evenodd" transform="translate(-2,70)"><rect id="Rectangle-1" width="89" height="33" fill="#efefe7" fill-rule="evenodd" rx="16.5" ry="16.5"/><text id="C6" fill="#979797" font-family="Source Code Pro" font-size="12" font-weight="700" text-anchor="middle"><tspan id="tspan7244" x="44.5" y="21" fill="gray">C1</tspan></text></g><path id="Line" fill="#8f8981" d="m96 86h26v1h-26v4l-9-4.5 9-4.5z"/><g id="g7255" fill="none" fill-rule="evenodd" transform="translate(116,70)"><rect id="rect7249" width="89" height="33" fill="#efefe7" fill-rule="evenodd" rx="16.5" ry="16.5"/><text id="text7253" fill="#979797" font-family="Source Code Pro" font-size="12" font-weight="700" text-anchor="middle"><tspan id="tspan7251" x="44.5" y="21" fill="gray">C2</tspan></text></g><path id="path7257" fill="#8f8981" d="m214 86h26v1h-26v4l-9-4.5 9-4.5z"/><g id="g7265" fill="none" fill-rule="evenodd" transform="translate(234,70)"><rect id="rect7259" width="89" height="33" fill="#efefe7" fill-rule="evenodd" rx="16.5" ry="16.5"/><text id="text7263" fill="#979797" font-family="Source Code Pro" font-size="12" font-weight="700" text-anchor="middle"><tspan id="tspan7261" x="44.5" y="21" fill="gray">C3</tspan></text></g><path id="path7267" fill="#8f8981" d="m332 86h26v1h-26v4l-9-4.5 9-4.5z"/><g id="g7275" fill="none" fill-rule="evenodd" transform="translate(352,70)"><rect id="rect7269" width="89" height="33" fill="#efefe7" fill-rule="evenodd" rx="16.5" ry="16.5"/><text id="text7273" fill="#979797" font-family="Source Code Pro" font-size="12" font-weight="700" text-anchor="middle"><tspan id="tspan7271" x="44.5" y="21" fill="gray">C4</tspan></text></g><path id="path7277" fill="#8f8981" d="m450 86h26v1h-26v4l-9-4.5 9-4.5z"/><g id="g7285" fill="none" fill-rule="evenodd" transform="translate(470,70)"><rect id="rect7279" width="89" height="33" fill="#efefe7" fill-rule="evenodd" rx="16.5" ry="16.5"/><text id="text7283" fill="#979797" font-family="Source Code Pro" font-size="12" font-weight="700" text-anchor="middle"><tspan id="tspan7281" x="44.5" y="21" fill="gray">C5</tspan></text></g><path id="path7287" fill="#8f8981" d="m568 86h26v1h-26v4l-9-4.5 9-4.5z"/><g id="g7295" fill="none" fill-rule="evenodd" transform="translate(588,70)"><rect id="rect7289" width="89" height="33" fill="#efefe7" fill-rule="evenodd" rx="16.5" ry="16.5"/><text id="text7293" fill="#979797" font-family="Source Code Pro" font-size="12" font-weight="700" text-anchor="middle"><tspan id="tspan7291" x="44.5" y="21" fill="gray">C6</tspan></text></g><path id="path7297" fill="#8f8981" d="m686 86h26v1h-26v4l-9-4.5 9-4.5z"/><g id="g7305" fill="none" fill-rule="evenodd" transform="translate(706,70)"><rect id="rect7299" width="89" height="33" fill="#efefe7" fill-rule="evenodd" rx="16.5" ry="16.5"/><text id="text7303" fill="#979797" font-family="Source Code Pro" font-size="12" font-weight="700" text-anchor="middle"><tspan id="tspan7301" x="44.5" y="21" fill="gray">C7</tspan></text></g><g id="g7418"><path id="Line-2" fill="#8f8981" d="m43 61v-38h1v38h4l-4.5 9-4.5-9z" transform="translate(-1.2)"/><g id="g7411"><rect id="Rectangle-2" width="106" height="33" fill="#f44d27" fill-rule="evenodd" transform="matrix(.83962 0 0 1 -2.2 0)"/><text id="master" fill="#979797" fill-rule="evenodd" font-family="Source Code Pro" font-size="12" font-weight="700" text-anchor="middle" transform="translate(-10.6 .316)"><tspan id="tspan7309" x="53" y="20" fill="#f0f0f0">master</tspan></text></g></g><g id="g7435"><path id="path7313" fill="#8f8981" d="m516 61v-38h1v38h4l-4.5 9-4.5-9z" transform="translate(-2.1)"/><g id="g7428"><rect id="rect7315" width="106" height="33" fill="#f44d27" fill-rule="evenodd" transform="matrix(.83962 0 0 1 469.9 0)"/><text id="text7319" fill="#979797" fill-rule="evenodd" font-family="Source Code Pro" font-size="12" font-weight="700" text-anchor="middle" transform="translate(461.4 -.398)"><tspan id="tspan7317" x="53" y="20" fill="#f0f0f0">develop</tspan></text></g></g><g id="g7452"><path id="path7323" fill="#8f8981" d="m751 61v-38h1v38h4l-4.5 9-4.5-9z" transform="translate(-1.1)"/><g id="g7445"><rect id="rect7325" width="106" height="33" fill="#f44d27" fill-rule="evenodd" transform="matrix(.83962 0 0 1 705.9 0)"/><text id="text7329" fill="#979797" fill-rule="evenodd" font-family="Source Code Pro" font-size="12" font-weight="700" text-anchor="middle" transform="translate(697.42 -.074)"><tspan id="tspan7327" x="53" y="20" fill="#f0f0f0">topic</tspan></text></g></g></g></svg>