<svg xmlns="http://www.w3.org/2000/svg" id="svg8182" version="1.1" viewBox="0 0 1226 549"><metadata id="metadata8186"/><title id="title8100">images/lr-branches-2</title><desc id="desc8102">Created with Sketch.</desc><g id="layer5"><g id="g8856"><g id="g8807"><g id="g8483"><path id="path8438-4" fill="#009094" d="m1038.9-13.453v-17.768l216.14 60.109-216.14 59.731v-17.39h-202.5c-50.527 0-50.723.03736-75.113-41.863l-69.657-120.07h100.05l44.795 77.25z" transform="translate(-62.316 362.84)"/><path id="path8438-4-5" fill="#009094" d="m1038.9-13.453v-17.768l216.14 60.109-216.14 59.731v-17.39l-747.75.10541c-50.527 0-50.723.03736-75.113-41.863l-60.935-105.53h100.05l36.073 62.713z" transform="translate(-62.316 207.84)"/><path id="path8438" fill="#009094" d="m1038.9-13.453v-17.768l216.14 60.109-216.14 59.731v-17.39h-975.96v-84.683z" transform="translate(-62.316 67.589)"/></g><text style="line-height:29.60627556px" id="master" fill="#f0f0f0" fill-rule="evenodd" font-family="Source Code Pro" font-size="23.685" font-weight="700" transform="matrix(1.1259 0 0 1.1259 29.305 -70.163)"><tspan style="line-height:29.60627556px" id="tspan8172" x="853.293" y="155" fill="#f0f0f0" font-size="24.869">master</tspan></text><text id="develop" fill="#f0f0f0" fill-rule="evenodd" font-family="Source Code Pro" font-size="12" font-weight="700" transform="translate(56.098 -32.126)"><tspan id="tspan8175" x="933.592" y="277" fill="#f0f0f0" font-size="28">develop</tspan></text><text id="topic" fill="#f0f0f0" fill-rule="evenodd" font-family="Source Code Pro" font-size="12" font-weight="700" transform="translate(-25.903 -12.463)"><tspan id="tspan8178" x="1015.494" y="410" fill="#f0f0f0" font-size="28">topic</tspan></text></g></g><g id="g8843"><g id="brown" fill="none" fill-rule="evenodd" transform="matrix(1.1564 0 0 1.1564 32.234 79.071)"><rect id="Rectangle-1" width="89" height="33" fill="#efefe7" fill-rule="evenodd" rx="14.268" ry="15.052"/><text style="font-feature-settings:normal;font-variant-caps:normal;font-variant-ligatures:normal;font-variant-numeric:normal;text-align:center" id="C6" fill="#979797" font-family="Source Code Pro" font-size="13.836" font-weight="bold" text-anchor="middle" transform="translate(.031887 .010444)"><tspan style="font-feature-settings:normal;font-variant-caps:normal;font-variant-ligatures:normal;font-variant-numeric:normal;text-align:center" id="tspan8113" x="44.5" y="21" fill="gray" font-family="Source Code Pro" font-size="13.836" font-weight="bold" text-anchor="middle">C1</tspan></text></g><path id="path8162" fill="#9b9b9b" d="m741.47 402.94 18.526.05889v3l-18.526-.0946v4.2125l-17.474-5.6179 17.474-5.6934z" transform="translate(105.78 -12.768)"/><path id="path8162-0-7-6-2" fill="#8f8f8f" d="m741.47 402.94 113.01-.17194v3l-113.01.13623v4.2125l-17.474-5.6179 17.474-5.6934z" transform="rotate(53.654 708.68 -333.39)"/><g id="brown-6" fill="none" fill-rule="evenodd" transform="matrix(1.1564 0 0 1.1564 184.63 218.54)"><rect id="Rectangle-1-5" width="89" height="33" fill="#efefe7" fill-rule="evenodd" rx="14.268" ry="15.052"/><text style="font-feature-settings:normal;font-variant-caps:normal;font-variant-ligatures:normal;font-variant-numeric:normal;text-align:center" id="C6-8" fill="#979797" font-family="Source Code Pro" font-size="13.836" font-weight="bold" text-anchor="middle" transform="translate(.031887 .010444)"><tspan style="font-feature-settings:normal;font-variant-caps:normal;font-variant-ligatures:normal;font-variant-numeric:normal;text-align:center" id="tspan8113-2" x="44.5" y="21" fill="gray" font-family="Source Code Pro" font-size="13.836" font-weight="bold" text-anchor="middle">C2</tspan></text></g><path id="path8162-0-7-6" fill="#9b9b9b" d="m741.47 402.94 18.526.05889v3l-18.526-.0946v4.2125l-17.474-5.6179 17.474-5.6934z" transform="translate(-436.6 -167.77)"/><g id="brown-6-2" fill="none" fill-rule="evenodd" transform="matrix(1.1564 0 0 1.1564 320.19 218.54)"><rect id="Rectangle-1-5-5" width="89" height="33" fill="#efefe7" fill-rule="evenodd" rx="14.268" ry="15.052"/><text style="font-feature-settings:normal;font-variant-caps:normal;font-variant-ligatures:normal;font-variant-numeric:normal;text-align:center" id="C6-8-4" fill="#979797" font-family="Source Code Pro" font-size="13.836" font-weight="bold" text-anchor="middle" transform="translate(.031887 .010444)"><tspan style="font-feature-settings:normal;font-variant-caps:normal;font-variant-ligatures:normal;font-variant-numeric:normal;text-align:center" id="tspan8113-2-2" x="44.5" y="21" fill="gray" font-family="Source Code Pro" font-size="13.836" font-weight="bold" text-anchor="middle">C3</tspan></text></g><path id="path8162-0-7" fill="#9b9b9b" d="m741.47 402.94 18.526.05889v3l-18.526-.0946v4.2125l-17.474-5.6179 17.474-5.6934z" transform="translate(-301.01 -167.77)"/><g id="brown-6-2-6" fill="none" fill-rule="evenodd" transform="matrix(1.1564 0 0 1.1564 455.89 218.54)"><rect id="Rectangle-1-5-5-3" width="89" height="33" fill="#efefe7" fill-rule="evenodd" rx="14.268" ry="15.052"/><text style="font-feature-settings:normal;font-variant-caps:normal;font-variant-ligatures:normal;font-variant-numeric:normal;text-align:center" id="C6-8-4-0" fill="#979797" font-family="Source Code Pro" font-size="13.836" font-weight="bold" text-anchor="middle" transform="translate(.031887 .010444)"><tspan style="font-feature-settings:normal;font-variant-caps:normal;font-variant-ligatures:normal;font-variant-numeric:normal;text-align:center" id="tspan8113-2-2-4" x="44.5" y="21" fill="gray" font-family="Source Code Pro" font-size="13.836" font-weight="bold" text-anchor="middle">C4</tspan></text></g><path id="path8162-0" fill="#9b9b9b" d="m741.47 402.94 18.526.05889v3l-18.526-.0946v4.2125l-17.474-5.6179 17.474-5.6934z" transform="translate(-165.43 -167.67)"/><g id="brown-6-2-6-7" fill="none" fill-rule="evenodd" transform="matrix(1.1564 0 0 1.1564 610.14 232.78)"><rect id="Rectangle-1-5-5-3-6" width="89" height="33" fill="#efefe7" fill-rule="evenodd" rx="14.268" ry="15.052" transform="translate(-16.276 -12.33)"/><text style="font-feature-settings:normal;font-variant-caps:normal;font-variant-ligatures:normal;font-variant-numeric:normal;text-align:center" id="C6-8-4-0-3" fill="#979797" font-family="Source Code Pro" font-size="13.836" font-weight="bold" text-anchor="middle" transform="translate(-16.182 -12.319)"><tspan style="font-feature-settings:normal;font-variant-caps:normal;font-variant-ligatures:normal;font-variant-numeric:normal;text-align:center" id="tspan8113-2-2-4-8" x="44.5" y="21" fill="gray" font-family="Source Code Pro" font-size="13.836" font-weight="bold" text-anchor="middle">C5</tspan></text></g><path id="path8162-0-7-6-2-3" fill="#8f8f8f" d="m741.47 402.94 117.82-.11375v3l-117.82.078v4.2125l-17.474-5.6178 17.474-5.6934z" transform="rotate(62.743 826.29 296.63)"/><g id="brown-6-2-6-7-1" fill="none" fill-rule="evenodd" transform="matrix(1.1564 0 0 1.1564 745.74 386.83)"><rect id="Rectangle-1-5-5-3-6-3" width="89" height="33" fill="#efefe7" fill-rule="evenodd" rx="14.268" ry="15.052" transform="translate(-16.276 -12.33)"/><text style="font-feature-settings:normal;font-variant-caps:normal;font-variant-ligatures:normal;font-variant-numeric:normal;text-align:center" id="C6-8-4-0-3-0" fill="#979797" font-family="Source Code Pro" font-size="13.836" font-weight="bold" text-anchor="middle" transform="translate(-16.182 -12.319)"><tspan style="font-feature-settings:normal;font-variant-caps:normal;font-variant-ligatures:normal;font-variant-numeric:normal;text-align:center" id="tspan8113-2-2-4-8-1" x="44.5" y="21" fill="gray" font-family="Source Code Pro" font-size="13.836" font-weight="bold" text-anchor="middle">C6</tspan></text></g><g id="brown-6-2-6-7-1-1" fill="none" fill-rule="evenodd" transform="matrix(1.1564 0 0 1.1564 881.26 386.83)"><rect id="Rectangle-1-5-5-3-6-3-5" width="89" height="33" fill="#efefe7" fill-rule="evenodd" rx="14.268" ry="15.052" transform="translate(-16.276 -12.33)"/><text style="font-feature-settings:normal;font-variant-caps:normal;font-variant-ligatures:normal;font-variant-numeric:normal;text-align:center" id="C6-8-4-0-3-0-2" fill="#979797" font-family="Source Code Pro" font-size="13.836" font-weight="bold" text-anchor="middle" transform="translate(-16.182 -12.319)"><tspan style="font-feature-settings:normal;font-variant-caps:normal;font-variant-ligatures:normal;font-variant-numeric:normal;text-align:center" id="tspan8113-2-2-4-8-1-2" x="44.5" y="21" fill="gray" font-family="Source Code Pro" font-size="13.836" font-weight="bold" text-anchor="middle">C7</tspan></text></g></g></g></svg>