<svg xmlns="http://www.w3.org/2000/svg" id="svg12349" version="1.1" viewBox="0 0 621 206"><metadata id="metadata12355"/><title id="title12261">images/merging-workflows-5</title><desc id="desc12263">Created with Sketch.</desc><g id="g12558" transform="translate(-2,-5)"><g id="Line-+-brown-2" fill="none" fill-rule="evenodd" transform="translate(6,66)"><g id="brown"><rect id="Rectangle-1" width="89" height="33" fill="#efefe7" fill-rule="evenodd" rx="16.5" ry="16.5"/><text id="C6" fill="#979797" font-family="Source Code Pro" font-size="12" font-weight="700" text-anchor="middle"><tspan id="tspan12266" x="44.5" y="21" fill="gray">C1</tspan></text></g></g><path id="Line-4" fill="#8f8981" d="m104 82h45v1h-45v4l-9-4.5 9-4.5z"/><g id="g12278" fill="none" fill-rule="evenodd" transform="translate(125,66)"><rect id="rect12272" width="89" height="33" fill="#efefe7" fill-rule="evenodd" rx="16.5" ry="16.5"/><text id="text12276" fill="#979797" font-family="Source Code Pro" font-size="12" font-weight="700" text-anchor="middle"><tspan id="tspan12274" x="44.5" y="21" fill="gray">C2</tspan></text></g><path id="Line-3" fill="#8f8981" d="m223 82h45v1h-45v4l-9-4.5 9-4.5z"/><g id="g12287" fill="none" fill-rule="evenodd" transform="translate(244,66)"><rect id="rect12281" width="89" height="33" fill="#efefe7" fill-rule="evenodd" rx="16.5" ry="16.5"/><text id="text12285" fill="#979797" font-family="Source Code Pro" font-size="12" font-weight="700" text-anchor="middle"><tspan id="tspan12283" x="44.5" y="21" fill="gray">C5</tspan></text></g><g id="Line-+-brown-5" fill="none" fill-rule="evenodd" transform="translate(209,94)"><path id="Line" fill="#8f8981" fill-rule="nonzero" d="m7.8327 4.8281 51.361 34.536-.558.82984-51.361-34.536-2.232 3.3194-4.9576-8.7563 9.9796 1.2877z"/><g id="g12296" transform="translate(35,23)"><rect id="rect12290" width="89" height="33" fill="#efefe7" fill-rule="evenodd" rx="16.5" ry="16.5"/><text id="text12294" fill="#979797" font-family="Source Code Pro" font-size="12" font-weight="700" text-anchor="middle"><tspan id="tspan12292" x="44.5" y="21" fill="gray">C3</tspan></text></g></g><g id="Line-5-+-brown-5" fill="none" fill-rule="evenodd" transform="translate(333,117)"><path id="Line-5" fill="#8f8981" fill-rule="nonzero" d="m9 16h45v1h-45v4l-9-4.5 9-4.5z"/><g id="g12306" transform="translate(30)"><rect id="rect12300" width="89" height="33" fill="#efefe7" fill-rule="evenodd" rx="16.5" ry="16.5"/><text id="text12304" fill="#979797" font-family="Source Code Pro" font-size="12" font-weight="700" text-anchor="middle"><tspan id="tspan12302" x="44.5" y="21" fill="gray">C4</tspan></text></g></g><path id="Line-7" fill="#8f8981" d="m343 82h163v1h-163v4l-9-4.5 9-4.5z"/><path id="Line-6" fill="#8f8981" d="m456.06 118.08 49.545-36.274.59074.80686-49.545 36.274 2.363 3.2274-9.9201 1.6858 4.6034-8.9475z"/><g id="g12317" fill="none" fill-rule="evenodd" transform="translate(481,66)"><rect id="rect12311" width="89" height="33" fill="#efefe7" fill-rule="evenodd" rx="16.5" ry="16.5"/><text id="text12315" fill="#979797" font-family="Source Code Pro" font-size="12" font-weight="700" text-anchor="middle"><tspan id="tspan12313" x="44.5" y="21" fill="gray">C6</tspan></text></g><g id="g12505"><path id="path12326-0" fill="#8f8981" d="m41.542 35.599-13.705-30.345.90849-.41791 13.705 30.345 3.634-1.6716-.32706 10.057-7.8494-6.2958z" transform="matrix(-.94957 -.31357 -.31357 .94957 609.36 39.027)"/><g id="g12454" transform="translate(-17)"><rect id="Rectangle-2" width="74.299" height="33" fill="#f44d27" fill-rule="evenodd" transform="matrix(1.1979 0 0 1 547 9)"/><text id="master" fill="#979797" fill-rule="evenodd" font-family="Source Code Pro" font-size="12" font-weight="700" text-anchor="middle" transform="translate(554.35 8.602)"><tspan id="tspan12321" x="37.15" y="20" fill="#f0f0f0">develop</tspan></text></g></g><g id="g12498"><path id="path12326" fill="#8f8981" d="m41.542 35.599-13.705-30.345.90849-.41791 13.705 30.345 3.634-1.6716-.32706 10.057-7.8494-6.2958z" transform="rotate(-18.274 342.24 -1352.8)"/><g id="g12441" transform="translate(-17)"><rect id="rect12328" width="78.262" height="33" fill="#f44d27" fill-rule="evenodd" transform="matrix(1.1372 0 0 1 449 9)"/><text id="text12332" fill="#979797" fill-rule="evenodd" font-family="Source Code Pro" font-size="12" font-weight="700" text-anchor="middle" transform="translate(454.47 9.316)"><tspan id="tspan12330" x="39.131" y="20" fill="#f0f0f0">master</tspan></text></g></g><g id="g12428"><path id="path12337" fill="#8f8981" d="m43 9v32h-1v-32h-4l4.5-9 4.5 9z" transform="translate(365,150)"/><g id="g12421"><rect id="rect12339" width="106" height="33" fill="#f44d27" fill-rule="evenodd" transform="matrix(.83962 0 0 1 363 174)"/><text id="text12343" fill="#979797" fill-rule="evenodd" font-family="Source Code Pro" font-size="12" font-weight="700" text-anchor="middle" transform="translate(354.1 173.87)"><tspan id="tspan12341" x="53" y="20" fill="#f0f0f0">ruby_client</tspan></text></g></g></g></svg>