<svg xmlns="http://www.w3.org/2000/svg" id="svg11416" version="1.1" viewBox="0 0 454 206"><metadata id="metadata11422"/><title id="title11337">images/merging-workflows-3</title><desc id="desc11339">Created with Sketch.</desc><g id="g11670" transform="translate(-2,-5)"><g id="Line-+-brown-2" fill="none" fill-rule="evenodd" transform="translate(6,66)"><g id="brown"><rect id="Rectangle-1" width="89" height="33" fill="#efefe7" fill-rule="evenodd" rx="16.5" ry="16.5"/><text id="C6" fill="#979797" font-family="Source Code Pro" font-size="12" font-weight="700" text-anchor="middle"><tspan id="tspan11342" x="44.5" y="21" fill="gray">C1</tspan></text></g></g><path id="Line" fill="#8f8981" d="m104 82h45v1h-45v4l-9-4.5 9-4.5z"/><g id="g11354" fill="none" fill-rule="evenodd" transform="translate(125,66)"><rect id="rect11348" width="89" height="33" fill="#efefe7" fill-rule="evenodd" rx="16.5" ry="16.5"/><text id="text11352" fill="#979797" font-family="Source Code Pro" font-size="12" font-weight="700" text-anchor="middle"><tspan id="tspan11350" x="44.5" y="21" fill="gray">C2</tspan></text></g><path id="Line-3" fill="#8f8981" d="m223 82h45v1h-45v4l-9-4.5 9-4.5z"/><g id="g11363" fill="none" fill-rule="evenodd" transform="translate(244,66)"><rect id="rect11357" width="89" height="33" fill="#efefe7" fill-rule="evenodd" rx="16.5" ry="16.5"/><text id="text11361" fill="#979797" font-family="Source Code Pro" font-size="12" font-weight="700" text-anchor="middle"><tspan id="tspan11359" x="44.5" y="21" fill="gray">C5</tspan></text></g><g id="Line-+-brown-5" fill="none" fill-rule="evenodd" transform="translate(209,94)"><path id="path11365" fill="#8f8981" fill-rule="nonzero" d="m7.8327 4.8281 51.361 34.536-.558.82984-51.361-34.536-2.232 3.3194-4.9576-8.7563 9.9796 1.2877z"/><g id="g11373" transform="translate(35,23)"><rect id="rect11367" width="89" height="33" fill="#efefe7" fill-rule="evenodd" rx="16.5" ry="16.5"/><text id="text11371" fill="#979797" font-family="Source Code Pro" font-size="12" font-weight="700" text-anchor="middle"><tspan id="tspan11369" x="44.5" y="21" fill="gray">C3</tspan></text></g></g><path id="path11376" fill="#8f8981" d="m342 133h45v1h-45v4l-9-4.5 9-4.5z"/><g id="g11384" fill="none" fill-rule="evenodd" transform="translate(363,117)"><rect id="rect11378" width="89" height="33" fill="#efefe7" fill-rule="evenodd" rx="16.5" ry="16.5"/><text id="text11382" fill="#979797" font-family="Source Code Pro" font-size="12" font-weight="700" text-anchor="middle"><tspan id="tspan11380" x="44.5" y="21" fill="gray">C4</tspan></text></g><g id="g11602"><path id="Line-2" fill="#8f8981" d="m42 48v-43h1v43h4l-4.5 9-4.5-9z" transform="translate(245.8,9)"/><g id="g11595"><rect id="Rectangle-2" width="106" height="33" fill="#f44d27" fill-rule="evenodd" transform="matrix(.83962 0 0 1 243.8 9)"/><text id="master" fill="#979797" fill-rule="evenodd" font-family="Source Code Pro" font-size="12" font-weight="700" text-anchor="middle" transform="translate(235.3 8.602)"><tspan id="tspan11388" x="53" y="20" fill="#f0f0f0">develop</tspan></text></g></g><g id="g11580"><path id="path11393" fill="#8f8981" d="m42 48v-43h1v43h4l-4.5 9-4.5-9z" transform="translate(127,9)"/><g id="g11573"><rect id="rect11395" width="106" height="33" fill="#f44d27" fill-rule="evenodd" transform="matrix(.83962 0 0 1 125 9)"/><text id="text11399" fill="#979797" fill-rule="evenodd" font-family="Source Code Pro" font-size="12" font-weight="700" text-anchor="middle" transform="translate(116.6 9.316)"><tspan id="tspan11397" x="53" y="20" fill="#f0f0f0">master</tspan></text></g></g><g id="g11624"><path id="path11404" fill="#8f8981" d="m43 9v32h-1v-32h-4l4.5-9 4.5 9z" transform="translate(365,150)"/><g id="g11617"><rect id="rect11406" width="106" height="33" fill="#f44d27" fill-rule="evenodd" transform="matrix(.83962 0 0 1 363 174)"/><text id="text11410" fill="#979797" fill-rule="evenodd" font-family="Source Code Pro" font-size="12" font-weight="700" text-anchor="middle" transform="translate(354.1 173.87)"><tspan id="tspan11408" x="53" y="20" fill="#f0f0f0">ruby_client</tspan></text></g></g></g></svg>