<svg xmlns="http://www.w3.org/2000/svg" id="svg11866" version="1.1" viewBox="0 0 572 206"><metadata id="metadata11872"/><title id="title11777">images/merging-workflows-4</title><desc id="desc11779">Created with Sketch.</desc><g id="g12042" transform="translate(-2,-5)"><g id="Line-+-brown-2" fill="none" fill-rule="evenodd" transform="translate(6,66)"><g id="brown"><rect id="Rectangle-1" width="89" height="33" fill="#efefe7" fill-rule="evenodd" rx="16.5" ry="16.5"/><text id="C6" fill="#979797" font-family="Source Code Pro" font-size="12" font-weight="700" text-anchor="middle"><tspan id="tspan11782" x="44.5" y="21" fill="gray">C1</tspan></text></g></g><path id="Line-4" fill="#8f8981" d="m104 82h45v1h-45v4l-9-4.5 9-4.5z"/><g id="g11794" fill="none" fill-rule="evenodd" transform="translate(125,66)"><rect id="rect11788" width="89" height="33" fill="#efefe7" fill-rule="evenodd" rx="16.5" ry="16.5"/><text id="text11792" fill="#979797" font-family="Source Code Pro" font-size="12" font-weight="700" text-anchor="middle"><tspan id="tspan11790" x="44.5" y="21" fill="gray">C2</tspan></text></g><path id="Line-3" fill="#8f8981" d="m223 82h45v1h-45v4l-9-4.5 9-4.5z"/><g id="g11803" fill="none" fill-rule="evenodd" transform="translate(244,66)"><rect id="rect11797" width="89" height="33" fill="#efefe7" fill-rule="evenodd" rx="16.5" ry="16.5"/><text id="text11801" fill="#979797" font-family="Source Code Pro" font-size="12" font-weight="700" text-anchor="middle"><tspan id="tspan11799" x="44.5" y="21" fill="gray">C5</tspan></text></g><g id="Line-+-brown-5" fill="none" fill-rule="evenodd" transform="translate(209,94)"><path id="Line" fill="#8f8981" fill-rule="nonzero" d="m7.8327 4.8281 51.361 34.536-.558.82984-51.361-34.536-2.232 3.3194-4.9576-8.7563 9.9796 1.2877z"/><g id="g11812" transform="translate(35,23)"><rect id="rect11806" width="89" height="33" fill="#efefe7" fill-rule="evenodd" rx="16.5" ry="16.5"/><text id="text11810" fill="#979797" font-family="Source Code Pro" font-size="12" font-weight="700" text-anchor="middle"><tspan id="tspan11808" x="44.5" y="21" fill="gray">C3</tspan></text></g></g><g id="Line-5-+-brown-5" fill="none" fill-rule="evenodd" transform="translate(333,117)"><path id="Line-5" fill="#8f8981" fill-rule="nonzero" d="m9 16h45v1h-45v4l-9-4.5 9-4.5z"/><g id="g11822" transform="translate(30)"><rect id="rect11816" width="89" height="33" fill="#efefe7" fill-rule="evenodd" rx="16.5" ry="16.5"/><text id="text11820" fill="#979797" font-family="Source Code Pro" font-size="12" font-weight="700" text-anchor="middle"><tspan id="tspan11818" x="44.5" y="21" fill="gray">C4</tspan></text></g></g><path id="path11825" fill="#8f8981" d="m343 82h163v1h-163v4l-9-4.5 9-4.5z"/><path id="Line-6" fill="#8f8981" d="m456.06 118.08 49.545-36.274.59074.80686-49.545 36.274 2.363 3.2274-9.9201 1.6858 4.6034-8.9475z"/><g id="g11834" fill="none" fill-rule="evenodd" transform="translate(481,66)"><rect id="rect11828" width="89" height="33" fill="#efefe7" fill-rule="evenodd" rx="16.5" ry="16.5"/><text id="text11832" fill="#979797" font-family="Source Code Pro" font-size="12" font-weight="700" text-anchor="middle"><tspan id="tspan11830" x="44.5" y="21" fill="gray">C6</tspan></text></g><g id="g11989"><path id="Line-2" fill="#8f8981" d="m42 48v-43h1v43h4l-4.5 9-4.5-9z" transform="translate(482.9,9)"/><g id="g11982"><rect id="Rectangle-2" width="106" height="33" fill="#f44d27" fill-rule="evenodd" transform="matrix(.83962 0 0 1 480.9 9)"/><text id="master" fill="#979797" fill-rule="evenodd" font-family="Source Code Pro" font-size="12" font-weight="700" text-anchor="middle" transform="translate(472.4 8.602)"><tspan id="tspan11838" x="53" y="20" fill="#f0f0f0">develop</tspan></text></g></g><g id="g11945"><path id="path11843" fill="#8f8981" d="m42 48v-43h1v43h4l-4.5 9-4.5-9z" transform="translate(126.9,9)"/><g id="g11938"><rect id="rect11845" width="106" height="33" fill="#f44d27" fill-rule="evenodd" transform="matrix(.83962 0 0 1 124.9 9)"/><text id="text11849" fill="#979797" fill-rule="evenodd" font-family="Source Code Pro" font-size="12" font-weight="700" text-anchor="middle" transform="translate(116.5 9.316)"><tspan id="tspan11847" x="53" y="20" fill="#f0f0f0">master</tspan></text></g></g><g id="g11967"><path id="path11854" fill="#8f8981" d="m43 9v32h-1v-32h-4l4.5-9 4.5 9z" transform="translate(365,150)"/><g id="g11960"><rect id="rect11856" width="106" height="33" fill="#f44d27" fill-rule="evenodd" transform="matrix(.83962 0 0 1 363 174)"/><text id="text11860" fill="#979797" fill-rule="evenodd" font-family="Source Code Pro" font-size="12" font-weight="700" text-anchor="middle" transform="translate(354.1 173.87)"><tspan id="tspan11858" x="53" y="20" fill="#f0f0f0">ruby_client</tspan></text></g></g></g></svg>