<svg xmlns="http://www.w3.org/2000/svg" id="svg10299" version="1.1" viewBox="0 0 566 335"><metadata id="metadata10305"/><title id="title10230">images/perils-of-rebasing-1</title><desc id="desc10232">Created with Sketch.</desc><g id="g12824"><rect id="Rectangle-10" width="535" height="111" x="16" y="17" fill="none" stroke="#8f8981" stroke-linecap="square"/><rect id="Rectangle-11" width="535" height="158" x="16" y="158" fill="none" stroke="#8f8981" stroke-linecap="square"/><g id="brown" fill="none" fill-rule="evenodd" transform="translate(46,67)"><rect id="Rectangle-1" width="89" height="33" fill="#efefe7" fill-rule="evenodd" rx="16.5"/><text id="C6" fill="#979797" font-family="Source Code Pro" font-size="12" font-weight="700" text-anchor="middle"><tspan id="tspan10237" x="44.5" y="21" fill="gray">C1</tspan></text></g><g id="g12746"><path id="Line-2" fill="#8f8981" d="m145 83h38v1h-38v4l-9-4.5 9-4.5z" transform="translate(-1)"/><g id="g12737"><rect id="Rectangle-2" width="106" height="33" fill="#f44d27" fill-rule="evenodd" transform="matrix(1.0377 0 0 1 170.8 67)"/><text id="master" fill="#979797" fill-rule="evenodd" font-family="Source Code Pro" font-size="12" font-weight="700" text-anchor="middle" transform="translate(172.9 67.316)"><tspan id="tspan10243" x="53" y="20" fill="#f0f0f0">master</tspan></text></g></g><g id="g10253" fill="none" fill-rule="evenodd" transform="translate(45.9,211)"><rect id="rect10247" width="89" height="33" fill="#efefe7" fill-rule="evenodd" rx="16.5" ry="16.5"/><text id="text10251" fill="#979797" font-family="Source Code Pro" font-size="12" font-weight="700" text-anchor="middle"><tspan id="tspan10249" x="44.5" y="21" fill="gray">C1</tspan></text></g><path id="Line-3" fill="#8f8981" d="m136.64 244.15 35.563 26.249-.59385.80457-35.563-26.249-2.3754 3.2183-4.5688-8.9653 9.9135 1.7241-2.3754 3.2183z"/><g id="g10262" fill="none" fill-rule="evenodd" transform="translate(161,262)"><rect id="rect10256" width="89" height="33" fill="#efefe7" fill-rule="evenodd" rx="16.5"/><text id="text10260" fill="#979797" font-family="Source Code Pro" font-size="12" font-weight="700" text-anchor="middle"><tspan id="tspan10258" x="44.5" y="21" fill="gray">C2</tspan></text></g><path id="Line-4" fill="#8f8981" d="m259 278h39v1h-39v4l-9-4.5 9-4.5z"/><g id="g10271" fill="none" fill-rule="evenodd" transform="translate(278,262)"><rect id="rect10265" width="89" height="33" fill="#efefe7" fill-rule="evenodd" rx="16.5"/><text id="text10269" fill="#979797" font-family="Source Code Pro" font-size="12" font-weight="700" text-anchor="middle"><tspan id="tspan10267" x="44.5" y="21" fill="gray">C3</tspan></text></g><g id="g12780"><path id="Line-5" fill="#8f8981" d="m9 16h39v1h-39v4l-9-4.5 9-4.5z" transform="translate(367.1,262)"/><g id="g12773"><rect id="rect10274" width="106" height="33" fill="#f44d27" fill-rule="evenodd" transform="matrix(1.0377 0 0 1 400.1 262)"/><text id="text10278" fill="#979797" fill-rule="evenodd" font-family="Source Code Pro" font-size="12" font-weight="700" text-anchor="middle" transform="translate(402.2 262.32)"><tspan id="tspan10276" x="53" y="20" fill="#f0f0f0">master</tspan></text></g></g><g id="g12758"><path id="Line-6" fill="#8f8981" d="m9 16h38v1h-38v4l-9-4.5 9-4.5z" transform="translate(134.9,211)"/><g id="g12720"><rect id="rect10284" width="111" height="33" fill="#f44d27" fill-rule="evenodd" transform="matrix(.99099 0 0 1 171 211)"/><text id="text10288" fill="#979797" fill-rule="evenodd" font-family="Source Code Pro" font-size="12" font-weight="700" text-anchor="middle" transform="translate(170.52 210.8)"><tspan id="tspan10286" x="55.5" y="20" fill="#f0f0f0">teamone/master</tspan></text></g></g><text id="My-Computer" fill="#404040" fill-rule="evenodd" font-family="Source Code Pro" font-size="12" font-weight="700" text-anchor="middle" transform="translate(15.962)"><tspan id="tspan10292" x="267.5" y="179" fill="#404040">My Computer</tspan></text><text id="git.team1.ourcompany" fill="#404040" fill-rule="evenodd" font-family="Source Code Pro" font-size="12" font-weight="700" text-anchor="middle" transform="translate(15.842)"><tspan id="tspan10295" x="267.5" y="36" fill="#404040">git.team1.ourcompany.com</tspan></text></g></svg>