<svg xmlns="http://www.w3.org/2000/svg" id="svg11666" version="1.1" viewBox="0 0 608.48 374"><metadata id="metadata11672"/><title id="title11496">images/perils-of-rebasing-3</title><desc id="desc11498">Created with Sketch.</desc><g id="g15262" transform="translate(-11.5,-12.5)"><g id="g15370"><rect id="Rectangle-10" width="599.48" height="151" x="16" y="17" fill="none" stroke="#8f8981" stroke-linecap="square"/><rect id="Rectangle-11" width="599.48" height="184" x="16" y="198" fill="none" stroke="#8f8981" stroke-linecap="square"/><g id="g15151" transform="translate(-1.2289 11.1)"><g id="brown" fill="none" fill-rule="evenodd" transform="translate(26,106)"><rect id="Rectangle-1" width="89" height="33" fill="#efefe7" fill-rule="evenodd" rx="16.5" ry="16.5"/><text id="C6" fill="#979797" font-family="Source Code Pro" font-size="12" font-weight="700" text-anchor="middle"><tspan id="tspan11504" x="44.5" y="21" fill="gray">C1</tspan></text></g><g id="g15104"><path id="Line-2" fill="#8f8981" d="m9 16h38v1h-38v4l-9-4.5 9-4.5z" transform="translate(351,56)"/><rect id="Rectangle-2" width="106" height="33" fill="#f44d27" fill-rule="evenodd" transform="matrix(1.0377 0 0 1 380 56)"/></g><text id="master" fill="#979797" fill-rule="evenodd" font-family="Source Code Pro" font-size="12" font-weight="700" text-anchor="middle" transform="translate(387.1 56.316)"><tspan id="tspan11510" x="53" y="20" fill="#f0f0f0">master</tspan></text><g id="g15107"><path id="path11553" fill="#8f8981" d="m9 16h39v1h-39v4l-9-4.5 9-4.5z" transform="translate(233,56)"/></g><g id="g11561" fill="none" fill-rule="evenodd" transform="translate(262,56)"><rect id="rect11555" width="89" height="33" fill="#efefe7" fill-rule="evenodd" rx="16.5" ry="16.5"/><text id="text11559" fill="#979797" font-family="Source Code Pro" font-size="12" font-weight="700" text-anchor="middle"><tspan id="tspan11557" x="44.5" y="21" fill="gray">C4&apos;</tspan></text></g><g id="g15114"><path id="Line-8-7-9" fill="#8f8981" d="m253.37 264.52 33.829 27.909-.63639.77138-33.829-27.909-2.5455 3.0855-4.0786-9.1986 9.8061 2.2563z" transform="matrix(1 0 0 -1 -134.88 371.26)"/><g id="g11582" fill="none" fill-rule="evenodd" transform="translate(144.01 56.016)"><rect id="rect11576" width="89" height="33" fill="#efefe7" fill-rule="evenodd" rx="16.5" ry="16.5"/><text id="text11580" fill="#979797" font-family="Source Code Pro" font-size="12" font-weight="700" text-anchor="middle"><tspan id="tspan11578" x="44.5" y="21" fill="gray">C5</tspan></text></g></g><g id="g14935" opacity=".5"><g id="g14912"><path id="path11584" fill="#8f8981" d="m9 16h39v1h-39v4l-9-4.5 9-4.5z" transform="translate(114.91 106.2)"/><g id="g11592" fill="none" fill-rule="evenodd" transform="translate(144.01 106)"><rect id="rect11586" width="89" height="33" fill="#efefe7" fill-rule="evenodd" rx="16.5" ry="16.5"/><text id="text11590" fill="#979797" font-family="Source Code Pro" font-size="12" font-weight="700" text-anchor="middle"><tspan id="tspan11588" x="44.5" y="21" fill="gray">C4</tspan></text></g></g><g id="g14920"><path id="Line-7" fill="#8f8981" d="m119.37 5.5236 33.829 27.909-.63638.77137-33.829-27.909-2.5455 3.0855-4.0786-9.1986 9.8061 2.2563-2.5455 3.0855z" transform="translate(117.11 82.801)"/><path id="path11596" fill="#8f8981" d="m9 16h39v1h-39v4l-9-4.5 9-4.5z" transform="translate(233.01 106.2)"/><g id="g11604" fill="none" fill-rule="evenodd" transform="translate(262.01 106)"><rect id="rect11598" width="89" height="33" fill="#efefe7" fill-rule="evenodd" rx="16.5" ry="16.5"/><text id="text11602" fill="#979797" font-family="Source Code Pro" font-size="12" font-weight="700" text-anchor="middle"><tspan id="tspan11600" x="44.5" y="21" fill="gray">C6</tspan></text></g></g></g></g><g id="g15034" transform="translate(-1.2289)"><g id="g11521" fill="none" fill-rule="evenodd" transform="translate(26,281)"><rect id="rect11515" width="89" height="33" fill="#efefe7" fill-rule="evenodd" rx="16.5" ry="16.5"/><text id="text11519" fill="#979797" font-family="Source Code Pro" font-size="12" font-weight="700" text-anchor="middle"><tspan id="tspan11517" x="44.5" y="21" fill="gray">C1</tspan></text></g><g id="g14837"><path id="Line-8-8-6" fill="#8f8981" d="m253.37 264.52 33.829 27.909-.63639.77138-33.829-27.909-2.5455 3.0855-4.0786-9.1986 9.8061 2.2563z" transform="translate(-134.88 48.652)"/><g id="g11530" fill="none" fill-rule="evenodd" transform="translate(144.01 331.02)"><rect id="rect11524" width="89" height="33" fill="#efefe7" fill-rule="evenodd" rx="16.5" ry="16.5"/><text id="text11528" fill="#979797" font-family="Source Code Pro" font-size="12" font-weight="700" text-anchor="middle"><tspan id="tspan11526" x="44.5" y="21" fill="gray">C2</tspan></text></g></g><g id="g14830"><path id="Line-4" fill="#8f8981" d="m9 16h39v1h-39v4l-9-4.5 9-4.5z" transform="translate(233 331.03)"/><g id="g11539" fill="none" fill-rule="evenodd" transform="translate(262 331.03)"><rect id="rect11533" width="89" height="33" fill="#efefe7" fill-rule="evenodd" rx="16.5" ry="16.5"/><text id="text11537" fill="#979797" font-family="Source Code Pro" font-size="12" font-weight="700" text-anchor="middle"><tspan id="tspan11535" x="44.5" y="21" fill="gray">C3</tspan></text></g></g><g id="g14864"><path id="Line-8-8-9" fill="#8f8981" d="m253.37 264.52 33.829 27.909-.63639.77138-33.829-27.909-2.5455 3.0855-4.0786-9.1986 9.8061 2.2563z" transform="translate(101.1 48.865)"/><path id="path11542" fill="#8f8981" d="m9 16h39v1h-39v4l-9-4.5 9-4.5z" transform="translate(351 331.02)"/><g id="g11550" fill="none" fill-rule="evenodd" transform="translate(379.96 331.02)"><rect id="rect11544" width="89" height="33" fill="#efefe7" fill-rule="evenodd" rx="16.5" ry="16.5"/><text id="text11548" fill="#979797" font-family="Source Code Pro" font-size="12" font-weight="700" text-anchor="middle"><tspan id="tspan11546" x="44.5" y="21" fill="gray">C7</tspan></text></g></g><g id="g14962"><path id="path11564" fill="#8f8981" d="m9 16h39v1h-39v4l-9-4.5 9-4.5z" transform="translate(233,231)"/><g id="g11572" fill="none" fill-rule="evenodd" transform="translate(262 231)"><rect id="rect11566" width="89" height="33" fill="#efefe7" fill-rule="evenodd" rx="16.5" ry="16.5"/><text id="text11570" fill="#979797" font-family="Source Code Pro" font-size="12" font-weight="700" text-anchor="middle"><tspan id="tspan11568" x="44.5" y="21" fill="gray">C4&apos;</tspan></text></g></g><g id="g14844"><path id="path11608" fill="#8f8981" d="m9 16h39v1h-39v4l-9-4.5 9-4.5z" transform="translate(115,281)"/><g id="g11616" fill="none" fill-rule="evenodd" transform="translate(144,281)"><rect id="rect11610" width="89" height="33" fill="#efefe7" fill-rule="evenodd" rx="16.5" ry="16.5"/><text id="text11614" fill="#979797" font-family="Source Code Pro" font-size="12" font-weight="700" text-anchor="middle"><tspan id="tspan11612" x="44.5" y="21" fill="gray">C4</tspan></text></g></g><g id="g14851"><path id="Line-8-7-3" fill="#8f8981" d="m253.37 264.52 33.829 27.909-.63639.77138-33.829-27.909-2.5455 3.0855-4.0786-9.1986 9.8061 2.2563z" transform="matrix(1 0 0 -1 -134.88 546.33)"/><g id="g11627" fill="none" fill-rule="evenodd" transform="translate(144,231)"><rect id="rect11621" width="89" height="33" fill="#efefe7" fill-rule="evenodd" rx="16.5" ry="16.5"/><text id="text11625" fill="#979797" font-family="Source Code Pro" font-size="12" font-weight="700" text-anchor="middle"><tspan id="tspan11623" x="44.5" y="21" fill="gray">C5</tspan></text></g></g><g id="g14971"><path id="Line-8-8-7" fill="#8f8981" d="m253.37 264.52 33.829 27.909-.63639.77138-33.829-27.909-2.5455 3.0855-4.0786-9.1986 9.8061 2.2563z" transform="translate(-16.866 -1.3116)"/><g id="g14818"><path id="path11629" fill="#8f8981" d="m9 16h39v1h-39v4l-9-4.5 9-4.5z" transform="translate(233 281)"/><g id="g11637" fill="none" fill-rule="evenodd" transform="translate(262 281)"><rect id="rect11631" width="89" height="33" fill="#efefe7" fill-rule="evenodd" rx="16.5" ry="16.5"/><text id="text11635" fill="#979797" font-family="Source Code Pro" font-size="12" font-weight="700" text-anchor="middle"><tspan id="tspan11633" x="44.5" y="21" fill="gray">C6</tspan></text></g></g></g><g id="g14882"><path id="Line-5" fill="#8f8981" d="m9 16h39v1h-39v4l-9-4.5 9-4.5z" transform="translate(468.97 331.02)"/><g id="g14875"><rect id="rect11641" width="106" height="33" fill="#f44d27" fill-rule="evenodd" transform="matrix(1.0377 0 0 1 497.94 331.02)"/><text id="text11645" fill="#979797" fill-rule="evenodd" font-family="Source Code Pro" font-size="12" font-weight="700" text-anchor="middle" transform="translate(501.1 332.32)"><tspan id="tspan11643" x="53" y="20" fill="#f0f0f0">master</tspan></text></g></g><g id="g14811"><path id="Line-6" fill="#8f8981" d="m9 16h38v1h-38v4l-9-4.5 9-4.5z" transform="translate(350.9 231.01)"/><g id="g14774" transform="translate(-7.0404 .00839)"><rect id="rect11651" width="111" height="33" fill="#f44d27" fill-rule="evenodd" transform="matrix(.99099 0 0 1 387 231)"/><text id="text11655" fill="#979797" fill-rule="evenodd" font-family="Source Code Pro" font-size="12" font-weight="700" text-anchor="middle" transform="translate(386.52 230.8)"><tspan id="tspan11653" x="55.5" y="20" fill="#f0f0f0">teamone/master</tspan></text></g></g></g><text id="My-Computer" fill="#404040" fill-rule="evenodd" font-family="Source Code Pro" font-size="12" font-weight="700" text-anchor="middle" transform="translate(15.964)"><tspan id="tspan11659" x="299.738" y="219" fill="#404040">My Computer</tspan></text><text id="git.team1.ourcompany" fill="#404040" fill-rule="evenodd" font-family="Source Code Pro" font-size="12" font-weight="700" text-anchor="middle" transform="translate(15.844)"><tspan id="tspan11662" x="299.738" y="36" fill="#404040">git.team1.ourcompany.com</tspan></text></g></g></svg>