<svg xmlns="http://www.w3.org/2000/svg" id="svg12456" version="1.1" viewBox="0 0 752 374"><metadata id="metadata12462"/><title id="title12321">images/perils-of-rebasing-5</title><desc id="desc12323">Created with Sketch.</desc><rect id="Rectangle-10" width="743" height="151" x="16" y="17" fill="none" stroke="#8f8981" stroke-linecap="square" transform="translate(-11.5,-12.5)"/><polygon id="Rectangle-11" fill="none" stroke="#8f8981" stroke-linecap="square" points="758.89 382 758.89 198 16 198 16 382" transform="translate(-11.444 -12.5)"/><g id="g2497" transform="translate(-10.777 -12.5)"><g id="brown" fill="none" fill-rule="evenodd" transform="translate(36.964 107.02)"><rect id="Rectangle-1" width="89" height="33" fill="#efefe7" fill-rule="evenodd" rx="16.5" ry="16.5"/><text id="C6" fill="#979797" font-family="Source Code Pro" font-size="12" font-weight="700" text-anchor="middle"><tspan id="tspan12328" x="44.5" y="21" fill="gray">C1</tspan></text></g><g id="g2459"><path id="Line-2" fill="#8f8981" d="m9 16h38v1h-38v4l-9-4.5 9-4.5z" transform="translate(361.7 56.014)"/><g id="ref" fill="none" fill-rule="evenodd" transform="translate(390.71 56.014)"><rect id="Rectangle-2" width="106" height="33" fill="#f44d27" fill-rule="evenodd"/><text id="master" fill="#979797" font-family="Source Code Pro" font-size="12" font-weight="700" text-anchor="middle"><tspan id="tspan12334" x="53" y="20" fill="#f0f0f0">master</tspan></text></g></g><g id="g2295"><path id="Line-4" fill="#8f8981" d="m9 16h39v1h-39v4l-9-4.5 9-4.5z" transform="translate(243.79 56.014)"/><g id="g12354" fill="none" fill-rule="evenodd" transform="translate(272.75 56.014)"><rect id="rect12348" width="89" height="33" fill="#efefe7" fill-rule="evenodd" rx="16.5" ry="16.5"/><text id="text12352" fill="#979797" font-family="Source Code Pro" font-size="12" font-weight="700" text-anchor="middle"><tspan id="tspan12350" x="44.5" y="21" fill="gray">C4&apos;</tspan></text></g></g><g id="g2302"><path id="Line-11" fill="#8f8981" d="m137.93 106.92 45.659-35.122.60971.79262-45.659 35.122 2.4388 3.1705-9.8773 1.9206 4.3899-9.0542z" transform="translate(-8.9118 .412)"/><g id="g12394" fill="none" fill-rule="evenodd" transform="translate(154.83 56.014)"><rect id="rect12388" width="89" height="33" fill="#efefe7" fill-rule="evenodd" rx="16.5" ry="16.5"/><text id="text12392" fill="#979797" font-family="Source Code Pro" font-size="12" font-weight="700" text-anchor="middle"><tspan id="tspan12390" x="44.5" y="21" fill="gray">C5</tspan></text></g></g><g id="g2332" opacity=".5"><g id="g2283"><path id="path12396" fill="#8f8981" d="m9 16h39v1h-39v4l-9-4.5 9-4.5z" transform="translate(125.96 107.02)"/><g id="g12404" fill="none" fill-rule="evenodd" transform="translate(154.83 107.02)"><rect id="rect12398" width="89" height="33" fill="#efefe7" fill-rule="evenodd" rx="16.5" ry="16.5"/><text id="text12402" fill="#979797" font-family="Source Code Pro" font-size="12" font-weight="700" text-anchor="middle"><tspan id="tspan12400" x="44.5" y="21" fill="gray">C4</tspan></text></g></g><g id="g2317"><path id="Line-7" fill="#8f8981" d="m119.37 5.5236 33.829 27.909-.63639.77137-33.829-27.909-2.5455 3.0855-4.0786-9.1986 9.8061 2.2563z" transform="translate(127.88 82.828)"/><path id="path12408" fill="#8f8981" d="m9 16h39v1h-39v4l-9-4.5 9-4.5z" transform="translate(243.79 107.02)"/><g id="g12416" fill="none" fill-rule="evenodd" transform="translate(272.75 107.02)"><rect id="rect12410" width="89" height="33" fill="#efefe7" fill-rule="evenodd" rx="16.5" ry="16.5"/><text id="text12414" fill="#979797" font-family="Source Code Pro" font-size="12" font-weight="700" text-anchor="middle"><tspan id="tspan12412" x="44.5" y="21" fill="gray">C6</tspan></text></g></g></g></g><path id="Line-6" fill="#8f8981" d="m55 48v-27.014h1v27.014h4l-4.5 9-4.5-9z" transform="translate(257.25 227.5)"/><g id="g2373" transform="translate(-10.813 -12.5)"><g id="g2191"><rect id="rect12339" width="89" height="33" fill="#efefe7" fill-rule="evenodd" rx="16.5" ry="16.5" transform="translate(37,297)"/><text id="text12343" fill="#979797" fill-rule="evenodd" font-family="Source Code Pro" font-size="12" font-weight="700" text-anchor="middle" transform="translate(37.028 296.41)"><tspan id="tspan12341" x="44.5" y="21" fill="gray">C1</tspan></text></g><g id="g2247"><path id="path12357" fill="#8f8981" d="m9 17h39v1h-39v4l-9-4.5 9-4.5z" transform="translate(243.75 295.99)"/><g id="g2161"><rect id="rect12359" width="89" height="33" fill="#efefe7" fill-rule="evenodd" rx="16.5" ry="16.5" transform="translate(272.75 296.99)"/><text id="text12363" fill="#979797" fill-rule="evenodd" font-family="Source Code Pro" font-size="12" font-weight="700" text-anchor="middle" transform="translate(273.71 296.53)"><tspan id="tspan12361" x="44.5" y="21" fill="gray">C4&apos;</tspan></text></g></g><g id="g2153"><path id="Line-5" fill="#8f8981" d="m124 16h39v1h-39v4l-9-4.5 9-4.5z" transform="translate(246.75 296.99)"/><g id="g2145"><g id="g2135" fill="none" transform="translate(390.71 296.99)"><rect id="rect12368" width="89" height="33" fill="#efefe7" fill-rule="evenodd" rx="16.5" ry="16.5"/></g><text id="text12372" fill="#979797" fill-rule="evenodd" font-family="Source Code Pro" font-size="12" font-weight="700" text-anchor="middle" transform="translate(391.67 296.53)"><tspan id="tspan12370" x="44.5" y="21" fill="gray">C2&apos;</tspan></text></g></g><g id="g2132"><path id="path12376" fill="#8f8981" d="m239 16h39v1h-39v4l-9-4.5 9-4.5z" transform="translate(249.74 296.99)"/><g id="g12384" fill="none" fill-rule="evenodd" transform="translate(508.7 296.99)"><rect id="rect12378" width="89" height="33" fill="#efefe7" fill-rule="evenodd" rx="16.5" ry="16.5"/><text id="text12382" fill="#979797" font-family="Source Code Pro" font-size="12" font-weight="700" text-anchor="middle"><tspan id="tspan12380" x="44.5" y="21" fill="gray">C3&apos;</tspan></text></g></g><g id="g2183"><path id="Line-9" fill="#8f8981" d="m140 313h46.918v1h-46.918v4l-9-4.5 9-4.5z" transform="translate(-5 -.00811)"/><g id="g2176"><rect id="rect12421" width="89" height="33" fill="#efefe7" fill-rule="evenodd" rx="16.5" ry="16.5" transform="translate(154.83 296.99)"/><text id="text12425" fill="#979797" fill-rule="evenodd" font-family="Source Code Pro" font-size="12" font-weight="700" text-anchor="middle" transform="translate(154.91 296.4)"><tspan id="tspan12423" x="44.5" y="21" fill="gray">C5</tspan></text></g></g><g id="g2215"><path id="path12429" fill="#8f8981" d="m9 16h39v1h-39v4l-9-4.5 9-4.5z" transform="translate(597.7,297)"/><g id="g2208" transform="translate(-1.3732 -.00811)"><rect id="rect12431" width="106" height="33" fill="#f44d27" fill-rule="evenodd" transform="matrix(1.0377 0 0 1 628 297)"/><text id="text12435" fill="#979797" fill-rule="evenodd" font-family="Source Code Pro" font-size="12" font-weight="700" text-anchor="middle" transform="translate(630.1 297.32)"><tspan id="tspan12433" x="53" y="20" fill="#f0f0f0">master</tspan></text></g></g><g id="g2228" transform="translate(-1.7488 6)"><rect id="rect12441" width="111" height="33" fill="#f44d27" fill-rule="evenodd" transform="matrix(.99099 0 0 1 264 240)"/><text id="text12445" fill="#979797" fill-rule="evenodd" font-family="Source Code Pro" font-size="12" font-weight="700" text-anchor="middle" transform="translate(263.52 239.8)"><tspan id="tspan12443" x="55.5" y="20" fill="#f0f0f0">teamone/master</tspan></text></g></g><text id="My-Computer" fill="#404040" fill-rule="evenodd" font-family="Source Code Pro" font-size="12" font-weight="700" text-anchor="middle" transform="translate(4.4625 -12.5)"><tspan id="tspan12449" x="371.5" y="219" fill="#404040">My Computer</tspan></text><text id="git.team1.ourcompany" fill="#404040" fill-rule="evenodd" font-family="Source Code Pro" font-size="12" font-weight="700" text-anchor="middle" transform="translate(4.3417 -12.5)"><tspan id="tspan12452" x="371.5" y="36" fill="#404040">git.team1.ourcompany.com</tspan></text></svg>