<svg xmlns="http://www.w3.org/2000/svg" id="svg12162" version="1.1" viewBox="0 0 734.89 374"><metadata id="metadata12168"/><title id="title11980">images/perils-of-rebasing-4</title><desc id="desc11982">Created with Sketch.</desc><g id="g1816" transform="translate(-11.5,-12.5)"><rect id="Rectangle-10" width="725.89" height="151" x="16" y="17" fill="none" stroke="#8f8981" stroke-linecap="square"/><rect id="Rectangle-11" width="725.89" height="184" x="16" y="198" fill="none" stroke="#8f8981" stroke-linecap="square"/><g id="g1633" transform="translate(-7.9999)"><g id="brown" fill="none" fill-rule="evenodd" transform="translate(37,117.1)"><rect id="Rectangle-1" width="89" height="33" fill="#efefe7" fill-rule="evenodd" rx="16.5" ry="16.5"/><text id="C6" fill="#979797" font-family="Source Code Pro" font-size="12" font-weight="700" text-anchor="middle"><tspan id="tspan11989" x="44.5" y="21" fill="gray">C1</tspan></text></g><path id="Line-2" fill="#8f8981" d="m9 16h38v1h-38v4l-9-4.5 9-4.5z" transform="translate(362,66.1)"/><g id="g1173" transform="translate(-14,10.1)"><rect id="Rectangle-2" width="106" height="33" fill="#f44d27" fill-rule="evenodd" transform="matrix(1.0377 0 0 1 405 56)"/><text id="master" fill="#979797" fill-rule="evenodd" font-family="Source Code Pro" font-size="12" font-weight="700" text-anchor="middle" transform="translate(407.1 56.316)"><tspan id="tspan11995" x="53" y="20" fill="#f0f0f0">master</tspan></text></g><g id="g1584"><path id="path12049" fill="#8f8981" d="m9 16h39v1h-39v4l-9-4.5 9-4.5z" transform="translate(244 66.07)"/><g id="g12057" fill="none" fill-rule="evenodd" transform="translate(273.02 66.07)"><rect id="rect12051" width="89" height="33" fill="#efefe7" fill-rule="evenodd" rx="16.5" ry="16.5"/><text id="text12055" fill="#979797" font-family="Source Code Pro" font-size="12" font-weight="700" text-anchor="middle"><tspan id="tspan12053" x="44.5" y="21" fill="gray">C4&apos;</tspan></text></g></g><g id="g1572"><path id="Line-11" fill="#8f8981" d="m137.93 106.92 45.659-35.122.60971.79262-45.659 35.122 2.4388 3.1705-9.8773 1.9206 4.3899-9.0542 2.4388 3.1705z" transform="translate(-8.9562 10.287)"/></g><g id="g12078" fill="none" fill-rule="evenodd" transform="translate(155,66.1)"><rect id="rect12072" width="89" height="33" fill="#efefe7" fill-rule="evenodd" rx="16.5" ry="16.5"/><text id="text12076" fill="#979797" font-family="Source Code Pro" font-size="12" font-weight="700" text-anchor="middle"><tspan id="tspan12074" x="44.5" y="21" fill="gray">C5</tspan></text></g><g id="g1569" opacity=".5"><g id="g1554"><path id="path12080" fill="#8f8981" d="m9 16h39v1h-39v4l-9-4.5 9-4.5z" transform="translate(125.9 117.1)"/><g id="g12088" fill="none" fill-rule="evenodd" transform="translate(155.02 117.1)"><rect id="rect12082" width="89" height="33" fill="#efefe7" fill-rule="evenodd" rx="16.5" ry="16.5"/><text id="text12086" fill="#979797" font-family="Source Code Pro" font-size="12" font-weight="700" text-anchor="middle"><tspan id="tspan12084" x="44.5" y="21" fill="gray">C4</tspan></text></g></g><g id="g1547"><path id="Line-7" fill="#8f8981" d="m119.37 5.5236 33.829 27.909-.63638.77137-33.829-27.909-2.5455 3.0855-4.0786-9.1986 9.8061 2.2563-2.5455 3.0855z" transform="translate(128.16 92.646)"/><path id="path12092" fill="#8f8981" d="m9 16h39v1h-39v4l-9-4.5 9-4.5z" transform="translate(244.1,117.1)"/><g id="g12100" fill="none" fill-rule="evenodd" transform="translate(273,117.1)"><rect id="rect12094" width="89" height="33" fill="#efefe7" fill-rule="evenodd" rx="16.5" ry="16.5"/><text id="text12098" fill="#979797" font-family="Source Code Pro" font-size="12" font-weight="700" text-anchor="middle"><tspan id="tspan12096" x="44.5" y="21" fill="gray">C6</tspan></text></g></g></g></g><g id="g1703" transform="translate(-8.0785)"><g id="g12006" fill="none" fill-rule="evenodd" transform="translate(37.079 282)"><rect id="rect12000" width="89" height="33" fill="#efefe7" fill-rule="evenodd" rx="16.5" ry="16.5"/><text id="text12004" fill="#979797" font-family="Source Code Pro" font-size="12" font-weight="700" text-anchor="middle"><tspan id="tspan12002" x="44.5" y="21" fill="gray">C1</tspan></text></g><g id="g1386"><path id="Line-3" fill="#8f8981" d="m136.64 314.15 35.563 26.249-.59385.80457-35.563-26.249-2.3754 3.2183-4.5688-8.9653 9.9135 1.7241z" transform="translate(-6.9593 -.14305)"/><g id="g12015" fill="none" fill-rule="evenodd" transform="translate(154.97 333)"><rect id="rect12009" width="89" height="33" fill="#efefe7" fill-rule="evenodd" rx="16.5" ry="16.5"/><text id="text12013" fill="#979797" font-family="Source Code Pro" font-size="12" font-weight="700" text-anchor="middle"><tspan id="tspan12011" x="44.5" y="21" fill="gray">C2</tspan></text></g></g><g id="g1379"><path id="Line-4" fill="#8f8981" d="m9 16h39v1h-39v4l-9-4.5 9-4.5z" transform="translate(243.92 333)"/><g id="g12024" fill="none" fill-rule="evenodd" transform="translate(273.02 333)"><rect id="rect12018" width="89" height="33" fill="#efefe7" fill-rule="evenodd" rx="16.5" ry="16.5"/><text id="text12022" fill="#979797" font-family="Source Code Pro" font-size="12" font-weight="700" text-anchor="middle"><tspan id="tspan12020" x="44.5" y="21" fill="gray">C3</tspan></text></g></g><g id="g1427"><path id="Line-10" fill="#8f8981" d="m370.37 315.52 33.829 27.909-.63639.77138-33.829-27.909-2.5455 3.0855-4.0786-9.1986 9.8061 2.2563z" transform="translate(-4.8771 -1.3)"/><path id="path12027" fill="#8f8981" d="m9 16h39v1h-39v4l-9-4.5 9-4.5z" transform="translate(362 333)"/><g id="g12035" fill="none" fill-rule="evenodd" transform="translate(390.99 333)"><rect id="rect12029" width="89" height="33" fill="#efefe7" fill-rule="evenodd" rx="16.5" ry="16.5"/><text id="text12033" fill="#979797" font-family="Source Code Pro" font-size="12" font-weight="700" text-anchor="middle"><tspan id="tspan12031" x="44.5" y="21" fill="gray">C7</tspan></text></g></g><g id="g1419"><path id="Line-12" fill="#8f8981" d="m372.15 262.23 153.03 86.078-.49026.87158-153.03-86.078-1.961 3.4863-5.638-8.3344 10.05.49026z" transform="translate(-5.8284 -.4)"/><path id="path12038" fill="#8f8981" d="m9 16h39v1h-39v4l-9-4.5 9-4.5z" transform="translate(480 333)"/><g id="g1394"><rect id="rect12040" width="89" height="38" fill="#efefe7" fill-rule="evenodd" rx="19" ry="21.879" transform="matrix(1 0 0 .86842 508.98 333)"/><text id="text12044" fill="#979797" fill-rule="evenodd" font-family="Source Code Pro" font-size="12" font-weight="700" text-anchor="middle" transform="translate(509.01 330.9)"><tspan id="tspan12042" x="44.5" y="22.515" fill="gray">C8</tspan></text></g></g><g id="g1465"><path id="path12060" fill="#8f8981" d="m9 16h39v1h-39v4l-9-4.5 9-4.5z" transform="translate(244 230.98)"/><g id="g12068" fill="none" fill-rule="evenodd" transform="translate(273.02 230.98)"><rect id="rect12062" width="89" height="33" fill="#efefe7" fill-rule="evenodd" rx="16.5" ry="16.5"/><text id="text12066" fill="#979797" font-family="Source Code Pro" font-size="12" font-weight="700" text-anchor="middle"><tspan id="tspan12064" x="44.5" y="21" fill="gray">C4&apos;</tspan></text></g></g><g id="g1434"><path id="path12104" fill="#8f8981" d="m9 16h39v1h-39v4l-9-4.5 9-4.5z" transform="translate(126,282)"/><g id="g12112" fill="none" fill-rule="evenodd" transform="translate(155,282)"><rect id="rect12106" width="89" height="33" fill="#efefe7" fill-rule="evenodd" rx="16.5" ry="16.5"/><text id="text12110" fill="#979797" font-family="Source Code Pro" font-size="12" font-weight="700" text-anchor="middle"><tspan id="tspan12108" x="44.5" y="21" fill="gray">C4</tspan></text></g></g><path id="Line-8" fill="#8f8981" d="m253.37 264.52 33.829 27.909-.63639.77138-33.829-27.909-2.5455 3.0855-4.0786-9.1986 9.8061 2.2563z" transform="translate(-5.8583 -1.277)"/><g id="g1472"><path id="Line-9" fill="#8f8981" d="m135.93 281.92 45.659-35.122.60971.79263-45.659 35.122 2.4388 3.1705-9.8773 1.9206 4.3899-9.0542z" transform="translate(-6.9657 .17967)"/><g id="g12123" fill="none" fill-rule="evenodd" transform="translate(154.97 230.98)"><rect id="rect12117" width="89" height="33" fill="#efefe7" fill-rule="evenodd" rx="16.5" ry="16.5"/><text id="text12121" fill="#979797" font-family="Source Code Pro" font-size="12" font-weight="700" text-anchor="middle"><tspan id="tspan12119" x="44.5" y="21" fill="gray">C5</tspan></text></g></g><g id="g1453"><path id="path12125" fill="#8f8981" d="m9 16h39v1h-39v4l-9-4.5 9-4.5z" transform="translate(244 282)"/><g id="g12133" fill="none" fill-rule="evenodd" transform="translate(273.02 282)"><rect id="rect12127" width="89" height="33" fill="#efefe7" fill-rule="evenodd" rx="16.5" ry="16.5"/><text id="text12131" fill="#979797" font-family="Source Code Pro" font-size="12" font-weight="700" text-anchor="middle"><tspan id="tspan12129" x="44.5" y="21" fill="gray">C6</tspan></text></g></g><g id="g1411"><path id="Line-5" fill="#8f8981" d="m9 16h39v1h-39v4l-9-4.5 9-4.5z" transform="translate(598,332)"/><g id="g1404"><rect id="rect12137" width="106" height="33" fill="#f44d27" fill-rule="evenodd" transform="matrix(1.0377 0 0 1 626.97 333)"/><text id="text12141" fill="#979797" fill-rule="evenodd" font-family="Source Code Pro" font-size="12" font-weight="700" text-anchor="middle" transform="translate(629.07 333.32)"><tspan id="tspan12139" x="53" y="20" fill="#f0f0f0">master</tspan></text></g></g><g id="g1497"><path id="Line-6" fill="#8f8981" d="m9 16h38v1h-38v4l-9-4.5 9-4.5z" transform="translate(362,231)"/><g id="g1489"><g id="g1160" transform="translate(-7)"><rect id="rect12147" width="111" height="33" fill="#f44d27" fill-rule="evenodd" transform="matrix(.99099 0 0 1 398 231)"/></g><text id="text12151" fill="#979797" fill-rule="evenodd" font-family="Source Code Pro" font-size="12" font-weight="700" text-anchor="middle" transform="translate(390.52 230.8)"><tspan id="tspan12149" x="55.5" y="20" fill="#f0f0f0">teamone/master</tspan></text></g></g></g><text id="My-Computer" fill="#404040" fill-rule="evenodd" font-family="Source Code Pro" font-size="12" font-weight="700" text-anchor="middle" transform="translate(15.961)"><tspan id="tspan12155" x="362.945" y="219" fill="#404040">My Computer</tspan></text><text id="git.team1.ourcompany" fill="#404040" fill-rule="evenodd" font-family="Source Code Pro" font-size="12" font-weight="700" text-anchor="middle" transform="translate(15.841)"><tspan id="tspan12158" x="362.945" y="36" fill="#404040">git.team1.ourcompany.com</tspan></text></g></svg>