<svg xmlns="http://www.w3.org/2000/svg" id="svg10619" version="1.1" viewBox="0 0 608.48 374"><metadata id="metadata10625"/><title id="title10471">images/perils-of-rebasing-2</title><desc id="desc10473">Created with Sketch.</desc><g id="g13646" transform="translate(-11.5,-12.5)"><rect id="Rectangle-10" width="599.48" height="151" x="16" y="17" fill="none" stroke="#8f8981" stroke-linecap="square"/><rect id="Rectangle-11" width="599.48" height="184" x="16" y="198" fill="none" stroke="#8f8981" stroke-linecap="square"/><g id="g13560" transform="translate(-1.41)"><g id="brown" fill="none" fill-rule="evenodd" transform="translate(26.1,107)"><rect id="Rectangle-1" width="89" height="33" fill="#efefe7" fill-rule="evenodd" rx="16.5" ry="16.5"/><text id="C6" fill="#979797" font-family="Source Code Pro" font-size="12" font-weight="700" text-anchor="middle"><tspan id="tspan10479" x="44.5" y="21" fill="gray">C1</tspan></text></g><path id="Line-2" fill="#8f8981" d="m9 16h38v1h-38v4l-9-4.5 9-4.5z" transform="translate(351.4,107)"/><rect id="Rectangle-2" width="106" height="33" fill="#f44d27" fill-rule="evenodd" transform="matrix(1.0377 0 0 1 380.3 107)"/><text id="master" fill="#979797" fill-rule="evenodd" font-family="Source Code Pro" font-size="12" font-weight="700" text-anchor="middle" transform="translate(381 107.32)"><tspan id="tspan10485" x="53" y="20" fill="#f0f0f0">master</tspan></text><path id="path10528" fill="#8f8981" d="m9 16h39v1h-39v4l-9-4.5 9-4.5z" transform="translate(115.2,107)"/><g id="g10536" fill="none" fill-rule="evenodd" transform="translate(144.2,107)"><rect id="rect10530" width="89" height="33" fill="#efefe7" fill-rule="evenodd" rx="16.5" ry="16.5"/><text id="text10534" fill="#979797" font-family="Source Code Pro" font-size="12" font-weight="700" text-anchor="middle"><tspan id="tspan10532" x="44.5" y="21" fill="gray">C4</tspan></text></g><path id="path10539" fill="#8f8981" d="m137.93 106.92 45.659-35.122.60971.79262-45.659 35.122 2.4388 3.1705-9.8773 1.9206 4.3899-9.0542 2.4388 3.1705z" transform="translate(-19.7 .4)"/><path id="Line-7" fill="#8f8981" d="m255.37 89.524 33.829 27.909-.63638.77137-33.829-27.909-2.5455 3.0855-4.0786-9.1986 9.8061 2.2563-2.5455 3.0855z" transform="translate(-19.8)"/><g id="g10548" fill="none" fill-rule="evenodd" transform="translate(144.38 56.995)"><rect id="rect10542" width="89" height="33" fill="#efefe7" fill-rule="evenodd" rx="16.5" ry="16.5"/><text id="text10546" fill="#979797" font-family="Source Code Pro" font-size="12" font-weight="700" text-anchor="middle"><tspan id="tspan10544" x="44.5" y="21" fill="gray">C5</tspan></text></g><path id="path10550" fill="#8f8981" d="m9 16h39v1h-39v4l-9-4.5 9-4.5z" transform="translate(233.2,107)"/><g id="g10558" fill="none" fill-rule="evenodd" transform="translate(262.4,107)"><rect id="rect10552" width="89" height="33" fill="#efefe7" fill-rule="evenodd" rx="16.5" ry="16.5"/><text id="text10556" fill="#979797" font-family="Source Code Pro" font-size="12" font-weight="700" text-anchor="middle"><tspan id="tspan10554" x="44.5" y="21" fill="gray">C6</tspan></text></g></g><text id="My-Computer" fill="#404040" fill-rule="evenodd" font-family="Source Code Pro" font-size="12" font-weight="700" text-anchor="middle" transform="translate(15.964)"><tspan id="tspan10612" x="299.738" y="219" fill="#404040">My Computer</tspan></text><text id="git.team1.ourcompany" fill="#404040" fill-rule="evenodd" font-family="Source Code Pro" font-size="12" font-weight="700" text-anchor="middle" transform="translate(15.844)"><tspan id="tspan10615" x="299.738" y="36" fill="#404040">git.team1.ourcompany.com</tspan></text><g id="g13534" transform="translate(-1.55)"><g id="g10496" fill="none" fill-rule="evenodd" transform="translate(26.24 282)"><rect id="rect10490" width="89" height="33" fill="#efefe7" fill-rule="evenodd" rx="16.5" ry="16.5"/><text id="text10494" fill="#979797" font-family="Source Code Pro" font-size="12" font-weight="700" text-anchor="middle"><tspan id="tspan10492" x="44.5" y="21" fill="gray">C1</tspan></text></g><path id="Line-4" fill="#8f8981" d="m9 16h39v1h-39v4l-9-4.5 9-4.5z" transform="translate(233.34 332)"/><g id="g10514" fill="none" fill-rule="evenodd" transform="translate(262.34 332)"><rect id="rect10508" width="89" height="33" fill="#efefe7" fill-rule="evenodd" rx="16.5" ry="16.5"/><text id="text10512" fill="#979797" font-family="Source Code Pro" font-size="12" font-weight="700" text-anchor="middle"><tspan id="tspan10510" x="44.5" y="21" fill="gray">C3</tspan></text></g><path id="Line-8-3" fill="#8f8981" d="m253.37 264.52 33.829 27.909-.63639.77138-33.829-27.909-2.5455 3.0855-4.0786-9.1986 9.8061 2.2563z" transform="translate(101.48 49.716)"/><g id="g13465"><path id="path10517" fill="#8f8981" d="m9 16h39v1h-39v4l-9-4.5 9-4.5z" transform="translate(351.34 332)"/><g id="g10525" fill="none" fill-rule="evenodd" transform="translate(380.34 332)"><rect id="rect10519" width="89" height="33" fill="#efefe7" fill-rule="evenodd" rx="16.5" ry="16.5"/><text id="text10523" fill="#979797" font-family="Source Code Pro" font-size="12" font-weight="700" text-anchor="middle"><tspan id="tspan10521" x="44.5" y="21" fill="gray">C7</tspan></text></g></g><g id="g13389"><path id="path10561" fill="#8f8981" d="m9 16h39v1h-39v4l-9-4.5 9-4.5z" transform="translate(115.2 282.05)"/><g id="g10569" fill="none" fill-rule="evenodd" transform="translate(144.34 282.05)"><rect id="rect10563" width="89" height="33" fill="#efefe7" fill-rule="evenodd" rx="16.5" ry="16.5"/><text id="text10567" fill="#979797" font-family="Source Code Pro" font-size="12" font-weight="700" text-anchor="middle"><tspan id="tspan10565" x="44.5" y="21" fill="gray">C4</tspan></text></g></g><path id="Line-8" fill="#8f8981" d="m253.37 264.52 33.829 27.909-.63639.77138-33.829-27.909-2.5455 3.0855-4.0786-9.1986 9.8061 2.2563z" transform="translate(-16.596 -.3024)"/><g id="g13403"><path id="Line-9" fill="#8f8981" d="m135.93 281.92 45.659-35.122.60971.79263-45.659 35.122 2.4388 3.1705-9.8773 1.9206 4.3899-9.0542z" transform="translate(-17.66 .25561)"/><g id="g10580" fill="none" fill-rule="evenodd" transform="translate(144.44 231.9)"><rect id="rect10574" width="89" height="33" fill="#efefe7" fill-rule="evenodd" rx="16.5" ry="16.5"/><text id="text10578" fill="#979797" font-family="Source Code Pro" font-size="12" font-weight="700" text-anchor="middle"><tspan id="tspan10576" x="44.5" y="21" fill="gray">C5</tspan></text></g></g><g id="g13410"><path id="path10582" fill="#8f8981" d="m9 16h39v1h-39v4l-9-4.5 9-4.5z" transform="translate(233.34 282)"/><g id="g10590" fill="none" fill-rule="evenodd" transform="translate(262.34 282)"><rect id="rect10584" width="89" height="33" fill="#efefe7" fill-rule="evenodd" rx="16.5" ry="16.5"/><text id="text10588" fill="#979797" font-family="Source Code Pro" font-size="12" font-weight="700" text-anchor="middle"><tspan id="tspan10586" x="44.5" y="21" fill="gray">C6</tspan></text></g></g><g id="g13476"><path id="Line-5" fill="#8f8981" d="m9 16h39v1h-39v4l-9-4.5 9-4.5z" transform="translate(469.34 332)"/><rect id="rect10594" width="106" height="33" fill="#f44d27" fill-rule="evenodd" transform="matrix(1.0377 0 0 1 498.34 332)"/></g><text id="text10598" fill="#979797" fill-rule="evenodd" font-family="Source Code Pro" font-size="12" font-weight="700" text-anchor="middle" transform="translate(498.94 332.32)"><tspan id="tspan10596" x="53" y="20" fill="#f0f0f0">master</tspan></text><g id="g13472"><path id="Line-6" fill="#8f8981" d="m9 16h38v1h-38v4l-9-4.5 9-4.5z" transform="translate(351.34 282)"/><g id="g13325" transform="translate(1.4)"><rect id="rect10604" width="111" height="33" fill="#f44d27" fill-rule="evenodd" transform="matrix(.99099 0 0 1 378.94 282)"/><text id="text10608" fill="#979797" fill-rule="evenodd" font-family="Source Code Pro" font-size="12" font-weight="700" text-anchor="middle" transform="translate(378.46 281.8)"><tspan id="tspan10606" x="55.5" y="20" fill="#f0f0f0">teamone/master</tspan></text></g></g><g id="g13437"><path id="Line-9-6" fill="#8f8981" d="m135.93 281.92 45.659-35.122.60971.79263-45.659 35.122 2.4388 3.1705-9.8773 1.9206 4.3899-9.0542z" transform="matrix(1 0 0 -1 -17.688 596.91)"/><g id="g10505" fill="none" fill-rule="evenodd" transform="translate(144.34 332)"><rect id="rect10499" width="89" height="33" fill="#efefe7" fill-rule="evenodd" rx="16.5" ry="16.5"/><text id="text10503" fill="#979797" font-family="Source Code Pro" font-size="12" font-weight="700" text-anchor="middle"><tspan id="tspan10501" x="44.5" y="21" fill="gray">C2</tspan></text></g></g></g></g></svg>