<svg xmlns="http://www.w3.org/2000/svg" id="svg4078" version="1.1" viewBox="0 0 691.75 177.46"><metadata id="metadata4084"/><defs id="defs4082"><marker id="TriangleInL" orient="auto" overflow="visible"><path id="path4557" fill="gray" fill-rule="evenodd" stroke="gray" stroke-width="1pt" d="m5.77 0-8.65 5v-10z" transform="scale(-.8)"/></marker></defs><title id="title3957">images/public-small-3</title><desc id="desc3959">Created with Sketch.</desc><g id="g7391" transform="translate(-1 -13.97)"><g id="g7484"><g id="brown" fill="none" fill-rule="evenodd" transform="translate(5,74)"><rect id="Rectangle-1" width="89" height="33" fill="#efefe7" fill-rule="evenodd" rx="16.5" ry="16.5"/><text id="C6" fill="#979797" font-family="Source Code Pro" font-size="12" font-weight="700" text-anchor="middle"><tspan id="tspan3962" x="44.5" y="21" fill="gray">4b078</tspan></text></g><g id="g7267"><path id="Line-4" fill="#8f8981" d="m103 90h45v1h-45v4l-9-4.5 9-4.5z"/><g id="g3973" fill="none" fill-rule="evenodd" transform="translate(124,74)"><rect id="rect3967" width="89" height="33" fill="#efefe7" fill-rule="evenodd" rx="16.5" ry="16.5"/><text id="text3971" fill="#979797" font-family="Source Code Pro" font-size="12" font-weight="700" text-anchor="middle"><tspan id="tspan3969" x="44.5" y="21" fill="gray">1edee</tspan></text></g></g><g id="g7260"><path id="Line" fill="#8f8981" d="m9 16h45v1h-45v4l-9-4.5 9-4.5z" transform="translate(213,74)"/><g id="g3982" fill="none" fill-rule="evenodd" transform="translate(242.8,74)"><rect id="rect3976" width="89" height="33" fill="#efefe7" fill-rule="evenodd" rx="16.5" ry="16.5"/><text id="text3980" fill="#979797" font-family="Source Code Pro" font-size="12" font-weight="700" text-anchor="middle"><tspan id="tspan3978" x="44.5" y="21" fill="gray">33009</tspan></text></g></g><g id="g4359"><path id="Line-5" fill="#8f8981" d="m9 16h45v1h-45v4l-9-4.5 9-4.5z" transform="translate(450.74 98.6)"/><g id="g3992" fill="none" fill-rule="evenodd" transform="translate(480.64 98.6)"><rect id="rect3986" width="89" height="33" fill="#efefe7" fill-rule="evenodd" rx="16.5" ry="16.5"/><text id="text3990" fill="#979797" font-family="Source Code Pro" font-size="12" font-weight="700" text-anchor="middle"><tspan id="tspan3988" x="44.5" y="21" fill="gray">5399e</tspan></text></g></g><g id="g7253"><path id="Line-3-7" fill="#8f8981" d="m335.93 105.65 31.869 20.191-.53782.84306-31.869-20.191-2.1513 3.3722-5.1674-8.6341 10.008 1.0466z" transform="matrix(.99464 .10344 .10344 -.99464 -7.2709 148.91)"/><g id="g4003" fill="none" fill-rule="evenodd" transform="translate(361.74 49.163)"><rect id="rect3997" width="89" height="33" fill="#efefe7" fill-rule="evenodd" rx="16.5" ry="16.5"/><text id="text4001" fill="#979797" font-family="Source Code Pro" font-size="12" font-weight="700" text-anchor="middle"><tspan id="tspan3999" x="44.5" y="21" fill="gray">17f4d</tspan></text></g></g><g id="g7280"><path id="path4402" fill="none" stroke="gray" stroke-width="1" marker-start="url(#TriangleInL)" d="m153.96 109.68s3.8468 27.967 21.557 41.965c17.711 13.998 54.767 16.648 54.767 16.648" transform="translate(15.193 2.7782)"/><g id="g4013" fill="none" fill-rule="evenodd" transform="translate(242.8 154.43)"><rect id="rect4007" width="89" height="33" fill="#efefe7" fill-rule="evenodd" rx="16.5" ry="16.5"/><text id="text4011" fill="#979797" font-family="Source Code Pro" font-size="12" font-weight="700" text-anchor="middle"><tspan id="tspan4009" x="44.5" y="21" fill="gray">e5b0f</tspan></text></g></g><g id="g7246"><path id="Line-3-7-0" fill="#8f8981" d="m335.93 105.65 31.869 20.191-.53782.84306-31.869-20.191-2.1513 3.3722-5.1674-8.6341 10.008 1.0466z" transform="rotate(-5.9375 302.86 84.079)"/><g id="g4022" fill="none" fill-rule="evenodd" transform="translate(361.74 98.5)"><rect id="rect4016" width="89" height="33" fill="#efefe7" fill-rule="evenodd" rx="16.5" ry="16.5"/><text id="text4020" fill="#979797" font-family="Source Code Pro" font-size="12" font-weight="700" text-anchor="middle"><tspan id="tspan4018" x="44.5" y="21" fill="gray">dee6b</tspan></text></g></g><g id="g7404"><path id="Line-2" fill="#8f8981" d="m57 52v-43h1v43h4l-4.5 9-4.5-9z" transform="translate(111,13)"/><g id="g7396"><rect id="Rectangle-2" width="116" height="38" fill="#f44d27" fill-rule="evenodd" transform="matrix(.76724 0 0 .86842 124 18)"/><text id="master" fill="#f0f0f0" fill-rule="evenodd" font-family="Source Code Pro" font-size="12" font-weight="700" text-anchor="middle" transform="translate(110.6 16.801)"><tspan id="tspan4026" x="58" y="21.515" fill="#f0f0f0">master</tspan></text></g></g><g id="g4383"><path id="path4044" fill="#8f8981" d="m9 19h76v1h-76v4l-9-4.5 9-4.5z" transform="translate(569.75 95.531)"/><g id="g4376" transform="translate(3.0034 -11.469)"><rect id="rect4046" width="116" height="38" fill="#f44d27" fill-rule="evenodd" transform="matrix(.76724 0 0 .86842 596.74 110)"/><text id="text4050" fill="#979797" fill-rule="evenodd" font-family="Source Code Pro" font-size="12" font-weight="700" text-anchor="middle" transform="translate(582.8 109.19)"><tspan id="tspan4048" x="58" y="21.515" fill="#f0f0f0">featureA</tspan></text></g></g><g id="g4422"><path id="path4055" fill="#8f8981" d="m9 19h76v1h-76v4l-9-4.5 9-4.5z" transform="translate(331.84 151.43)"/><g id="g4415"><rect id="rect4057" width="116" height="38" fill="#f44d27" fill-rule="evenodd" transform="matrix(.76724 0 0 .86842 361.74 154.43)"/><text id="text4061" fill="#979797" fill-rule="evenodd" font-family="Source Code Pro" font-size="12" font-weight="700" text-anchor="middle" transform="translate(347.98 153.62)"><tspan id="tspan4059" x="58" y="21.515" fill="#f0f0f0">featureB</tspan></text></g></g><g id="g4347"><path id="path4066" fill="#8f8981" d="m9 19h76v1h-76v4l-9-4.5 9-4.5z" transform="translate(450.7 46.094)"/><g id="g4340" transform="translate(1.6195 -4.1)"><rect id="rect4068" width="116" height="38" fill="#f44d27" fill-rule="evenodd" transform="matrix(.76724 0 0 .86842 479 53.194)"/><text id="text4072" fill="#979797" fill-rule="evenodd" font-family="Source Code Pro" font-size="12" font-weight="700" text-anchor="middle" transform="translate(465.4 52.385)"><tspan id="tspan4070" x="58" y="21.515" fill="#f0f0f0">featureBv2</tspan></text></g></g><g id="g4216" transform="translate(-.2)"><g id="Line-2-+-ref-4" fill="#8f8981" transform="translate(287,32)"><path id="path4031" d="m0 33.096v-33.192h1v33.192h4l-4.5 9-4.5-9z"/></g><g id="g3438" transform="translate(-1.0002 -.03046)"><rect id="rect2699" width="110.58" height="38" fill="#f44d27" fill-rule="evenodd" transform="matrix(.80485 0 0 .86842 244 18)"/><text id="text2825" x="378.678" y="12.85" fill="#f0f0f0" font-family="Source Code Pro" font-size="12" font-weight="bold" letter-spacing="0" text-anchor="middle" transform="translate(-90.018,19.575)" word-spacing="0" xml:space="preserve" style="font-feature-settings:normal;font-variant-caps:normal;font-variant-ligatures:normal;font-variant-numeric:normal;line-height:13.0666666px;text-align:center"><tspan id="tspan2823" x="378.678" y="12.85">origin/</tspan><tspan id="tspan2827" x="378.678" y="25.916">master</tspan></text></g></g></g></g></svg>