<svg xmlns="http://www.w3.org/2000/svg" id="svg7634" version="1.1" viewBox="0 0 454 206"><metadata id="metadata7640"/><title id="title7568">images/rebasing-1</title><desc id="desc7570">Created with Sketch.</desc><g id="g7751" transform="translate(-2,-5)"><g id="Line-+-brown-2" fill="none" fill-rule="evenodd" transform="translate(6,66)"><g id="brown"><rect id="Rectangle-1" width="89" height="33" fill="#efefe7" fill-rule="evenodd" rx="16.5" ry="16.5"/><text id="C6" fill="#979797" font-family="Source Code Pro" font-size="12" font-weight="700" text-anchor="middle"><tspan id="tspan7573" x="44.5" y="21" fill="gray">0b743</tspan></text></g></g><path id="Line-4" fill="#8f8981" d="m104 82h45v1h-45v4l-9-4.5 9-4.5z"/><g id="g7585" fill="none" fill-rule="evenodd" transform="translate(125,66)"><rect id="rect7579" width="89" height="33" fill="#efefe7" fill-rule="evenodd" rx="16.5" ry="16.5"/><text id="text7583" fill="#979797" font-family="Source Code Pro" font-size="12" font-weight="700" text-anchor="middle"><tspan id="tspan7581" x="44.5" y="21" fill="gray">a6b4c</tspan></text></g><path id="Line-3" fill="#8f8981" d="m223 82h45v1h-45v4l-9-4.5 9-4.5z"/><g id="g7594" fill="none" fill-rule="evenodd" transform="translate(244,66)"><rect id="rect7588" width="89" height="33" fill="#efefe7" fill-rule="evenodd" rx="16.5" ry="16.5"/><text id="text7592" fill="#979797" font-family="Source Code Pro" font-size="12" font-weight="700" text-anchor="middle"><tspan id="tspan7590" x="44.5" y="21" fill="gray">f42c5</tspan></text></g><g id="Line-+-brown-5" fill="none" fill-rule="evenodd" transform="translate(209,94)"><path id="Line" fill="#8f8981" fill-rule="nonzero" d="m7.8327 4.8281 51.361 34.536-.558.82984-51.361-34.536-2.232 3.3194-4.9576-8.7563 9.9796 1.2877z"/><g id="g7603" transform="translate(35,23)"><rect id="rect7597" width="89" height="33" fill="#efefe7" fill-rule="evenodd" rx="16.5" ry="16.5"/><text id="text7601" fill="#979797" font-family="Source Code Pro" font-size="12" font-weight="700" text-anchor="middle"><tspan id="tspan7599" x="44.5" y="21" fill="gray">e43a6</tspan></text></g></g><path id="Line-5" fill="#8f8981" d="m342 133h45v1h-45v4l-9-4.5 9-4.5z"/><g id="g7613" fill="none" fill-rule="evenodd" transform="translate(363,117)"><rect id="rect7607" width="89" height="33" fill="#efefe7" fill-rule="evenodd" rx="16.5" ry="16.5"/><text id="text7611" fill="#979797" font-family="Source Code Pro" font-size="12" font-weight="700" text-anchor="middle"><tspan id="tspan7609" x="44.5" y="21" fill="gray">5ddae</tspan></text></g><g id="g7692"><path id="Line-2" fill="#8f8981" d="m42 48v-43h1v43h4l-4.5 9-4.5-9z" transform="translate(246,9)"/><rect id="Rectangle-2" width="106" height="33" fill="#f44d27" fill-rule="evenodd" transform="matrix(.83962 0 0 1 244 9)"/><text id="master" fill="#979797" fill-rule="evenodd" font-family="Source Code Pro" font-size="12" font-weight="700" text-anchor="middle" transform="translate(235.6 9.316)"><tspan id="tspan7617" x="53" y="20" fill="#f0f0f0">master</tspan></text></g><g id="g7712" transform="translate(-2)"><path id="path7622" fill="#8f8981" d="m43 9v32h-1v-32h-4l4.5-9 4.5 9z" transform="translate(367,150)"/><g id="g7705"><rect id="rect7624" width="106" height="33" fill="#f44d27" fill-rule="evenodd" transform="matrix(.83962 0 0 1 365 174)"/><text id="text7628" fill="#979797" fill-rule="evenodd" font-family="Source Code Pro" font-size="12" font-weight="700" text-anchor="middle" transform="translate(356.1 173.87)"><tspan id="tspan7626" x="53" y="20" fill="#f0f0f0">ruby_client</tspan></text></g></g></g></svg>