<svg xmlns="http://www.w3.org/2000/svg" id="svg7927" version="1.1" viewBox="0 0 454 206"><metadata id="metadata7933"/><title id="title7848">images/rebasing-2</title><desc id="desc7850">Created with Sketch.</desc><g id="g8127" transform="translate(-2,-5)"><g id="Line-+-brown-2" fill="none" fill-rule="evenodd" transform="translate(6,66)"><g id="brown"><rect id="Rectangle-1" width="89" height="33" fill="#efefe7" fill-rule="evenodd" rx="16.5" ry="16.5"/><text id="C6" fill="#979797" font-family="Source Code Pro" font-size="12" font-weight="700" text-anchor="middle"><tspan id="tspan7853" x="44.5" y="21" fill="gray">0b743</tspan></text></g></g><path id="Line-4" fill="#8f8981" d="m104 82h45v1h-45v4l-9-4.5 9-4.5z"/><g id="g7865" fill="none" fill-rule="evenodd" transform="translate(125,66)"><rect id="rect7859" width="89" height="33" fill="#efefe7" fill-rule="evenodd" rx="16.5" ry="16.5"/><text id="text7863" fill="#979797" font-family="Source Code Pro" font-size="12" font-weight="700" text-anchor="middle"><tspan id="tspan7861" x="44.5" y="21" fill="gray">a6b4c</tspan></text></g><g id="Line-3-+-brown-3" fill="none" fill-rule="evenodd" transform="translate(214,66)"><path id="Line-3" fill="#8f8981" fill-rule="nonzero" d="m9 16h45v1h-45v4l-9-4.5 9-4.5z"/><g id="g7874" transform="translate(30)"><rect id="rect7868" width="89" height="33" fill="#efefe7" fill-rule="evenodd" rx="16.5" ry="16.5"/><text id="text7872" fill="#979797" font-family="Source Code Pro" font-size="12" font-weight="700" text-anchor="middle"><tspan id="tspan7870" x="44.5" y="21" fill="gray">f42c5</tspan></text></g></g><path id="path7877" fill="#8f8981" d="m341 82h45v1h-45v4l-9-4.5 9-4.5z"/><g id="g7885" fill="none" fill-rule="evenodd" transform="translate(362,66)"><rect id="rect7879" width="89" height="33" fill="#efefe7" fill-rule="evenodd" rx="16.5" ry="16.5"/><text id="text7883" fill="#979797" font-family="Source Code Pro" font-size="12" font-weight="700" text-anchor="middle"><tspan id="tspan7881" x="44.5" y="21" fill="gray">a0a41</tspan></text></g><g id="g7999" transform="translate(-2)"><path id="Line-2" fill="#8f8981" d="m42 48v-43h1v43h4l-4.5 9-4.5-9z" transform="translate(366,9)"/><g id="g7992"><rect id="Rectangle-2" width="106" height="33" fill="#f44d27" fill-rule="evenodd" transform="matrix(.83962 0 0 1 364 9)"/><text id="master" fill="#979797" fill-rule="evenodd" font-family="Source Code Pro" font-size="12" font-weight="700" text-anchor="middle" transform="translate(355.6 9.316)"><tspan id="tspan7889" x="53" y="20" fill="#f0f0f0">master</tspan></text></g></g><g id="g8078" opacity=".5"><g id="g8057"><path id="Line-5" fill="#8f8981" d="m150.84 5.8043-1.4909 1.0504-.57595-.81748 1.4909-1.0504-2.3038-3.2699 9.9491-1.5049-4.7656 8.8623zm-37.46 26.392-.57596-.81748 2.4524-1.7279.57595.81748zm3.2699-2.3038-.57595-.81748 2.4524-1.7279.57595.81748zm3.2699-2.3038-.57596-.81748 2.4524-1.7279.57595.81748zm3.2699-2.3038-.57596-.81748 2.4524-1.7279.57595.81748zm3.2699-2.3038-.57595-.81748 2.4524-1.7279.57595.81748zm3.2699-2.3038-.57595-.81748 2.4524-1.7279.57595.81748zm3.2699-2.3038-.57595-.81748 2.4524-1.7279.57595.81748zm3.2699-2.3038-.57595-.81748 2.4524-1.7279.57595.81748zm3.2699-2.3038-.57595-.81748 2.4524-1.7279.57595.81748zm3.2699-2.3038-.57595-.81748 2.4524-1.7279.57595.81748zm3.2699-2.3038-.57595-.81748 2.4524-1.7279.57595.81748z" transform="translate(209,94)"/><path id="Line" fill="#8f8981" d="m7.8327 4.8281 51.361 34.536-.558.82984-51.361-34.536-2.232 3.3194-4.9576-8.7563 9.9796 1.2877z" transform="translate(209,94)"/><g id="g7903" fill="none" fill-rule="evenodd" transform="translate(244,117)"><rect id="rect7897" width="89" height="33" fill="#efefe7" fill-rule="evenodd" rx="16.5" ry="16.5"/><text id="text7901" fill="#979797" font-family="Source Code Pro" font-size="12" font-weight="700" text-anchor="middle"><tspan id="tspan7899" x="44.5" y="21" fill="gray">e43a6</tspan></text></g></g><g id="g8044"><path id="Line-6" fill="#8f8981" d="m133 38h45v1h-45v4l-9-4.5 9-4.5z" transform="translate(209,94)"/><g id="g7912" fill="none" fill-rule="evenodd" transform="translate(363,117)"><rect id="rect7906" width="89" height="33" fill="#efefe7" fill-rule="evenodd" rx="16.5" ry="16.5"/><text id="text7910" fill="#979797" font-family="Source Code Pro" font-size="12" font-weight="700" text-anchor="middle"><tspan id="tspan7908" x="44.5" y="21" fill="gray">5ddae</tspan></text></g></g><g id="g8037"><path id="path7914" fill="#8f8981" d="m43 9v32h-1v-32h-4l4.5-9 4.5 9z" transform="translate(365,150)"/><g id="g8030" transform="translate(-2)"><rect id="rect7916" width="106" height="33" fill="#f44d27" fill-rule="evenodd" transform="matrix(.83962 0 0 1 365 174)"/><text id="text7920" fill="#979797" fill-rule="evenodd" font-family="Source Code Pro" font-size="12" font-weight="700" text-anchor="middle" transform="translate(356.1 173.87)"><tspan id="tspan7918" x="53" y="20" fill="#f0f0f0">ruby_client</tspan></text></g></g></g></g></svg>