<svg xmlns="http://www.w3.org/2000/svg" id="svg14736" version="1.1" viewBox="0 0 683 478"><metadata id="metadata14742"/><title id="title14555">images/remote-branches-5</title><desc id="desc14557">Created with Sketch.</desc><g id="g11422"><path id="path13358" fill="#8f8981" d="m162.05 180.34v-33.369h7.7029v33.369h3.8616l-7.7 29.312-7.6903-29.312z" transform="matrix(1 0 0 .98453 283.58 4.797)"/><g id="g11312" transform="translate(4.21)"><g id="brown" fill="none" fill-rule="evenodd" transform="translate(51.5,298.5)"><rect id="Rectangle-1" width="89" height="33" fill="#efefe7" fill-rule="evenodd" rx="16.5" ry="16.5"/><text id="C6" fill="#979797" font-family="Source Code Pro" font-size="12" font-weight="700" text-anchor="middle"><tspan id="tspan14560" x="44.5" y="21" fill="gray">0b743</tspan></text></g><path id="Line-5" fill="#8f8981" d="m155 322h39v1h-39v4l-9-4.5 9-4.5z" transform="translate(-5.5,-7.5)"/><g id="g14571" fill="none" fill-rule="evenodd" transform="translate(168.5,298.5)"><rect id="rect14565" width="89" height="33" fill="#efefe7" fill-rule="evenodd" rx="16.5" ry="16.5"/><text id="text14569" fill="#979797" font-family="Source Code Pro" font-size="12" font-weight="700" text-anchor="middle"><tspan id="tspan14567" x="44.5" y="21" fill="gray">a6b4c</tspan></text></g><g id="Line-4-+-brown-3" fill="none" fill-rule="evenodd" transform="translate(257.5,298.5)"><path id="Line-4" fill="#8f8981" fill-rule="nonzero" d="m9 16h39v1h-39v4l-9-4.5 9-4.5z"/><g id="g14580" transform="translate(28)"><rect id="rect14574" width="89" height="33" fill="#efefe7" fill-rule="evenodd" rx="16.5" ry="16.5"/><text id="text14578" fill="#979797" font-family="Source Code Pro" font-size="12" font-weight="700" text-anchor="middle"><tspan id="tspan14576" x="44.5" y="21" fill="gray">f4265</tspan></text></g></g><path id="Line-11" fill="#8f8981" d="m390 322h39v1h-39v4l-9-4.5 9-4.5z" transform="translate(-5.5,-7.5)"/><path id="Line-14" fill="#8f8981" d="m381.17 341.79 41.035 36.669-.66633.74566-41.035-36.669-2.6653 2.9826-3.7124-9.3524 9.7094 2.6415-2.6653 2.9826z" transform="translate(-5.5,-7.5)"/><g id="g14591" fill="none" fill-rule="evenodd" transform="translate(403.5,298.5)"><rect id="rect14585" width="89" height="33" fill="#efefe7" fill-rule="evenodd" rx="16.5" ry="16.5"/><text id="text14589" fill="#979797" font-family="Source Code Pro" font-size="12" font-weight="700" text-anchor="middle"><tspan id="tspan14587" x="44.5" y="21" fill="gray">31b8e</tspan></text></g><path id="Line-12" fill="#8f8981" d="m507 322h39v1h-39v4l-9-4.5 9-4.5z" transform="translate(-5.5,-7.5)"/><g id="g14600" fill="none" fill-rule="evenodd" transform="translate(520.5,298.5)"><rect id="rect14594" width="89" height="33" fill="#efefe7" fill-rule="evenodd" rx="16.5" ry="16.5"/><text id="text14598" fill="#979797" font-family="Source Code Pro" font-size="12" font-weight="700" text-anchor="middle"><tspan id="tspan14596" x="44.5" y="21" fill="gray">190a3</tspan></text></g><g id="g14608" fill="none" fill-rule="evenodd" transform="translate(403.5,355.5)"><rect id="rect14602" width="89" height="33" fill="#efefe7" fill-rule="evenodd" rx="16.5" ry="16.5"/><text id="text14606" fill="#979797" font-family="Source Code Pro" font-size="12" font-weight="700" text-anchor="middle"><tspan id="tspan14604" x="44.5" y="21" fill="gray">a38de</tspan></text></g><path id="Line-13" fill="#8f8981" d="m507 379h39v1h-39v4l-9-4.5 9-4.5z" transform="translate(-5.5,-7.5)"/><g id="g14617" fill="none" fill-rule="evenodd" transform="translate(520.5,355.5)"><rect id="rect14611" width="89" height="33" fill="#efefe7" fill-rule="evenodd" rx="16.5" ry="16.5"/><text id="text14615" fill="#979797" font-family="Source Code Pro" font-size="12" font-weight="700" text-anchor="middle"><tspan id="tspan14613" x="44.5" y="21" fill="gray">893cf</tspan></text></g><g id="g11225"><path id="Line-3" fill="#8f8981" d="m44 9v25h-1v-25h-4l4.5-9 4.5 9z" transform="translate(521.5,388.5)"/><g id="g11218"><rect id="Rectangle-2" width="106" height="33" fill="#f44d27" fill-rule="evenodd" transform="matrix(.83962 0 0 1 520.5 408.5)"/><text id="master" fill="#979797" fill-rule="evenodd" font-family="Source Code Pro" font-size="12" font-weight="700" text-anchor="middle" transform="translate(512.1 408.82)"><tspan id="tspan14621" x="53" y="20" fill="#f0f0f0">master</tspan></text></g></g><g id="g11258" transform="translate(1)"><path id="Line-6" fill="#8f8981" d="m54 44v-27h1v27h4l-4.5 9-4.5-9z" transform="translate(509.5,244.5)"/><g id="g11251" transform="translate(4.5)"><rect id="rect14627" width="111" height="33" fill="#f44d27" fill-rule="evenodd" transform="matrix(.9009 0 0 1 509.5 244.5)"/><text id="text14631" fill="#979797" fill-rule="evenodd" font-family="Source Code Pro" font-size="12" font-weight="700" text-anchor="middle" transform="translate(504.03 244.5)"><tspan id="tspan14629" x="55.5" y="20" fill="#f0f0f0">origin/master</tspan></text></g></g><path id="path14635" fill="#8f8981" d="m54 44v-27h1v27h4l-4.5 9-4.5-9z" transform="translate(393.5,244.5)"/><g id="g11238" transform="translate(.5)"><rect id="rect14637" width="111" height="33" fill="#f44d27" fill-rule="evenodd" transform="matrix(.99099 0 0 1 392.5 244.5)"/><text id="text14641" fill="#979797" fill-rule="evenodd" font-family="Source Code Pro" font-size="12" font-weight="700" text-anchor="middle" transform="translate(392.02 244.3)"><tspan id="tspan14639" x="55.5" y="20" fill="#f0f0f0">teamone/master</tspan></text></g></g><rect id="Rectangle-11" width="626.45" height="262" x="29.735" y="219" fill="none" stroke="#8f8981" stroke-linecap="square" transform="translate(-5.5,-7.5)"/><text id="My-Computer" fill="#404040" fill-rule="evenodd" font-family="Source Code Pro" font-size="12" font-weight="700" text-anchor="middle" transform="translate(24.197,-7.5)"><tspan id="tspan14647" x="313.225" y="236" fill="#404040">My Computer</tspan></text><text style="font-feature-settings:normal;font-variant-caps:normal;font-variant-ligatures:normal;font-variant-numeric:normal;text-align:center" id="git-fetch-teamone" fill="#404040" fill-rule="evenodd" font-family="Source Code Pro" font-size="16" font-weight="500" text-anchor="middle" transform="translate(32.5,-7.5)"><tspan style="font-feature-settings:normal;font-variant-caps:normal;font-variant-ligatures:normal;font-variant-numeric:normal;line-height:15px;text-align:center" id="tspan14650" x="313.225" y="198" fill="#404040" font-family="Source Code Pro" font-size="16" font-weight="500" text-anchor="middle">git fetch teamone</tspan></text><g id="g11090" transform="translate(6.0038)"><path id="Line-8" fill="#8f8981" d="m0 69.5 9-4.5v9zm47.5-.5v1h-2v-1zm-4 0v1h-2v-1zm-4 0v1h-2v-1zm-4 0v1h-2v-1zm-4 0v1h-2v-1zm-4 0v1h-2v-1zm-4 0v1h-2v-1zm-4 0v1h-2v-1zm-4 0v1h-2v-1zm-4 0v1h-2v-1z" transform="translate(18.5,43.5)"/><g id="g14661" fill="none" fill-rule="evenodd" transform="translate(46.5,96.5)"><rect id="rect14655" width="89" height="33" fill="#efefe7" fill-rule="evenodd" rx="16.5" ry="16.5"/><text id="text14659" fill="#979797" font-family="Source Code Pro" font-size="12" font-weight="700" text-anchor="middle"><tspan id="tspan14657" x="44.5" y="21" fill="gray">f4265</tspan></text></g><path id="Line-9" fill="#8f8981" d="m124 69h39v1h-39v4l-9-4.5 9-4.5z" transform="translate(18.5,43.5)"/><g id="g14670" fill="none" fill-rule="evenodd" transform="translate(161.5,96.5)"><rect id="rect14664" width="89" height="33" fill="#efefe7" fill-rule="evenodd" rx="16.5" ry="16.5"/><text id="text14668" fill="#979797" font-family="Source Code Pro" font-size="12" font-weight="700" text-anchor="middle"><tspan id="tspan14666" x="44.5" y="21" fill="gray">31b8e</tspan></text></g><path id="Line-10" fill="#8f8981" d="m240 69h39v1h-39v4l-9-4.5 9-4.5z" transform="translate(18.5,43.5)"/><g id="g14679" fill="none" fill-rule="evenodd" transform="translate(277.5,96.5)"><rect id="rect14673" width="89" height="33" fill="#efefe7" fill-rule="evenodd" rx="16.5" ry="16.5"/><text id="text14677" fill="#979797" font-family="Source Code Pro" font-size="12" font-weight="700" text-anchor="middle"><tspan id="tspan14675" x="44.5" y="21" fill="gray">190a3</tspan></text></g><g id="g11067"><path id="Line-2" fill="#8f8981" d="m42 44v-24h1v24h4l-4.5 9-4.5-9z" transform="translate(279.5,43.5)"/><g id="g11060" transform="translate(-2)"><rect id="rect14682" width="106" height="33" fill="#f44d27" fill-rule="evenodd" transform="matrix(.83962 0 0 1 279.5 43.5)"/><text id="text14686" fill="#979797" fill-rule="evenodd" font-family="Source Code Pro" font-size="12" font-weight="700" text-anchor="middle" transform="translate(271.1 43.816)"><tspan id="tspan14684" x="53" y="20" fill="#f0f0f0">master</tspan></text></g></g></g><rect id="Rectangle-10" width="388" height="144.97" x="10" y="12" fill="none" stroke="#8f8981" stroke-linecap="square" transform="translate(-5.4962 -7.5)"/><text id="git.ourcompany.com" fill="#404040" fill-rule="evenodd" font-family="Source Code Pro" font-size="12" font-weight="700" text-anchor="middle" transform="translate(-114.88,-7.5)"><tspan id="tspan14693" x="313.225" y="28" fill="#404040">git.ourcompany.com</tspan></text><text id="origin" fill="#404040" fill-rule="evenodd" font-family="Source Code Pro" font-size="12" font-weight="700" text-anchor="middle" transform="translate(-114.65,-7.5)"><tspan id="tspan14696" x="313.225" y="170" fill="#404040">origin</tspan></text><g id="g11149" transform="translate(6)"><path id="Line-15" fill="#8f8981" d="m426 120.5 9-4.5v9zm47.5-.5v1h-2v-1zm-4 0v1h-2v-1zm-4 0v1h-2v-1zm-4 0v1h-2v-1zm-4 0v1h-2v-1zm-4 0v1h-2v-1zm-4 0v1h-2v-1zm-4 0v1h-2v-1zm-4 0v1h-2v-1zm-4 0v1h-2v-1z" transform="translate(-5.5,-7.5)"/><g id="g14706" fill="none" fill-rule="evenodd" transform="translate(448.5,96.5)"><rect id="rect14700" width="89" height="33" fill="#efefe7" fill-rule="evenodd" rx="16.5" ry="16.5"/><text id="text14704" fill="#979797" font-family="Source Code Pro" font-size="12" font-weight="700" text-anchor="middle"><tspan id="tspan14702" x="44.5" y="21" fill="gray">f4265</tspan></text></g><path id="Line-16" fill="#8f8981" d="m550 120h39v1h-39v4l-9-4.5 9-4.5z" transform="translate(-5.5,-7.5)"/><g id="g14715" fill="none" fill-rule="evenodd" transform="translate(563.5,96.5)"><rect id="rect14709" width="89" height="33" fill="#efefe7" fill-rule="evenodd" rx="16.5" ry="16.5"/><text id="text14713" fill="#979797" font-family="Source Code Pro" font-size="12" font-weight="700" text-anchor="middle"><tspan id="tspan14711" x="44.5" y="21" fill="gray">31b8e</tspan></text></g><g id="g11131"><path id="path14717" fill="#8f8981" d="m42 44v-24h1v24h4l-4.5 9-4.5-9z" transform="translate(565.5,43.5)"/><g id="g11124" transform="translate(-2)"><rect id="rect14719" width="106" height="33" fill="#f44d27" fill-rule="evenodd" transform="matrix(.83962 0 0 1 565.5 43.5)"/><text id="text14723" fill="#979797" fill-rule="evenodd" font-family="Source Code Pro" font-size="12" font-weight="700" text-anchor="middle" transform="translate(557.1 43.816)"><tspan id="tspan14721" x="53" y="20" fill="#f0f0f0">master</tspan></text></g></g></g><rect id="Rectangle-12" width="272" height="144.97" x="412" y="12" fill="none" stroke="#8f8981" stroke-linecap="square" transform="translate(-5.5,-7.5)"/><text id="git.team1.ourcompany" fill="#404040" fill-rule="evenodd" font-family="Source Code Pro" font-size="12" font-weight="700" text-anchor="middle" transform="translate(229.12,-7.5)"><tspan id="tspan14729" x="313.225" y="28" fill="#404040">git.team1.ourcompany.com</tspan></text><text id="teamone" fill="#404040" fill-rule="evenodd" font-family="Source Code Pro" font-size="12" font-weight="700" text-anchor="middle" transform="translate(229.3,-7.5)"><tspan id="tspan14732" x="313.225" y="170" fill="#404040">teamone</tspan></text></g></svg>