<svg xmlns="http://www.w3.org/2000/svg" id="svg13660" version="1.1" viewBox="0 0 635.45 385"><metadata id="metadata13666"/><title id="title13529">images/remote-branches-2</title><desc id="desc13531">Created with Sketch.</desc><g id="g9154" transform="translate(-14.235 -12.5)"><g id="g9076" transform="translate(8.96)"><g id="brown" fill="none" fill-rule="evenodd" transform="translate(46,109)"><rect id="Rectangle-1" width="89" height="33" fill="#efefe7" fill-rule="evenodd" rx="16.5" ry="16.5"/><text id="C6" fill="#979797" font-family="Source Code Pro" font-size="12" font-weight="700" text-anchor="middle"><tspan id="tspan13534" x="44.5" y="21" fill="gray">0b743</tspan></text></g><path id="Line-7" fill="#8f8981" d="m144 125h39v1h-39v4l-9-4.5 9-4.5z"/><g id="g13545" fill="none" fill-rule="evenodd" transform="translate(163,109)"><rect id="rect13539" width="89" height="33" fill="#efefe7" fill-rule="evenodd" rx="16.5" ry="16.5"/><text id="text13543" fill="#979797" font-family="Source Code Pro" font-size="12" font-weight="700" text-anchor="middle"><tspan id="tspan13541" x="44.5" y="21" fill="gray">a6b4c</tspan></text></g><path id="Line-8" fill="#8f8981" d="m261 125h39v1h-39v4l-9-4.5 9-4.5z"/><g id="g13554" fill="none" fill-rule="evenodd" transform="translate(280,109)"><rect id="rect13548" width="89" height="33" fill="#efefe7" fill-rule="evenodd" rx="16.5" ry="16.5"/><text id="text13552" fill="#979797" font-family="Source Code Pro" font-size="12" font-weight="700" text-anchor="middle"><tspan id="tspan13550" x="44.5" y="21" fill="gray">f4265</tspan></text></g><path id="path13556" fill="#8f8981" d="m376 125h39v1h-39v4l-9-4.5 9-4.5z"/><g id="g13564" fill="none" fill-rule="evenodd" transform="translate(395,109)"><rect id="rect13558" width="89" height="33" fill="#efefe7" fill-rule="evenodd" rx="16.5" ry="16.5"/><text id="text13562" fill="#979797" font-family="Source Code Pro" font-size="12" font-weight="700" text-anchor="middle"><tspan id="tspan13560" x="44.5" y="21" fill="gray">31b8e</tspan></text></g><path id="path13566" fill="#8f8981" d="m492 125h39v1h-39v4l-9-4.5 9-4.5z"/><g id="g13574" fill="none" fill-rule="evenodd" transform="translate(511,109)"><rect id="rect13568" width="89" height="33" fill="#efefe7" fill-rule="evenodd" rx="16.5" ry="16.5"/><text id="text13572" fill="#979797" font-family="Source Code Pro" font-size="12" font-weight="700" text-anchor="middle"><tspan id="tspan13570" x="44.5" y="21" fill="gray">190a3</tspan></text></g><g id="g9000" transform="translate(-2)"><path id="Line-2" fill="#8f8981" d="m42 44v-24h1v24h4l-4.5 9-4.5-9z" transform="translate(515,56)"/><g id="g8993"><rect id="Rectangle-2" width="106" height="33" fill="#f44d27" fill-rule="evenodd" transform="matrix(.83962 0 0 1 513 56)"/><text id="master" fill="#979797" fill-rule="evenodd" font-family="Source Code Pro" font-size="12" font-weight="700" text-anchor="middle" transform="translate(504.6 56.316)"><tspan id="tspan13578" x="53" y="20" fill="#f0f0f0">master</tspan></text></g></g></g><g id="g9044" transform="translate(6.96)"><g id="g13590" fill="none" fill-rule="evenodd" transform="translate(46,295)"><rect id="rect13584" width="89" height="33" fill="#efefe7" fill-rule="evenodd" rx="16.5" ry="16.5"/><text id="text13588" fill="#979797" font-family="Source Code Pro" font-size="12" font-weight="700" text-anchor="middle"><tspan id="tspan13586" x="44.5" y="21" fill="gray">0b743</tspan></text></g><path id="Line-5" fill="#8f8981" d="m144 311h39v1h-39v4l-9-4.5 9-4.5z"/><g id="g13599" fill="none" fill-rule="evenodd" transform="translate(163,295)"><rect id="rect13593" width="89" height="33" fill="#efefe7" fill-rule="evenodd" rx="16.5" ry="16.5"/><text id="text13597" fill="#979797" font-family="Source Code Pro" font-size="12" font-weight="700" text-anchor="middle"><tspan id="tspan13595" x="44.5" y="21" fill="gray">a6b4c</tspan></text></g><path id="Line-4" fill="#8f8981" d="m261 311h39v1h-39v4l-9-4.5 9-4.5z"/><g id="g13608" fill="none" fill-rule="evenodd" transform="translate(280,295)"><rect id="rect13602" width="89" height="33" fill="#efefe7" fill-rule="evenodd" rx="16.5" ry="16.5"/><text id="text13606" fill="#979797" font-family="Source Code Pro" font-size="12" font-weight="700" text-anchor="middle"><tspan id="tspan13604" x="44.5" y="21" fill="gray">f4265</tspan></text></g><path id="path13610" fill="#8f8981" d="m379 311h39v1h-39v4l-9-4.5 9-4.5z"/><g id="g13618" fill="none" fill-rule="evenodd" transform="translate(398,295)"><rect id="rect13612" width="89" height="33" fill="#efefe7" fill-rule="evenodd" rx="16.5" ry="16.5"/><text id="text13616" fill="#979797" font-family="Source Code Pro" font-size="12" font-weight="700" text-anchor="middle"><tspan id="tspan13614" x="44.5" y="21" fill="gray">a38de</tspan></text></g><path id="path13620" fill="#8f8981" d="m496 311h39v1h-39v4l-9-4.5 9-4.5z"/><g id="g13628" fill="none" fill-rule="evenodd" transform="translate(515,295)"><rect id="rect13622" width="89" height="33" fill="#efefe7" fill-rule="evenodd" rx="16.5" ry="16.5"/><text id="text13626" fill="#979797" font-family="Source Code Pro" font-size="12" font-weight="700" text-anchor="middle"><tspan id="tspan13624" x="44.5" y="21" fill="gray">893cf</tspan></text></g><g id="g8980" transform="translate(-1)"><path id="Line-3" fill="#8f8981" d="m44 9v25h-1v-25h-4l4.5-9 4.5 9z" transform="translate(517,328)"/><g id="g8973"><rect id="rect13631" width="106" height="33" fill="#f44d27" fill-rule="evenodd" transform="matrix(.83962 0 0 1 516 348)"/><text id="text13635" fill="#979797" fill-rule="evenodd" font-family="Source Code Pro" font-size="12" font-weight="700" text-anchor="middle" transform="translate(507.6 348.32)"><tspan id="tspan13633" x="53" y="20" fill="#f0f0f0">master</tspan></text></g></g><g id="g8960" transform="translate(4.5)"><path id="Line-6" fill="#8f8981" d="m324 286v-27h1v27h4l-4.5 9-4.5-9z" transform="translate(-4.5)"/><g id="g8953"><rect id="rect13640" width="111" height="33" fill="#f44d27" fill-rule="evenodd" transform="matrix(.9009 0 0 1 270 242)"/><text id="text13644" fill="#979797" fill-rule="evenodd" font-family="Source Code Pro" font-size="12" font-weight="700" text-anchor="middle" transform="translate(264.53 241.76)"><tspan id="tspan13642" x="55.5" y="20" fill="#f0f0f0">origin/master</tspan></text></g></g></g><rect id="Rectangle-10" width="626.45" height="144.97" x="-.265" fill="none" stroke="#8f8981" stroke-linecap="square" transform="translate(19,17)"/><rect id="Rectangle-11" width="626.45" height="185" x="-.265" y="191" fill="none" stroke="#8f8981" stroke-linecap="square" transform="translate(19,17)"/><text id="My-Computer" fill="#404040" fill-rule="evenodd" font-family="Source Code Pro" font-size="12" font-weight="700" text-anchor="middle" transform="translate(18.696 17)"><tspan id="tspan13649" x="313.225" y="208" fill="#404040">My Computer</tspan></text><text id="git.ourcompany.com" fill="#404040" fill-rule="evenodd" font-family="Source Code Pro" font-size="12" font-weight="700" text-anchor="middle" transform="translate(18.576 17)"><tspan id="tspan13652" x="313.225" y="16" fill="#404040">git.ourcompany.com</tspan></text><text id="Someone-else-pushes" fill="#414141" fill-rule="evenodd" font-family="Source Code Pro" font-size="12" font-weight="700" transform="translate(-2.7978)"><tspan id="tspan13656" x="490" y="157" fill="#414141">Someone else pushes</tspan></text></g></svg>