<svg xmlns="http://www.w3.org/2000/svg" id="svg13978" version="1.1" viewBox="0 0 635.45 462"><metadata id="metadata13984"/><title id="title13831">images/remote-branches-3</title><desc id="desc13833">Created with Sketch.</desc><g id="g9865"><g id="g13889" fill="none" fill-rule="evenodd" transform="translate(31.765,282.5)"><rect id="rect13883" width="89" height="33" fill="#efefe7" fill-rule="evenodd" rx="16.5" ry="16.5"/><text id="text13887" fill="#979797" font-family="Source Code Pro" font-size="12" font-weight="700" text-anchor="middle"><tspan id="tspan13885" x="44.5" y="21" fill="gray">0b743</tspan></text></g><path id="Line-5" fill="#8f8981" d="m144 311h39v1h-39v4l-9-4.5 9-4.5z" transform="translate(-14.235,-12.5)"/><g id="g13898" fill="none" fill-rule="evenodd" transform="translate(148.76 282.5)"><rect id="rect13892" width="89" height="33" fill="#efefe7" fill-rule="evenodd" rx="16.5" ry="16.5"/><text id="text13896" fill="#979797" font-family="Source Code Pro" font-size="12" font-weight="700" text-anchor="middle"><tspan id="tspan13894" x="44.5" y="21" fill="gray">a6b4c</tspan></text></g><g id="Line-4-+-brown-3" fill="none" fill-rule="evenodd" transform="translate(237.76 282.5)"><path id="Line-4" fill="#8f8981" fill-rule="nonzero" d="m9 16h39v1h-39v4l-9-4.5 9-4.5z"/><g id="g13907" transform="translate(28)"><rect id="rect13901" width="89" height="33" fill="#efefe7" fill-rule="evenodd" rx="16.5" ry="16.5"/><text id="text13905" fill="#979797" font-family="Source Code Pro" font-size="12" font-weight="700" text-anchor="middle"><tspan id="tspan13903" x="44.5" y="21" fill="gray">f4265</tspan></text></g></g><path id="Line-11" fill="#8f8981" d="m379 311h39v1h-39v4l-9-4.5 9-4.5z" transform="translate(-15.435,-12.5)"/><path id="Line-14" fill="#8f8981" d="m370.17 330.79 41.035 36.669-.66633.74566-41.035-36.669-2.6653 2.9826-3.7124-9.3524 9.7094 2.6415-2.6653 2.9826z" transform="translate(-14.235,-12.5)"/><g id="g13918" fill="none" fill-rule="evenodd" transform="translate(383.76 282.5)"><rect id="rect13912" width="89" height="33" fill="#efefe7" fill-rule="evenodd" rx="16.5" ry="16.5"/><text id="text13916" fill="#979797" font-family="Source Code Pro" font-size="12" font-weight="700" text-anchor="middle"><tspan id="tspan13914" x="44.5" y="21" fill="gray">31b8e</tspan></text></g><path id="Line-12" fill="#8f8981" d="m496 311h39v1h-39v4l-9-4.5 9-4.5z" transform="translate(-14.235,-12.5)"/><g id="g13927" fill="none" fill-rule="evenodd" transform="translate(500.76 282.5)"><rect id="rect13921" width="89" height="33" fill="#efefe7" fill-rule="evenodd" rx="16.5" ry="16.5"/><text id="text13925" fill="#979797" font-family="Source Code Pro" font-size="12" font-weight="700" text-anchor="middle"><tspan id="tspan13923" x="44.5" y="21" fill="gray">190a3</tspan></text></g><g id="g13935" fill="none" fill-rule="evenodd" transform="translate(383.86 339.5)"><rect id="rect13929" width="89" height="33" fill="#efefe7" fill-rule="evenodd" rx="16.5" ry="16.5"/><text id="text13933" fill="#979797" font-family="Source Code Pro" font-size="12" font-weight="700" text-anchor="middle"><tspan id="tspan13931" x="44.5" y="21" fill="gray">a38de</tspan></text></g><path id="Line-13" fill="#8f8981" d="m496 368h39v1h-39v4l-9-4.5 9-4.5z" transform="translate(-14.235,-12.5)"/><g id="g13944" fill="none" fill-rule="evenodd" transform="translate(500.76 339.5)"><rect id="rect13938" width="89" height="33" fill="#efefe7" fill-rule="evenodd" rx="16.5" ry="16.5"/><text id="text13942" fill="#979797" font-family="Source Code Pro" font-size="12" font-weight="700" text-anchor="middle"><tspan id="tspan13940" x="44.5" y="21" fill="gray">893cf</tspan></text></g><g id="g9587"><path id="Line-3" fill="#8f8981" d="m44 9v25h-1v-25h-4l4.5-9 4.5 9z" transform="translate(501.76 372.5)"/><g id="g9580" transform="translate(-1)"><rect id="rect13947" width="106" height="33" fill="#f44d27" fill-rule="evenodd" transform="matrix(.83962 0 0 1 501.76 392.5)"/><text id="text13951" fill="#979797" fill-rule="evenodd" font-family="Source Code Pro" font-size="12" font-weight="700" text-anchor="middle" transform="translate(493.36 392.82)"><tspan id="tspan13949" x="53" y="20" fill="#f0f0f0">master</tspan></text></g></g><g id="g9567" transform="translate(1)"><path id="Line-6" fill="#8f8981" d="m54 44v-27h1v27h4l-4.5 9-4.5-9z" transform="translate(489.76 229.5)"/><g id="g9560" transform="translate(4.5)"><rect id="rect13957" width="111" height="33" fill="#f44d27" fill-rule="evenodd" transform="matrix(.9009 0 0 1 489.76 229.5)"/><text id="text13961" fill="#979797" fill-rule="evenodd" font-family="Source Code Pro" font-size="12" font-weight="700" text-anchor="middle" transform="translate(484.29 229.26)"><tspan id="tspan13959" x="55.5" y="20" fill="#f0f0f0">origin/master</tspan></text></g></g><rect id="Rectangle-11" width="626.45" height="262" x="18.735" y="208" fill="none" stroke="#8f8981" stroke-linecap="square" transform="translate(-14.235,-12.5)"/><text id="My-Computer" fill="#404040" fill-rule="evenodd" font-family="Source Code Pro" font-size="12" font-weight="700" text-anchor="middle" transform="translate(4.4612 -12.5)"><tspan id="tspan13967" x="313.225" y="225" fill="#404040">My Computer</tspan></text><g id="brown" fill="none" fill-rule="evenodd" transform="translate(31.765,96.5)"><rect id="Rectangle-1" width="89" height="33" fill="#efefe7" fill-rule="evenodd" rx="16.5" ry="16.5"/><text id="C6" fill="#979797" font-family="Source Code Pro" font-size="12" font-weight="700" text-anchor="middle"><tspan id="tspan13836" x="44.5" y="21" fill="gray">0b743</tspan></text></g><path id="Line-7" fill="#8f8981" d="m144 125h39v1h-39v4l-9-4.5 9-4.5z" transform="translate(-14.235,-12.5)"/><g id="g13847" fill="none" fill-rule="evenodd" transform="translate(148.76 96.5)"><rect id="rect13841" width="89" height="33" fill="#efefe7" fill-rule="evenodd" rx="16.5" ry="16.5"/><text id="text13845" fill="#979797" font-family="Source Code Pro" font-size="12" font-weight="700" text-anchor="middle"><tspan id="tspan13843" x="44.5" y="21" fill="gray">a6b4c</tspan></text></g><path id="Line-8" fill="#8f8981" d="m261 125h39v1h-39v4l-9-4.5 9-4.5z" transform="translate(-14.235,-12.5)"/><g id="g13856" fill="none" fill-rule="evenodd" transform="translate(265.76 96.5)"><rect id="rect13850" width="89" height="33" fill="#efefe7" fill-rule="evenodd" rx="16.5" ry="16.5"/><text id="text13854" fill="#979797" font-family="Source Code Pro" font-size="12" font-weight="700" text-anchor="middle"><tspan id="tspan13852" x="44.5" y="21" fill="gray">f4265</tspan></text></g><path id="Line-9" fill="#8f8981" d="m376 125h39v1h-39v4l-9-4.5 9-4.5z" transform="translate(-14.235,-12.5)"/><g id="g13865" fill="none" fill-rule="evenodd" transform="translate(383.86 96.5)"><rect id="rect13859" width="89" height="33" fill="#efefe7" fill-rule="evenodd" rx="16.5" ry="16.5"/><text id="text13863" fill="#979797" font-family="Source Code Pro" font-size="12" font-weight="700" text-anchor="middle"><tspan id="tspan13861" x="44.5" y="21" fill="gray">31b8e</tspan></text></g><path id="Line-10" fill="#8f8981" d="m492 125h39v1h-39v4l-9-4.5 9-4.5z" transform="translate(-10.635,-12.5)"/><g id="g13874" fill="none" fill-rule="evenodd" transform="translate(500.86 96.5)"><rect id="rect13868" width="89" height="33" fill="#efefe7" fill-rule="evenodd" rx="16.5" ry="16.5"/><text id="text13872" fill="#979797" font-family="Source Code Pro" font-size="12" font-weight="700" text-anchor="middle"><tspan id="tspan13870" x="44.5" y="21" fill="gray">190a3</tspan></text></g><g id="g9497" transform="translate(2.1)"><path id="Line-2" fill="#8f8981" d="m42 44v-24h1v24h4l-4.5 9-4.5-9z" transform="translate(500.76 43.5)"/><g id="g9490"><rect id="Rectangle-2" width="106" height="33" fill="#f44d27" fill-rule="evenodd" transform="matrix(.83962 0 0 1 498.76 43.5)"/><text id="master" fill="#979797" fill-rule="evenodd" font-family="Source Code Pro" font-size="12" font-weight="700" text-anchor="middle" transform="translate(490.36 43.816)"><tspan id="tspan13878" x="53" y="20" fill="#f0f0f0">master</tspan></text></g></g><rect id="Rectangle-10" width="626.45" height="144.97" x="18.735" y="17" fill="none" stroke="#8f8981" stroke-linecap="square" transform="translate(-14.235,-12.5)"/><text id="git.ourcompany.com" fill="#404040" fill-rule="evenodd" font-family="Source Code Pro" font-size="12" font-weight="700" text-anchor="middle" transform="translate(4.342,-12.5)"><tspan id="tspan13970" x="313.225" y="33" fill="#404040">git.ourcompany.com</tspan></text><text id="git-fetch-origin" fill="#404040" fill-rule="evenodd" font-family="Source Code Pro" font-size="12" font-weight="700" text-anchor="middle" transform="translate(-.435 -15.5)"><tspan id="tspan13974" x="313.225" y="190" fill="#404040">git fetch origin</tspan></text><path id="path13358" fill="#8f8981" d="m162.05 180.34v-21.839h7.7029v21.839h3.8616l-7.7 29.312-7.6903-29.312z" transform="matrix(1 0 0 .89295 56.69 8.042)"/></g></svg>