<svg xmlns="http://www.w3.org/2000/svg" id="svg13370" version="1.1" viewBox="0 0 544 385"><metadata id="metadata13376"/><title id="title13273">images/remote-branches-1</title><desc id="desc13275">Created with Sketch.</desc><g id="g8697"><path id="path13358" fill="#8f8681" d="m162.05 180.34v-21.839h7.7029v21.839h3.8616l-7.7 29.312-7.6903-29.312z" transform="matrix(1 0 0 .98453 -11.5 -11.447)"/><rect id="Rectangle-10" width="535" height="140" x="16" y="18" fill="none" stroke="#8f8981" stroke-linecap="square" transform="translate(-11.5,-13.5)"/><g id="brown" fill="none" fill-rule="evenodd" transform="translate(34.5,96.5)"><rect id="Rectangle-1" width="89" height="33" fill="#efefe7" fill-rule="evenodd" rx="16.5" ry="16.5"/><text id="C6" fill="#979797" font-family="Source Code Pro" font-size="12" font-weight="700" text-anchor="middle"><tspan id="tspan13280" x="44.5" y="21" fill="gray">0b743</tspan></text></g><path id="Line" fill="#8f8981" d="m144 126h39v1h-39v4l-9-4.5 9-4.5z" transform="translate(-11.5,-13.5)"/><g id="g13291" fill="none" fill-rule="evenodd" transform="translate(151.5,96.5)"><rect id="rect13285" width="89" height="33" fill="#efefe7" fill-rule="evenodd" rx="16.5" ry="16.5"/><text id="text13289" fill="#979797" font-family="Source Code Pro" font-size="12" font-weight="700" text-anchor="middle"><tspan id="tspan13287" x="44.5" y="21" fill="gray">a6b4c</tspan></text></g><path id="path13293" fill="#8f8981" d="m261 126h39v1h-39v4l-9-4.5 9-4.5z" transform="translate(-11.5,-13.5)"/><g id="g13302" fill="none" fill-rule="evenodd" transform="translate(268.5,96.5)"><rect id="rect13296" width="89" height="33" fill="#efefe7" fill-rule="evenodd" rx="16.5" ry="16.5"/><text id="text13300" fill="#979797" font-family="Source Code Pro" font-size="12" font-weight="700" text-anchor="middle"><tspan id="tspan13298" x="44.5" y="21" fill="gray">f4265</tspan></text></g><g id="g8620" transform="translate(-7.5)"><path id="Line-2" fill="#8f8981" d="m324 101v-24h1v24h4l-4.5 9-4.5-9z" transform="translate(-4 -13.5)"/><g id="g8613"><rect id="Rectangle-2" width="106" height="33" fill="#f44d27" fill-rule="evenodd" transform="matrix(.9434 0 0 1 270.5 43.5)"/><text id="master" fill="#979797" fill-rule="evenodd" font-family="Source Code Pro" font-size="12" font-weight="700" text-anchor="middle" transform="translate(267.6 43.816)"><tspan id="tspan13305" x="53" y="20" fill="#f0f0f0">master</tspan></text></g></g><text id="git.ourcompany.com" fill="#404040" fill-rule="evenodd" font-family="Source Code Pro" font-size="12" font-weight="700" text-anchor="middle" transform="translate(4.342,-13.5)"><tspan id="tspan13355" x="267.5" y="37" fill="#404040">git.ourcompany.com</tspan></text><text id="git-clone-janedoe@gi" fill="#404040" fill-rule="evenodd" font-family="Source Code Pro" font-size="12" font-weight="700" text-anchor="middle" transform="translate(79.5,-13.5)"><tspan id="tspan13360" x="267.5" y="186" fill="#404040">git clone janedoe@git.ourcompany.com:project.git</tspan></text><rect id="Rectangle-11" width="535" height="185" x="16" y="209" fill="none" stroke="#8f8981" stroke-linecap="square" transform="translate(-11.5,-13.5)"/><g id="g13316" fill="none" fill-rule="evenodd" transform="translate(34.5,282.5)"><rect id="rect13310" width="89" height="33" fill="#efefe7" fill-rule="evenodd" rx="16.5" ry="16.5"/><text id="text13314" fill="#979797" font-family="Source Code Pro" font-size="12" font-weight="700" text-anchor="middle"><tspan id="tspan13312" x="44.5" y="21" fill="gray">0b743</tspan></text></g><g id="g8634"><path id="Line-5" fill="#8f8981" d="m144 312h39v1h-39v4l-9-4.5 9-4.5z" transform="translate(-11.5,-13.5)"/><g id="g13325" fill="none" fill-rule="evenodd" transform="translate(151.5,282.5)"><rect id="rect13319" width="89" height="33" fill="#efefe7" fill-rule="evenodd" rx="16.5" ry="16.5"/><text id="text13323" fill="#979797" font-family="Source Code Pro" font-size="12" font-weight="700" text-anchor="middle"><tspan id="tspan13321" x="44.5" y="21" fill="gray">a6b4c</tspan></text></g></g><g id="g8627"><path id="Line-4" fill="#8f8981" d="m261 312h39v1h-39v4l-9-4.5 9-4.5z" transform="translate(-11.5,-13.5)"/><g id="g13335" fill="none" fill-rule="evenodd" transform="translate(268.5,282.5)"><rect id="rect13329" width="89" height="33" fill="#efefe7" fill-rule="evenodd" rx="16.5" ry="16.5"/><text id="text13333" fill="#979797" font-family="Source Code Pro" font-size="12" font-weight="700" text-anchor="middle"><tspan id="tspan13331" x="44.5" y="21" fill="gray">f4265</tspan></text></g></g><g id="g8608" transform="translate(-.6)"><path id="Line-3" fill="#8f8981" d="m325 338v25h-1v-25h-4l4.5-9 4.5 9z" transform="translate(-10.9,-13.5)"/><g id="g8601"><rect id="rect13337" width="106" height="33" fill="#f44d27" fill-rule="evenodd" transform="matrix(.9434 0 0 1 263.6 335.5)"/><text id="text13341" fill="#979797" fill-rule="evenodd" font-family="Source Code Pro" font-size="12" font-weight="700" text-anchor="middle" transform="translate(260.7 335.82)"><tspan id="tspan13339" x="53" y="20" fill="#f0f0f0">master</tspan></text></g></g><g id="g8593" transform="translate(4.5)"><path id="Line-6" fill="#8f8981" d="m324 287v-27h1v27h4l-4.5 9-4.5-9z" transform="translate(-16,-13.5)"/><g id="g8586"><rect id="rect13345" width="111" height="33" fill="#f44d27" fill-rule="evenodd" transform="matrix(.9009 0 0 1 258.5 229.5)"/><text id="text13349" fill="#979797" fill-rule="evenodd" font-family="Source Code Pro" font-size="12" font-weight="700" text-anchor="middle" transform="translate(253.03 229.26)"><tspan id="tspan13347" x="55.5" y="20" fill="#f0f0f0">origin/master</tspan></text></g></g><text id="My-Computer" fill="#404040" fill-rule="evenodd" font-family="Source Code Pro" font-size="12" font-weight="700" text-anchor="middle" transform="translate(4.462,-13.5)"><tspan id="tspan13352" x="267.5" y="230" fill="#404040">My Computer</tspan></text><text id="Remote-branch" fill="#404040" fill-rule="evenodd" font-family="Source Code Pro" font-size="12" font-weight="700" text-anchor="middle" transform="translate(163.1,-13.5)"><tspan id="tspan13363" x="267.5" y="263" fill="#404040">Remote branch</tspan></text><text id="Local-branch" fill="#404040" fill-rule="evenodd" font-family="Source Code Pro" font-size="12" font-weight="700" text-anchor="middle" transform="translate(159.1,-13.5)"><tspan id="tspan13366" x="267.5" y="370" fill="#404040">Local branch</tspan></text></g></svg>