<svg xmlns="http://www.w3.org/2000/svg" id="svg14350" version="1.1" viewBox="0 0 683 478"><metadata id="metadata14356"/><title id="title14176">images/remote-branches-4</title><desc id="desc14178">Created with Sketch.</desc><g id="g10643"><g id="brown" fill="none" fill-rule="evenodd" transform="translate(51.765,298.5)"><rect id="Rectangle-1" width="89" height="33" fill="#efefe7" fill-rule="evenodd" rx="16.5" ry="16.5"/><text id="C6" fill="#979797" font-family="Source Code Pro" font-size="12" font-weight="700" text-anchor="middle"><tspan id="tspan14181" x="44.5" y="21" fill="gray">0b743</tspan></text></g><path id="Line-5" fill="#8f8981" d="m125 103h39v1h-39v4l-9-4.5 9-4.5z" transform="translate(24.765,211.5)"/><g id="g14192" fill="none" fill-rule="evenodd" transform="translate(168.76 298.5)"><rect id="rect14186" width="89" height="33" fill="#efefe7" fill-rule="evenodd" rx="16.5" ry="16.5"/><text id="text14190" fill="#979797" font-family="Source Code Pro" font-size="12" font-weight="700" text-anchor="middle"><tspan id="tspan14188" x="44.5" y="21" fill="gray">a6b4c</tspan></text></g><g id="Line-4-+-brown-3" fill="none" fill-rule="evenodd" transform="translate(257.76 298.5)"><path id="Line-4" fill="#8f8981" fill-rule="nonzero" d="m9 16h39v1h-39v4l-9-4.5 9-4.5z"/><g id="g14201" transform="translate(28)"><rect id="rect14195" width="89" height="33" fill="#efefe7" fill-rule="evenodd" rx="16.5" ry="16.5"/><text id="text14199" fill="#979797" font-family="Source Code Pro" font-size="12" font-weight="700" text-anchor="middle"><tspan id="tspan14197" x="44.5" y="21" fill="gray">f4265</tspan></text></g></g><path id="Line-11" fill="#8f8981" d="m360 103h39v1h-39v4l-9-4.5 9-4.5z" transform="translate(24.765,211.5)"/><path id="Line-14" fill="#8f8981" d="m351.17 122.79 41.035 36.669-.66633.74566-41.035-36.669-2.6653 2.9826-3.7124-9.3524 9.7094 2.6415-2.6653 2.9826z" transform="translate(24.765,211.5)"/><g id="g14212" fill="none" fill-rule="evenodd" transform="translate(403.76 298.5)"><rect id="rect14206" width="89" height="33" fill="#efefe7" fill-rule="evenodd" rx="16.5" ry="16.5"/><text id="text14210" fill="#979797" font-family="Source Code Pro" font-size="12" font-weight="700" text-anchor="middle"><tspan id="tspan14208" x="44.5" y="21" fill="gray">31b8e</tspan></text></g><path id="Line-12" fill="#8f8981" d="m477 103h39v1h-39v4l-9-4.5 9-4.5z" transform="translate(24.765,211.5)"/><g id="g14221" fill="none" fill-rule="evenodd" transform="translate(520.76 298.5)"><rect id="rect14215" width="89" height="33" fill="#efefe7" fill-rule="evenodd" rx="16.5" ry="16.5"/><text id="text14219" fill="#979797" font-family="Source Code Pro" font-size="12" font-weight="700" text-anchor="middle"><tspan id="tspan14217" x="44.5" y="21" fill="gray">190a3</tspan></text></g><g id="g14229" fill="none" fill-rule="evenodd" transform="translate(403.76 355.5)"><rect id="rect14223" width="89" height="33" fill="#efefe7" fill-rule="evenodd" rx="16.5" ry="16.5"/><text id="text14227" fill="#979797" font-family="Source Code Pro" font-size="12" font-weight="700" text-anchor="middle"><tspan id="tspan14225" x="44.5" y="21" fill="gray">a38de</tspan></text></g><path id="Line-13" fill="#8f8981" d="m477 160h39v1h-39v4l-9-4.5 9-4.5z" transform="translate(24.765,211.5)"/><g id="g14238" fill="none" fill-rule="evenodd" transform="translate(520.76 355.5)"><rect id="rect14232" width="89" height="33" fill="#efefe7" fill-rule="evenodd" rx="16.5" ry="16.5"/><text id="text14236" fill="#979797" font-family="Source Code Pro" font-size="12" font-weight="700" text-anchor="middle"><tspan id="tspan14234" x="44.5" y="21" fill="gray">893cf</tspan></text></g><path id="Line-3" fill="#8f8981" d="m44 9v25h-1v-25h-4l4.5-9 4.5 9z" transform="translate(521.76 388.5)"/><g id="g10543" transform="translate(-6.235 -7.5)"><rect id="Rectangle-2" width="106" height="33" fill="#f44d27" fill-rule="evenodd" transform="matrix(.83962 0 0 1 527 416)"/><text id="master" fill="#979797" fill-rule="evenodd" font-family="Source Code Pro" font-size="12" font-weight="700" text-anchor="middle" transform="translate(518.6 416.32)"><tspan id="tspan14242" x="53" y="20" fill="#f0f0f0">master</tspan></text></g><g id="g10530" transform="translate(.265 -7.5)"><path id="Line-6" fill="#8f8981" d="m54 44v-27h1v27h4l-4.5 9-4.5-9z" transform="translate(510.5,253)"/><g id="g10523"><rect id="rect14248" width="111" height="33" fill="#f44d27" fill-rule="evenodd" transform="matrix(.9009 0 0 1 515 253)"/><text id="text14252" fill="#979797" fill-rule="evenodd" font-family="Source Code Pro" font-size="12" font-weight="700" text-anchor="middle" transform="translate(509.53 252.76)"><tspan id="tspan14250" x="55.5" y="20" fill="#f0f0f0">origin/master</tspan></text></g></g><rect id="Rectangle-11" width="626.45" height="262" x="-.265" fill="none" stroke="#8f8981" stroke-linecap="square" transform="translate(24.765,211.5)"/><text id="My-Computer" fill="#404040" fill-rule="evenodd" font-family="Source Code Pro" font-size="12" font-weight="700" text-anchor="middle" transform="translate(24.462 211.5)"><tspan id="tspan14257" x="313.225" y="17" fill="#404040">My Computer</tspan></text><text style="font-feature-settings:normal;font-variant-caps:normal;font-variant-ligatures:normal;font-variant-numeric:normal;text-align:center" id="git-remote-add-teamo" fill="#404040" fill-rule="evenodd" font-family="Source Code Pro" font-size="12" font-weight="500" text-anchor="middle" transform="translate(143.56 -7.5)"><tspan style="font-feature-settings:normal;font-variant-caps:normal;font-variant-ligatures:normal;font-variant-numeric:normal;text-align:center" id="tspan14261" x="194" y="206" fill="#404040" font-family="Source Code Pro" font-size="12" font-weight="500" text-anchor="middle">git remote add teamone git://git.team1.ourcompany.com</tspan></text><path id="Line-8" fill="#8f8981" d="m0 69.5 9-4.5v9zm47.5-.5v1h-2v-1zm-4 0v1h-2v-1zm-4 0v1h-2v-1zm-4 0v1h-2v-1zm-4 0v1h-2v-1zm-4 0v1h-2v-1zm-4 0v1h-2v-1zm-4 0v1h-2v-1zm-4 0v1h-2v-1zm-4 0v1h-2v-1z" transform="translate(18.765,43.5)"/><g id="g14271" fill="none" fill-rule="evenodd" transform="translate(46.765,96.5)"><rect id="rect14265" width="89" height="33" fill="#efefe7" fill-rule="evenodd" rx="16.5" ry="16.5"/><text id="text14269" fill="#979797" font-family="Source Code Pro" font-size="12" font-weight="700" text-anchor="middle"><tspan id="tspan14267" x="44.5" y="21" fill="gray">f4265</tspan></text></g><path id="Line-9" fill="#8f8981" d="m124 69h39v1h-39v4l-9-4.5 9-4.5z" transform="translate(18.765,43.5)"/><g id="g14280" fill="none" fill-rule="evenodd" transform="translate(161.76 96.5)"><rect id="rect14274" width="89" height="33" fill="#efefe7" fill-rule="evenodd" rx="16.5" ry="16.5"/><text id="text14278" fill="#979797" font-family="Source Code Pro" font-size="12" font-weight="700" text-anchor="middle"><tspan id="tspan14276" x="44.5" y="21" fill="gray">31b8e</tspan></text></g><path id="Line-10" fill="#8f8981" d="m240 69h39v1h-39v4l-9-4.5 9-4.5z" transform="translate(18.765,43.5)"/><g id="g14289" fill="none" fill-rule="evenodd" transform="translate(277.76 96.5)"><rect id="rect14283" width="89" height="33" fill="#efefe7" fill-rule="evenodd" rx="16.5" ry="16.5"/><text id="text14287" fill="#979797" font-family="Source Code Pro" font-size="12" font-weight="700" text-anchor="middle"><tspan id="tspan14285" x="44.5" y="21" fill="gray">190a3</tspan></text></g><g id="g10440" transform="translate(-5.235 -7.5)"><path id="Line-2" fill="#8f8981" d="m42 44v-24h1v24h4l-4.5 9-4.5-9z" transform="translate(285,51)"/><g id="g10433"><rect id="rect14292" width="106" height="33" fill="#f44d27" fill-rule="evenodd" transform="matrix(.83962 0 0 1 283 50.684)"/><text id="text14296" fill="#979797" fill-rule="evenodd" font-family="Source Code Pro" font-size="12" font-weight="700" text-anchor="middle" transform="translate(274.6 51)"><tspan id="tspan14294" x="53" y="20" fill="#f0f0f0">master</tspan></text></g></g><rect id="Rectangle-10" width="388" height="144.97" x="9.735" y="12" fill="none" stroke="#8f8981" stroke-linecap="square" transform="translate(-5.235 -7.5)"/><text id="git.ourcompany.com" fill="#404040" fill-rule="evenodd" font-family="Source Code Pro" font-size="12" font-weight="700" text-anchor="middle" transform="translate(4.3416 -7.5)"><tspan id="tspan14304" x="194" y="28" fill="#404040">git.ourcompany.com</tspan></text><text id="origin" fill="#404040" fill-rule="evenodd" font-family="Source Code Pro" font-size="12" font-weight="700" text-anchor="middle" transform="translate(4.5756 -7.5)"><tspan id="tspan14307" x="194" y="170" fill="#404040">origin</tspan></text><path id="path14310" fill="#8f8981" d="m426 120.5 9-4.5v9zm47.5-.5v1h-2v-1zm-4 0v1h-2v-1zm-4 0v1h-2v-1zm-4 0v1h-2v-1zm-4 0v1h-2v-1zm-4 0v1h-2v-1zm-4 0v1h-2v-1zm-4 0v1h-2v-1zm-4 0v1h-2v-1zm-4 0v1h-2v-1z" transform="translate(-5.235 -7.5)"/><g id="g14318" fill="none" fill-rule="evenodd" transform="translate(448.76 96.5)"><rect id="rect14312" width="89" height="33" fill="#efefe7" fill-rule="evenodd" rx="16.5" ry="16.5"/><text id="text14316" fill="#979797" font-family="Source Code Pro" font-size="12" font-weight="700" text-anchor="middle"><tspan id="tspan14314" x="44.5" y="21" fill="gray">f4265</tspan></text></g><path id="path14320" fill="#8f8981" d="m550 120h39v1h-39v4l-9-4.5 9-4.5z" transform="translate(-5.235 -7.5)"/><g id="g14328" fill="none" fill-rule="evenodd" transform="translate(563.76 96.5)"><rect id="rect14322" width="89" height="33" fill="#efefe7" fill-rule="evenodd" rx="16.5" ry="16.5"/><text id="text14326" fill="#979797" font-family="Source Code Pro" font-size="12" font-weight="700" text-anchor="middle"><tspan id="tspan14324" x="44.5" y="21" fill="gray">31b8e</tspan></text></g><g id="g10460" transform="translate(-5.235 -7.5)"><path id="path14330" fill="#8f8981" d="m42 44v-24h1v24h4l-4.5 9-4.5-9z" transform="translate(571,51)"/><g id="g10453" transform="translate(-10.4)"><rect id="rect14332" width="106" height="33" fill="#f44d27" fill-rule="evenodd" transform="matrix(.83962 0 0 1 579.4 50.684)"/><text id="text14336" fill="#979797" fill-rule="evenodd" font-family="Source Code Pro" font-size="12" font-weight="700" text-anchor="middle" transform="translate(571,51)"><tspan id="tspan14334" x="53" y="20" fill="#f0f0f0">master</tspan></text></g></g><rect id="Rectangle-12" width="272" height="144.97" x="411.73" y="12" fill="none" stroke="#8f8981" stroke-linecap="square" transform="translate(-5.235 -7.5)"/><text id="git.team1.ourcompany" fill="#404040" fill-rule="evenodd" font-family="Source Code Pro" font-size="12" font-weight="700" text-anchor="middle" transform="translate(348.34 -7.5)"><tspan id="tspan14343" x="194" y="28" fill="#404040">git.team1.ourcompany.com</tspan></text><text id="teamone" fill="#404040" fill-rule="evenodd" font-family="Source Code Pro" font-size="12" font-weight="700" text-anchor="middle" transform="translate(348.52 -7.5)"><tspan id="tspan14346" x="194" y="170" fill="#404040">teamone</tspan></text></g></svg>