<svg xmlns="http://www.w3.org/2000/svg" id="svg15386" version="1.1" viewBox="0 0 517.52 433"><metadata id="metadata15390"/><title id="title15248">images/replace4</title><desc id="desc15250">Created with Sketch.</desc><g id="layer7" transform="translate(-38.491 -31.976)"><g id="g14286"><g id="g14173" transform="translate(.6)"><path id="Line-2" fill="#4a90e2" d="m287 65h28.749v1h-28.749v4l-9-4.5 9-4.5z"/><path id="Line-10" fill="#4a90e2" d="m288 155h28.776v1h-28.776v4l-9-4.5 9-4.5z"/><g id="g15441" fill="none" fill-rule="evenodd" transform="translate(-2.2)"><text id="text15434" x="-40.018" y="334.595" fill="#4a90e2" font-family="Source Code Pro" font-size="12" font-weight="bold" letter-spacing="0" text-anchor="middle" transform="matrix(0,-1.4366,1.4366,0,-176.66,53.325)" word-spacing="0" xml:space="preserve" style="font-feature-settings:normal;font-variant-caps:normal;font-variant-ligatures:normal;font-variant-numeric:normal;line-height:9.5px;text-align:center"><tspan id="tspan15432" x="-40.018" y="334.595">rebase</tspan></text><path id="path15436" fill="none" stroke="#4a90e2" stroke-width="1" d="m306.4 81.263v58.995"/></g></g><g id="g13993"><path id="Line-61" fill="#8f8981" d="m244 118v-27.392h1v27.392h4l-4.5 9-4.5-9z" opacity=".5" transform="translate(125.9 .97602)"/><g id="g12009" opacity=".5" transform="translate(129.01 -.023975)"><rect id="Rectangle-2-9" width="109.58" height="56" x=".5" y=".5" fill="#efefe7" fill-rule="evenodd" stroke="#979797" transform="translate(186,36)"/><text style="font-feature-settings:normal;font-variant-caps:normal;font-variant-ligatures:normal;font-variant-numeric:normal;text-align:center" id="master-4-4" fill="#404040" fill-rule="evenodd" font-family="Source Code Pro" font-size="16" font-weight="600" text-anchor="middle" transform="translate(186.56,39.149)"><tspan style="font-feature-settings:normal;font-variant-caps:normal;font-variant-ligatures:normal;font-variant-numeric:normal;text-align:center" id="tspan11856" x="54.79" y="18.547" fill="#404040" font-family="Source Code Pro" font-size="16" font-weight="600" text-anchor="middle">ef989</tspan></text><text id="fifth-3" fill="#9b9b9b" fill-rule="evenodd" font-family="Source Code Pro" font-size="12" font-weight="700" transform="translate(-.83257)"><tspan id="tspan11860" x="224" y="81">fifth</tspan></text></g></g><g id="g13973" transform="translate(0 .49425)"><path id="Line-2-9" fill="#8f8981" d="m306 64h31.985v1h-31.985v4l-9-4.5 9-4.5z" transform="matrix(-1 0 0 1 464.98 -.50433)"/><g id="g11991" transform="translate(-301.41 2.5696)"><rect id="rect11909" width="111" height="47" fill="#f44d27" fill-rule="evenodd" transform="matrix(.8018 0 0 .70213 343.9 44.926)"/><text id="master-7" fill="#979797" fill-rule="evenodd" font-family="Source Code Pro" font-size="12" font-weight="700" text-anchor="middle" transform="translate(333,41)"><tspan id="tspan11911" x="55.5" y="24.242" fill="#f0f0f0">master</tspan></text></g></g><g id="g13982"><path id="Line-61-2" fill="#8f8981" d="m244 118v-27.392h1v27.392h4l-4.5 9-4.5-9z" transform="translate(-21.625 .48992)"/><rect id="Rectangle-2-9-0" width="109.58" height="56" x=".5" y=".5" fill="#efefe7" fill-rule="evenodd" stroke="#979797" transform="translate(167.98 35.99)"/></g><text style="font-feature-settings:normal;font-variant-caps:normal;font-variant-ligatures:normal;font-variant-numeric:normal;text-align:center" id="master-4-4-7" fill="#404040" fill-rule="evenodd" font-family="Source Code Pro" font-size="16" font-weight="600" text-anchor="middle" transform="translate(168.54 39.139)"><tspan style="font-feature-settings:normal;font-variant-caps:normal;font-variant-ligatures:normal;font-variant-numeric:normal;text-align:center" id="tspan11856-3" x="54.79" y="18.547" fill="#404040" font-family="Source Code Pro" font-size="16" font-weight="600" text-anchor="middle">e146b</tspan></text><text id="fifth-3-1" fill="#9b9b9b" fill-rule="evenodd" font-family="Source Code Pro" font-size="12" font-weight="700" transform="translate(-18.848 -.01008)"><tspan id="tspan11860-7" x="224" y="81">fifth</tspan></text><g id="g12054" transform="translate(128.91 -.023975)"><path id="Line-3-9" fill="#8f8981" d="m244 210v-28.528h1v28.528h4l-4.5 9-4.5-9z" transform="translate(-3.1099 .9)"/><g id="g12038"><rect id="rect11863" width="109.58" height="56" x=".5" y=".5" fill="#efefe7" fill-rule="evenodd" stroke="#979797" transform="translate(186.1,128)"/><text style="font-feature-settings:normal;font-variant-caps:normal;font-variant-ligatures:normal;font-variant-numeric:normal;text-align:center" id="text11867" fill="#404040" fill-rule="evenodd" font-family="Source Code Pro" font-size="16" font-weight="600" text-anchor="middle" transform="translate(186.48,131.27)"><tspan style="font-feature-settings:normal;font-variant-caps:normal;font-variant-ligatures:normal;font-variant-numeric:normal;text-align:center" id="tspan11865" x="54.79" y="18.547" fill="#404040" font-family="Source Code Pro" font-size="16" font-weight="600" text-anchor="middle">c6e1e</tspan></text><text id="fourth-8" fill="#9b9b9b" fill-rule="evenodd" font-family="Source Code Pro" font-size="12" font-weight="700" transform="translate(-2.3302)"><tspan id="tspan11870" x="222" y="173">fourth</tspan></text></g></g><g id="g12031" transform="translate(129.11 -.023975)"><path id="Line-6-8" fill="#8f8981" d="m307 157h31v1h-31v4l-9-4.5 9-4.5z" transform="translate(-1.4)"/><g id="g12024" transform="translate(-.1 7)"><rect id="rect11916" width="106" height="33" fill="#f44d27" fill-rule="evenodd" transform="matrix(.83962 0 0 1 334 134)"/><text id="text11920" fill="#979797" fill-rule="evenodd" font-family="Source Code Pro" font-size="12" font-weight="700" text-anchor="middle" transform="translate(325.24,133.87)"><tspan id="tspan11918" x="53" y="20" fill="#f0f0f0">history</tspan></text></g></g><g id="g14093"><path id="Line-3-9-8" fill="#8f8981" d="m244 210v-28.528h1v28.528h4l-4.5 9-4.5-9z" transform="translate(-21.253 .83866)"/><g id="g14084"><rect id="rect11863-0" width="109.58" height="56" x=".5" y=".5" fill="#efefe7" fill-rule="evenodd" stroke="#979797" transform="translate(167.96 127.94)"/><text style="font-feature-settings:normal;font-variant-caps:normal;font-variant-ligatures:normal;font-variant-numeric:normal;text-align:center" id="text11867-1" fill="#404040" fill-rule="evenodd" font-family="Source Code Pro" font-size="16" font-weight="600" text-anchor="middle" transform="translate(168.34 131.21)"><tspan style="font-feature-settings:normal;font-variant-caps:normal;font-variant-ligatures:normal;font-variant-numeric:normal;text-align:center" id="tspan11865-4" x="54.79" y="18.547" fill="#404040" font-family="Source Code Pro" font-size="16" font-weight="600" text-anchor="middle">81a70</tspan></text><text id="fourth-8-5" fill="#9b9b9b" fill-rule="evenodd" font-family="Source Code Pro" font-size="12" font-weight="700" transform="translate(-20.473 -.06134)"><tspan id="tspan11870-2" x="222" y="173">fourth</tspan></text></g></g><g id="g13012" transform="translate(.040256 -.011055)"><rect id="rect12659" width="109.58" height="56" x=".5" y=".5" fill="#efefe7" fill-rule="evenodd" stroke="#979797" transform="translate(168,219)"/><text style="font-feature-settings:normal;font-variant-caps:normal;font-variant-ligatures:normal;font-variant-numeric:normal;text-align:center" id="text12663" fill="#404040" fill-rule="evenodd" font-family="Source Code Pro" font-size="16" font-weight="600" text-anchor="middle" transform="translate(168.46,223.04)"><tspan style="font-feature-settings:normal;font-variant-caps:normal;font-variant-ligatures:normal;font-variant-numeric:normal;text-align:center" id="tspan12661" x="54.79" y="18.547" fill="#404040" font-family="Source Code Pro" font-size="16" font-weight="600" text-anchor="middle">622e8</tspan></text><text id="instructions-5" fill="#9b9b9b" fill-rule="evenodd" font-family="Source Code Pro" font-size="12" font-weight="700" transform="translate(-.99816)"><tspan id="tspan12670" x="181" y="264">instructions</tspan></text></g><g id="g12079" transform="translate(129.11 -.023975)"><path id="Line-4-2" fill="#8f8981" d="m244 302v-28.528h1v28.528h4l-4.5 9-4.5-9z" transform="translate(-3.3099,1)"/><g id="g12063"><rect id="rect11874" width="109.58" height="56" x=".5" y=".5" fill="#efefe7" fill-rule="evenodd" stroke="#979797" transform="translate(185.9,220)"/><text style="font-feature-settings:normal;font-variant-caps:normal;font-variant-ligatures:normal;font-variant-numeric:normal;text-align:center" id="text11878" fill="#404040" fill-rule="evenodd" font-family="Source Code Pro" font-size="16" font-weight="600" text-anchor="middle" transform="translate(186.06,223.06)"><tspan style="font-feature-settings:normal;font-variant-caps:normal;font-variant-ligatures:normal;font-variant-numeric:normal;text-align:center" id="tspan11876" x="54.79" y="18.547" fill="#404040" font-family="Source Code Pro" font-size="16" font-weight="600" text-anchor="middle">9c68f</tspan></text><text id="third-8" fill="#9b9b9b" fill-rule="evenodd" font-family="Source Code Pro" font-size="12" font-weight="700" transform="translate(-.66257)"><tspan id="tspan11882" x="224" y="265">third</tspan></text></g></g><path id="Line-5-8" fill="#8f8981" d="m244 394v-28.936h1v28.936h4l-4.5 9-4.5-9z" transform="translate(125.8 .97602)"/><g id="g12086" transform="translate(129.11 -.023975)"><rect id="rect11886" width="109.58" height="56" x=".5" y=".5" fill="#efefe7" fill-rule="evenodd" stroke="#979797" transform="translate(185.9,312)"/><text style="font-feature-settings:normal;font-variant-caps:normal;font-variant-ligatures:normal;font-variant-numeric:normal;text-align:center" id="text11890" fill="#404040" fill-rule="evenodd" font-family="Source Code Pro" font-size="16" font-weight="600" text-anchor="middle" transform="translate(186.43,315.22)"><tspan style="font-feature-settings:normal;font-variant-caps:normal;font-variant-ligatures:normal;font-variant-numeric:normal;text-align:center" id="tspan11888" x="54.79" y="18.547" fill="#404040" font-family="Source Code Pro" font-size="16" font-weight="600" text-anchor="middle">94570</tspan></text><text id="second-4" fill="#9b9b9b" fill-rule="evenodd" font-family="Source Code Pro" font-size="12" font-weight="700" transform="translate(-2.2842)"><tspan id="tspan11894" x="222" y="357">second</tspan></text></g><g id="g12100" transform="translate(129.11 -.023975)"><rect id="rect11898" width="109.58" height="56" x=".5" y=".5" fill="#efefe7" fill-rule="evenodd" stroke="#979797" transform="translate(185.9,404)"/><text style="font-feature-settings:normal;font-variant-caps:normal;font-variant-ligatures:normal;font-variant-numeric:normal;text-align:center" id="text11902" fill="#404040" fill-rule="evenodd" font-family="Source Code Pro" font-size="16" font-weight="600" text-anchor="middle" transform="translate(186.39,407.09)"><tspan style="font-feature-settings:normal;font-variant-caps:normal;font-variant-ligatures:normal;font-variant-numeric:normal;text-align:center" id="tspan11900" x="54.79" y="18.547" fill="#404040" font-family="Source Code Pro" font-size="16" font-weight="600" text-anchor="middle">c1822</tspan></text><text id="first-3" fill="#9b9b9b" fill-rule="evenodd" font-family="Source Code Pro" font-size="12" font-weight="700" transform="translate(-2.9926)"><tspan id="tspan11906" x="226" y="449">first</tspan></text></g></g></g></svg>