<svg xmlns="http://www.w3.org/2000/svg" id="svg16006" version="1.1" viewBox="0 0 314 238.9"><metadata id="metadata16010"/><title id="title15954">images/rerere1</title><desc id="desc15956">Created with Sketch.</desc><g id="g15525" transform="translate(-78,-13.1)"><g id="g15378" transform="translate(-1 -.9)"><path id="Line-7" fill="#8f8981" d="m337 70v-29h1v29h4l-4.5 9-4.5-9z"/><g id="g15371"><rect id="Rectangle-2" width="106" height="33" fill="#f44d27" fill-rule="evenodd" transform="matrix(.83962 0 0 1 293 18)"/><text id="master" fill="#979797" fill-rule="evenodd" font-family="Source Code Pro" font-size="12" font-weight="700" text-anchor="middle" transform="translate(284.6 18.316)"><tspan id="tspan15969" x="53" y="20" fill="#f0f0f0">master</tspan></text></g></g><g id="g15409"><path id="Line-2" fill="#8f8981" d="m91 101h50v1h-50v4l-9-4.5 9-4.5z"/><g id="content" fill="none" fill-rule="evenodd" transform="translate(133,78)"><rect id="rect15973" width="102" height="47" fill="#efefe7" fill-rule="evenodd"/><text id="text15977" fill="#979797" font-family="Source Code Pro" font-size="12" font-weight="700" text-anchor="middle"><tspan id="tspan15975" x="51" y="28" fill="gray">hello world</tspan></text></g></g><g id="g15491"><path id="Line" fill="#8f8981" d="m244 101h44.615v1h-44.615v4l-9-4.5 9-4.5z"/><g id="g15986" fill="none" fill-rule="evenodd" transform="translate(286,78)"><rect id="rect15980" width="102" height="47" fill="#efefe7" fill-rule="evenodd"/><text id="text15984" fill="#979797" font-family="Source Code Pro" font-size="12" font-weight="700" text-anchor="middle"><tspan id="tspan15982" x="51" y="28" fill="gray"><tspan id="tspan16012" fill="#3d6fb2">hola</tspan> world</tspan></text></g></g><g id="g15402"><path id="Line-8" fill="#8f8981" d="m241.98 118.03 46.419 45.315-.69253.72139-46.419-45.315-2.7701 2.8855-3.3761-9.479 9.6089 2.9865-2.7701 2.8855z" transform="translate(-.1489 1.0355)"/><g id="g15355"><rect id="rect15988" width="102" height="47" fill="#efefe7" fill-rule="evenodd" transform="translate(286,140)"/><text id="text15992" fill="#979797" fill-rule="evenodd" font-family="Source Code Pro" font-size="12" font-weight="700" text-anchor="middle" transform="translate(286,140)"><tspan id="tspan15990" x="51" y="28" fill="gray">hello <tspan id="tspan16046" fill="#3d6eb2">mundo</tspan></tspan></text></g></g><g id="g15343" transform="translate(-1.5)"><path id="Line-3" fill="#8f8981" d="m338 197v20.577h-1v-20.577h-4l4.5-9 4.5 9z" transform="translate(1 -1.1)"/><g id="g15336"><rect id="rect15997" width="106" height="33" fill="#f44d27" fill-rule="evenodd" transform="matrix(.83962 0 0 1 294 215)"/><text id="text16001" fill="#979797" fill-rule="evenodd" font-family="Source Code Pro" font-size="12" font-weight="700" text-anchor="middle" transform="translate(285.46 215.96)"><tspan id="tspan15999" x="53" y="20" fill="#f0f0f0">i18-world</tspan></text></g></g></g></svg>