<svg xmlns="http://www.w3.org/2000/svg" id="svg16842" version="1.1" viewBox="0 0 530.4 290.03"><metadata id="metadata16846"/><title id="title16761">images/rerere3</title><desc id="desc16763">Created with Sketch.</desc><defs id="defs16769"><marker id="TriangleOutL" orient="auto" overflow="visible"><path id="path17724" fill="#4a90e2" fill-rule="evenodd" stroke="#4a90e2" stroke-width="1pt" d="m5.77 0-8.65 5v-10z" transform="scale(.8)"/></marker></defs><g id="layer13" display="none" transform="translate(-12.001 -20.987)"><path id="Line-7" fill="#8f8981" d="m272 77v-29h1v29h4l-4.5 9-4.5-9z"/><path id="Line" fill="#8f8981" d="m178 109h42v1h-42v4l-9-4.5 9-4.5z"/><path id="Line-4" fill="#8f8981" d="m331 110h42v1h-42v4l-9-4.5 9-4.5z" transform="translate(1)"/><path id="Line-3" fill="#8f8981" d="m426 77v-30h1v30h4l-4.5 9-4.5-9z"/><path id="Line-2" fill="#8f8981" d="m25 109h50v1h-50v4l-9-4.5 9-4.5z"/><g id="ref" fill="none" fill-rule="evenodd" transform="translate(228,18)"><rect id="Rectangle-2" width="106" height="33" fill="#f44d27" fill-rule="evenodd"/><text id="master" fill="#979797" font-family="Source Code Pro" font-size="12" font-weight="700" text-anchor="middle"><tspan id="tspan16777" x="53" y="20" fill="#f0f0f0">master</tspan></text></g><g id="content" fill="none" fill-rule="evenodd" transform="translate(67,86)"><rect id="rect16781" width="102" height="47" fill="#efefe7" fill-rule="evenodd"/><text id="text16785" fill="#979797" font-family="Source Code Pro" font-size="12" font-weight="700" text-anchor="middle"><tspan id="tspan16783" x="51" y="28" fill="gray">hello world</tspan></text></g><g id="g16794" fill="none" fill-rule="evenodd" transform="translate(221,86)"><rect id="rect16788" width="102" height="47" fill="#efefe7" fill-rule="evenodd"/><text id="text16792" fill="#979797" font-family="Source Code Pro" font-size="12" font-weight="700" text-anchor="middle"><tspan id="tspan16790" x="51" y="28" fill="gray">hola world</tspan></text></g><g id="g16802" fill="none" fill-rule="evenodd" transform="translate(373,86)"><rect id="rect16796" width="102" height="47" fill="#efefe7" fill-rule="evenodd"/><text id="text16800" fill="#979797" font-family="Source Code Pro" font-size="12" font-weight="700" text-anchor="middle"><tspan id="tspan16798" x="51" y="28" fill="gray">hola mundo</tspan></text></g><g id="g16810" fill="none" fill-rule="evenodd" transform="translate(220,148)"><rect id="rect16804" width="102" height="47" fill="#efefe8" fill-rule="evenodd" opacity=".8"/><text id="text16808" fill="#ababab" font-family="Source Code Pro" font-size="12" font-weight="700" text-anchor="middle" transform="translate(-.15234 -.366)"><tspan id="tspan16806" x="51" y="28" fill="#ababab">hello mundo</tspan></text></g><path id="Line-8" fill="#e7e7e7" d="m175.98 126.03 44.229 42.46-.69253.72139-44.229-42.46-2.7701 2.8855-3.3761-9.479 9.6089 2.9865-2.7701 2.8855z"/><g id="g16819" fill="none" fill-rule="evenodd" transform="translate(383,16)"><rect id="rect16813" width="106" height="33" fill="#f44d27" fill-rule="evenodd"/><text id="text16817" fill="#979797" font-family="Source Code Pro" font-size="12" font-weight="700" text-anchor="middle"><tspan id="tspan16815" x="53" y="20" fill="#f0f0f0">i18-world</tspan></text></g><rect id="Rectangle-7" width="191" height="111" x="388.5" y="205.5" fill="#d8d8d8" fill-rule="evenodd" stroke="#979797" rx="1" ry="1"/><text id="rerere-cache" fill="#000" fill-rule="evenodd" font-family="Source Code Pro" font-size="12" font-weight="700" text-anchor="middle" transform="translate(344.24,1.4837)"><tspan id="tspan16822" x="95.5" y="228" fill="#000">rerere cache</tspan></text><rect id="Rectangle-8" width="178" height="64" x="394.5" y="243.5" fill="#e7e7e7" fill-rule="evenodd" stroke="#979797" rx="1" ry="1"/><g id="g16225"><text id="text16296" x="388.828" y="352.834" fill="#f44d27" font-family="Source Code Pro" font-size="12" font-weight="bold" letter-spacing="0" transform="translate(12.195,-87.793)" word-spacing="0" xml:space="preserve" style="font-feature-settings:normal;font-variant-caps:normal;font-variant-ligatures:normal;font-variant-numeric:normal;line-height:9.5px"><tspan style="line-height:13.33333302px" id="tspan16294" x="388.828" y="352.834" fill="#f44d27"><tspan id="tspan16302" fill="#cc003d">- puts ‘hola world’</tspan> </tspan><tspan style="line-height:13.33333302px" id="tspan16298" x="388.828" y="366.167" fill="#f44d27">- puts ‘hello mundo’ </tspan><tspan style="line-height:13.33333302px" id="tspan16300" x="388.828" y="379.5" fill="green">++ puts ‘hola mundo’</tspan></text></g></g><g id="layer15" transform="translate(-12.001 -20.987)"><g id="g16752"><g id="g15992" transform="translate(.00093 .12199)"><path id="Line-2-6" fill="#8f8981" d="m25 109h50v1h-50v4l-9-4.5 9-4.5z"/><g id="content-2" fill="none" fill-rule="evenodd" transform="translate(67,86)"><rect id="rect16157" width="102" height="47" fill="#efefe7" fill-rule="evenodd"/><text id="text16161" fill="#979797" font-family="Source Code Pro" font-size="12" font-weight="700" text-anchor="middle"><tspan id="tspan16159" x="51" y="28" fill="gray">hello world</tspan></text></g></g><g id="g16695"><path id="Line-1" fill="#8f8981" d="m178 109h42v1h-42v4l-9-4.5 9-4.5z" transform="translate(.00093 .12199)"/><g id="g16170" fill="none" fill-rule="evenodd" transform="translate(219.87 86.118)"><rect id="rect16164" width="102" height="47" fill="#efefe7" fill-rule="evenodd"/><text id="text16168" fill="#979797" font-family="Source Code Pro" font-size="12" font-weight="700" text-anchor="middle"><tspan id="tspan16166" x="51" y="28" fill="gray">hola world</tspan></text></g></g><g id="g15378" transform="translate(-66.629 6.9962)"><path id="Line-7-1" fill="#8f8981" d="m337 70v-29h1v29h4l-4.5 9-4.5-9z"/><g id="g15371"><rect id="Rectangle-2-5" width="106" height="33" fill="#f44d27" fill-rule="evenodd" transform="matrix(.83962 0 0 1 293 18)"/><text id="master-4" fill="#979797" fill-rule="evenodd" font-family="Source Code Pro" font-size="12" font-weight="700" text-anchor="middle" transform="translate(284.6,18.316)"><tspan id="tspan15969" x="53" y="20" fill="#f0f0f0">master</tspan></text></g></g><g id="g16675"><g id="g16668"><path id="path17580" fill="none" stroke="#4a90e2" stroke-width="1" marker-end="url(#TriangleOutL)" d="m325.18 173.33c23.206-3.0421 27.716-27.21 48.486-45.373" transform="matrix(1 0 0 1.0255 -4.8765 -6.0727)"/><rect id="rect16664" width="2.803" height="5.53" x="325.46" y="152.86" fill="#fff" fill-rule="evenodd" transform="translate(-6.3638 15.985)"/></g><text id="rebase" fill="#4a90e2" fill-rule="evenodd" font-family="Source Code Pro" font-size="12" font-weight="700" text-anchor="middle" transform="translate(271.15,5.2942)"><tspan id="tspan16838" x="95.5" y="164" fill="#4a90e2">rebase</tspan></text></g><g id="g16660" opacity=".5"><g id="g16186" fill="none" fill-rule="evenodd" transform="translate(219.9 148.12)"><rect id="rect16180" width="102" height="47" fill="#efefe7" fill-rule="evenodd"/><text id="text16184" fill="#979797" font-family="Source Code Pro" font-size="12" font-weight="700" text-anchor="middle"><tspan id="tspan16182" x="51" y="28" fill="gray">hello mundo</tspan></text></g><g id="g16002" transform="matrix(1.0388 0 0 1.0388 -6.7106 -3.4531)"><path id="Line-8-3" fill="#8f8981" d="m175.98 126.03 43.681 43.204-.69253.72139-43.681-43.204-2.7701 2.8855-3.3761-9.479 9.6089 2.9865-2.7701 2.8855z"/></g></g><g id="g16688"><path id="Line-4-6" fill="#8f8981" d="m331.94 110h43.949v1h-43.949v4l-9-4.5 9-4.5z" transform="translate(-1.0991 .12199)"/><g id="g16178" fill="none" fill-rule="evenodd" transform="translate(373 86.118)"><rect id="rect16172" width="102" height="47" fill="#efefe7" fill-rule="evenodd"/><text id="text16176" fill="#979797" font-family="Source Code Pro" font-size="12" font-weight="700" text-anchor="middle"><tspan id="tspan16174" x="51" y="28" fill="gray">hola mundo</tspan></text></g></g><g id="g16350" fill="none" fill-rule="evenodd" transform="translate(-37.6 15.013)"><g id="g16337"><rect id="Rectangle-7-9" width="191" height="111" x="384.5" y="180.5" fill="#d8d8d8" stroke="#979797" rx="1" ry="1"/><text style="font-feature-settings:normal;font-variant-caps:normal;font-variant-ligatures:normal;font-variant-numeric:normal" id="rerere-cache-9" fill="#404040" font-family="Source Code Pro" font-size="12" font-weight="bold" transform="translate(296.51 .44153)"><tspan style="font-feature-settings:normal;font-variant-caps:normal;font-variant-ligatures:normal;font-variant-numeric:normal" id="tspan16198" x="95.5" y="203" fill="#404040" font-family="Source Code Pro" font-size="12" font-weight="bold">rerere cache</tspan></text></g><g id="g16332"><rect id="Rectangle-8-0" width="178" height="64" x="390.5" y="218.5" fill="#e7e7e7" stroke="#979797" rx="1" ry="1"/><text id="text16296-0" x="388.828" y="352.834" fill="#f44d27" font-family="Source Code Pro" font-size="12" font-weight="bold" letter-spacing="0" transform="translate(8.512,-110.66)" word-spacing="0" xml:space="preserve" style="font-feature-settings:normal;font-variant-caps:normal;font-variant-ligatures:normal;font-variant-numeric:normal;line-height:9.5px"><tspan style="line-height:13.33333302px" id="tspan16294-7" x="388.828" y="352.834" fill="#f44d27"><tspan id="tspan16302-4" fill="#cc003d">- puts ‘hola world’</tspan> </tspan><tspan style="line-height:13.33333302px" id="tspan16298-1" x="388.828" y="366.167" fill="#f44d27">- puts ‘hello mundo’ </tspan><tspan style="line-height:13.33333302px" id="tspan16300-2" x="388.828" y="379.5" fill="green">++ puts ‘hola mundo’</tspan></text></g></g><g id="g16579" transform="translate(-10.392)"><path id="Line-3-1" fill="#8f8981" d="m338 197v20.577h-1v-20.577h-4l4.5-9 4.5 9z" transform="matrix(1 0 0 -1 96.893 274)"/><g id="g15336" transform="translate(95.893 -190.01)"><rect id="rect15997" width="106" height="33" fill="#f44d27" fill-rule="evenodd" transform="matrix(.83962 0 0 1 294 215)"/><text id="text16001" fill="#979797" fill-rule="evenodd" font-family="Source Code Pro" font-size="12" font-weight="700" text-anchor="middle" transform="translate(285.46,215.96)"><tspan id="tspan15999" x="53" y="20" fill="#f0f0f0">i18-world</tspan></text></g></g></g></g></svg>