<svg xmlns="http://www.w3.org/2000/svg" id="svg16210" version="1.1" viewBox="0 0 556.8 275"><metadata id="metadata16214"/><title id="title16136">images/rerere2</title><desc id="desc16138">Created with Sketch.</desc><g id="layer11" transform="translate(-12 -20.996)"><g id="g16061"><g id="g15992"><path id="Line-2" fill="#8f8981" d="m25 109h50v1h-50v4l-9-4.5 9-4.5z"/><g id="content" fill="none" fill-rule="evenodd" transform="translate(67,86)"><rect id="rect16157" width="102" height="47" fill="#efefe7" fill-rule="evenodd"/><text id="text16161" fill="#979797" font-family="Source Code Pro" font-size="12" font-weight="700" text-anchor="middle"><tspan id="tspan16159" x="51" y="28" fill="gray">hello world</tspan></text></g></g><g id="g15999"><path id="Line" fill="#8f8981" d="m178 109h42v1h-42v4l-9-4.5 9-4.5z"/><g id="g16170" fill="none" fill-rule="evenodd" transform="translate(219.87 85.996)"><rect id="rect16164" width="102" height="47" fill="#efefe7" fill-rule="evenodd"/><text id="text16168" fill="#979797" font-family="Source Code Pro" font-size="12" font-weight="700" text-anchor="middle"><tspan id="tspan16166" x="51" y="28" fill="gray">hola world</tspan></text></g></g><g id="g16010"><path id="Line-4" fill="#8f8981" d="m331.94 110h41.056v1h-41.056v4l-9-4.5 9-4.5z"/><path id="Line-5" fill="#8f8981" d="m327.7 163.42 45.772-44.63.73876.67396-45.772 44.63 2.9551 2.6958-9.3901 3.6161 2.7412-9.6817z"/><g id="g16178" fill="none" fill-rule="evenodd" transform="translate(372.8 85.996)"><rect id="rect16172" width="102" height="47" fill="#efefe7" fill-rule="evenodd"/><text id="text16176" fill="#979797" font-family="Source Code Pro" font-size="12" font-weight="700" text-anchor="middle"><tspan id="tspan16174" x="51" y="28" fill="gray">hola mundo</tspan></text></g></g><g id="g16186" fill="none" fill-rule="evenodd" transform="translate(220,148)"><rect id="rect16180" width="102" height="47" fill="#efefe7" fill-rule="evenodd"/><text id="text16184" fill="#979797" font-family="Source Code Pro" font-size="12" font-weight="700" text-anchor="middle"><tspan id="tspan16182" x="51" y="28" fill="gray">hello mundo</tspan></text></g><g id="g16002"><path id="Line-8" fill="#8f8981" d="m175.98 126.03 44.229 42.46-.69253.72139-44.229-42.46-2.7701 2.8855-3.3761-9.479 9.6089 2.9865-2.7701 2.8855z"/></g><g id="g16350" fill="none" fill-rule="evenodd" transform="translate(-11.2)"><g id="g16337"><rect id="Rectangle-7" width="191" height="111" x="384.5" y="180.5" fill="#d8d8d8" stroke="#979797" rx="1" ry="1"/><text style="font-feature-settings:normal;font-variant-caps:normal;font-variant-ligatures:normal;font-variant-numeric:normal" id="rerere-cache" fill="#404040" font-family="Source Code Pro" font-size="12" font-weight="bold" transform="translate(296.51 .44153)"><tspan style="font-feature-settings:normal;font-variant-caps:normal;font-variant-ligatures:normal;font-variant-numeric:normal" id="tspan16198" x="95.5" y="203" fill="#404040" font-family="Source Code Pro" font-size="12" font-weight="bold">rerere cache</tspan></text></g><g id="g16332"><rect id="Rectangle-8" width="178" height="64" x="390.5" y="218.5" fill="#e7e7e7" stroke="#979797" rx="1" ry="1"/><text id="text16296" x="388.828" y="352.834" fill="#f44d27" font-family="Source Code Pro" font-size="12" font-weight="bold" letter-spacing="0" transform="translate(8.512,-110.66)" word-spacing="0" xml:space="preserve" style="font-feature-settings:normal;font-variant-caps:normal;font-variant-ligatures:normal;font-variant-numeric:normal;line-height:9.5px"><tspan style="line-height:13.33333302px" id="tspan16294" x="388.828" y="352.834" fill="#f44d27"><tspan id="tspan16302" fill="#cc003d">- puts ‘hola world’</tspan> </tspan><tspan style="line-height:13.33333302px" id="tspan16298" x="388.828" y="366.167" fill="#f44d27">- puts ‘hello mundo’ </tspan><tspan style="line-height:13.33333302px" id="tspan16300" x="388.828" y="379.5" fill="green">++ puts ‘hola mundo’</tspan></text></g></g><g id="g15378" transform="translate(86.301 6.9958)"><path id="Line-7-1" fill="#8f8981" d="m337 70v-29h1v29h4l-4.5 9-4.5-9z"/><g id="g15371"><rect id="Rectangle-2-5" width="106" height="33" fill="#f44d27" fill-rule="evenodd" transform="matrix(.83962 0 0 1 293 18)"/><text id="master-4" fill="#979797" fill-rule="evenodd" font-family="Source Code Pro" font-size="12" font-weight="700" text-anchor="middle" transform="translate(284.6,18.316)"><tspan id="tspan15969" x="53" y="20" fill="#f0f0f0">master</tspan></text></g></g><g id="g15343" transform="translate(-67.5 8.0463)"><path id="Line-3-1" fill="#8f8981" d="m338 197v20.577h-1v-20.577h-4l4.5-9 4.5 9z" transform="translate(1,-1.1)"/><g id="g15336"><rect id="rect15997" width="106" height="33" fill="#f44d27" fill-rule="evenodd" transform="matrix(.83962 0 0 1 294 215)"/><text id="text16001" fill="#979797" fill-rule="evenodd" font-family="Source Code Pro" font-size="12" font-weight="700" text-anchor="middle" transform="translate(285.46,215.96)"><tspan id="tspan15999" x="53" y="20" fill="#f0f0f0">i18-world</tspan></text></g></g></g></g></svg>