<svg xmlns="http://www.w3.org/2000/svg" id="svg26420" version="1.1" viewBox="0 0 401 221"><metadata id="metadata26426"/><title id="title26380">images/reset-workflow</title><desc id="desc26382">Created with Sketch.</desc><g id="layer9"><g id="g26824"><path id="Line-6" fill="#8f8981" fill-rule="evenodd" stroke="#8f8981" stroke-linecap="square" d="m59.5 26.411v184.08" transform="translate(-.73832)"/><path id="Line-3" fill="#8f8981" fill-rule="evenodd" stroke="#8f8981" stroke-linecap="square" d="m339.5 26.411v184.08" transform="translate(.73831)"/><path id="Line-2" fill="#8f8981" fill-rule="evenodd" stroke="#8f8981" stroke-linecap="square" d="m199.5 26.411v184.08" transform="translate(4.3213e-6)"/><g id="symref-(2-line)" fill="none" fill-rule="evenodd" transform="translate(144.21 4)"><rect id="rect26394" width="110.58" height="38" fill="#00909a"/><text id="text26398" fill="#979797" font-family="Source Code Pro" font-size="12" font-weight="700" text-anchor="middle" transform="translate(-.21834 2.134)"><tspan id="tspan26396" x="55.29" y="21" fill="#f0f0f0">Index</tspan></text></g><g id="other-(2-line)" fill="none" fill-rule="evenodd" transform="translate(284.95 4)"><rect id="rect26401" width="110.58" height="38" fill="#efefe7"/><text id="master-4" fill="#979797" font-family="Source Code Pro" font-size="12" font-weight="700" text-anchor="middle" transform="translate(-.17034 .88075)"><tspan id="tspan26403" x="55.29" y="22.031" fill="gray">HEAD</tspan></text></g><g id="g26534"><rect id="Rectangle-2" width="110.58" height="38" fill="#f44d27" fill-rule="evenodd" transform="translate(3.4716 4)"/><text id="text26522" x="174.272" y="251.891" fill="#f0f0f0" font-family="Source Code Pro" font-size="12" font-weight="bold" letter-spacing="0" text-anchor="middle" transform="translate(-115.76 -232.02)" word-spacing="0" xml:space="preserve" style="font-feature-settings:normal;font-variant-caps:normal;font-variant-ligatures:normal;font-variant-numeric:normal;line-height:13px;text-align:center"><tspan id="tspan26520" x="174.272" y="251.891">Working</tspan><tspan id="tspan26524" x="174.272" y="264.891">Directory</tspan></text></g><g id="g26748" transform="matrix(1.0024 0 0 1 447.67 .97114)"><path id="path1174" fill="#8f8981" d="m122.38 70.5h216.95v21.875h-216.95v6.447l-63.25-17.319 63.25-17.525z" transform="translate(-446.63 .00562)"/><text id="Checkout-the-project-2" fill="#f0f0f0" fill-rule="evenodd" font-family="Source Code Pro" font-size="12" font-weight="700" transform="translate(-446.63 -1.1023)"><tspan id="tspan1182" x="139.632" y="86" fill="#f0f0f0">Checkout the project</tspan></text></g><g id="g26758" transform="matrix(.99606 0 0 1 445.92 .70429)"><path id="path1178" fill="#8f8981" d="m277.32 190.61h-78.112v-21.858h78.112v-6.5386l62.68 17.785-62.68 17.087z" transform="translate(-446.63 .00562)"/><text id="Commit-3" fill="#f0f0f0" fill-rule="evenodd" font-family="Source Code Pro" font-size="12" font-weight="700" transform="translate(-446.63 -1.129)"><tspan id="tspan1188" x="221.94" y="184.17" fill="#f0f0f0">Commit</tspan></text></g><g id="g26778"><path id="path1176" fill="#8f8981" d="m137 144.38h-77.875v-21.75h77.875v-6.5l62.209 17.293-62.209 17.457z" transform="translate(-.23052 .4411)"/><text id="Stage-Files" fill="#f0f0f0" fill-rule="evenodd" font-family="Source Code Pro" font-size="12" font-weight="700" transform="translate(.070302 -.70408)"><tspan id="tspan26413" x="70.723" y="138" fill="#f0f0f0">Stage Files</tspan></text></g></g></g></svg>