<svg xmlns="http://www.w3.org/2000/svg" id="svg20420" version="1.1" viewBox="0 0 692 204.02"><metadata id="metadata20426"/><title id="title20310">images/small-team-5</title><desc id="desc20312">Created with Sketch.</desc><g id="g20685" transform="translate(-2 -6.9856)"><g id="brown" fill="none" fill-rule="evenodd" transform="translate(6,67)"><rect id="Rectangle-1" width="89" height="33" fill="#efefe7" fill-rule="evenodd" rx="16.5" ry="16.5"/><text id="C6" fill="#979797" font-family="Source Code Pro" font-size="12" font-weight="700" text-anchor="middle"><tspan id="tspan20315" x="44.5" y="21" fill="gray">4b078</tspan></text></g><g id="Line-+-brown-2" fill="none" fill-rule="evenodd" transform="translate(95,67)"><path id="Line" fill="#8f8981" fill-rule="nonzero" d="m9 16h45v1h-45v4l-9-4.5 9-4.5z"/><g id="g20326" transform="translate(30)"><rect id="rect20320" width="89" height="33" fill="#efefe7" fill-rule="evenodd" rx="16.5" ry="16.5"/><text id="text20324" fill="#979797" font-family="Source Code Pro" font-size="12" font-weight="700" text-anchor="middle"><tspan id="tspan20322" x="44.5" y="21" fill="gray">1edee</tspan></text></g></g><path id="path20329" fill="#8f8981" d="m9 16h45v1h-45v4l-9-4.5 9-4.5z" transform="translate(214,67)"/><g id="g20534"><rect id="rect20331" width="89" height="33" fill="#b8e986" fill-rule="evenodd" rx="16.5" ry="16.5" transform="translate(244,67)"/><text id="C3'" fill="#979797" fill-rule="evenodd" font-family="Source Code Pro" font-size="12" font-weight="700" text-anchor="middle" transform="translate(243.91 66.706)"><tspan id="tspan20333" x="44.5" y="21" fill="gray">fbff5</tspan></text></g><g id="Line-+-brown-6" fill="none" fill-rule="evenodd" transform="translate(209,95)"><path id="path20338" fill="#8f8981" fill-rule="nonzero" d="m7.8327 4.8281 51.361 34.536-.558.82984-51.361-34.536-2.232 3.3194-4.9576-8.7563 9.9796 1.2877z"/><g id="john" transform="translate(35,23)"><rect id="rect20340" width="89" height="33" fill="#fcc161" fill-rule="evenodd" rx="16.5" ry="16.5"/><text id="text20344" fill="#979797" font-family="Source Code Pro" font-size="12" font-weight="700" text-anchor="middle"><tspan id="tspan20342" x="44.5" y="21" fill="gray">738ee</tspan></text></g></g><g id="g20619"><path id="Line-4" fill="#8f8981" d="m335.83 99.828 51.361 34.536-.558.82984-51.361-34.536-2.232 3.3194-4.9576-8.7563 9.9796 1.2877z"/><path id="path20349" fill="#8f8981" d="m342 134h45v1h-45v4l-9-4.5 9-4.5z"/><g id="g20357" fill="none" fill-rule="evenodd" transform="translate(363,118)"><rect id="rect20351" width="89" height="33" fill="#fcc161" fill-rule="evenodd" rx="16.5" ry="16.5"/><text id="text20355" fill="#979797" font-family="Source Code Pro" font-size="12" font-weight="700" text-anchor="middle"><tspan id="tspan20353" x="44.5" y="21" fill="gray">72bbc</tspan></text></g></g><g id="Line-+-brown-4" fill="none" fill-rule="evenodd" transform="translate(333,66.9)"><path id="path20359" fill="#8f8981" fill-rule="nonzero" d="m9 16h45v1h-45v4l-9-4.5 9-4.5z"/><g id="g20367" transform="translate(30)"><rect id="rect20361" width="89" height="33" fill="#b8e986" fill-rule="evenodd" rx="16.5" ry="16.5"/><text id="text20365" fill="#979797" font-family="Source Code Pro" font-size="12" font-weight="700" text-anchor="middle"><tspan id="tspan20363" x="44.5" y="21" fill="gray">8149a</tspan></text></g></g><g id="Line-+-brown-5" fill="none" fill-rule="evenodd" transform="translate(452,66.9)"><path id="path20370" fill="#8f8981" fill-rule="nonzero" d="m9 16h45v1h-45v4l-9-4.5 9-4.5z"/><g id="g20378" transform="translate(30)"><rect id="rect20372" width="89" height="33" fill="#b8e986" fill-rule="evenodd" rx="16.5" ry="16.5"/><text id="text20376" fill="#979797" font-family="Source Code Pro" font-size="12" font-weight="700" text-anchor="middle"><tspan id="tspan20374" x="44.5" y="21" fill="gray">23ac6</tspan></text></g></g><g id="g20611"><path id="Line-3" fill="#8f8981" d="m580 82h45v1h-45v4l-9-4.5 9-4.5z" transform="translate(0 .9)"/><g id="g20388" fill="none" fill-rule="evenodd" transform="translate(601,66.9)"><rect id="rect20382" width="89" height="33" fill="#b8e986" fill-rule="evenodd" rx="16.5" ry="16.5"/><text id="text20386" fill="#979797" font-family="Source Code Pro" font-size="12" font-weight="700" text-anchor="middle"><tspan id="tspan20384" x="44.5" y="21" fill="gray">4af42</tspan></text></g></g><g id="g20570"><path id="Line-2" fill="#8f8981" d="m58 9v23h-1v-23h-4l4.5-9 4.5 9z" transform="translate(350,151)"/><g id="g20563" transform="translate(-.47234 -.74521)"><rect id="Rectangle-2" width="116" height="38" fill="#f44d27" fill-rule="evenodd" transform="matrix(.86207 0 0 .86842 357.97 174.75)"/><text id="master" fill="#979797" fill-rule="evenodd" font-family="Source Code Pro" font-size="12" font-weight="700" text-anchor="middle" transform="translate(350,173)"><tspan id="tspan20392" x="58" y="21.515" fill="#f0f0f0">origin/master</tspan></text></g></g><g id="g20522"><path id="path20397" fill="#8f8981" d="m57 52v-43h1v43h4l-4.5 9-4.5-9z" transform="translate(231,6)"/><g id="g20515" transform="translate(.59966 3.7864)"><rect id="rect20399" width="116" height="38" fill="#f44d27" fill-rule="evenodd" transform="matrix(.76724 0 0 .86842 243.4 7.1992)"/><text id="text20403" fill="#979797" fill-rule="evenodd" font-family="Source Code Pro" font-size="12" font-weight="700" text-anchor="middle" transform="translate(230,6)"><tspan id="tspan20401" x="58" y="21.515" fill="#f0f0f0">master</tspan></text></g></g><g id="g20604"><path id="path20408" fill="#8f8981" d="m57 52v-43h1v43h4l-4.5 9-4.5-9z" transform="translate(588,6)"/><g id="g20592" transform="translate(-.72434 4.4284)"><rect id="rect20410" width="116" height="38" fill="#f44d27" fill-rule="evenodd" transform="matrix(.76724 0 0 .86842 601.72 6.5572)"/><text id="text20414" fill="#979797" fill-rule="evenodd" font-family="Source Code Pro" font-size="12" font-weight="700" text-anchor="middle" transform="translate(588,6)"><tspan id="tspan20412" x="58" y="21.515" fill="#f0f0f0">issue54</tspan></text></g></g></g></svg>