<svg xmlns="http://www.w3.org/2000/svg" id="svg20941" version="1.1" viewBox="0 0 812 205"><metadata id="metadata20947"/><title id="title20822">images/small-team-6</title><desc id="desc20824">Created with Sketch.</desc><g id="g21690"><g id="brown" fill="none" fill-rule="evenodd" transform="translate(4,60)"><rect id="Rectangle-1" width="89" height="33" fill="#efefe7" fill-rule="evenodd" rx="16.5" ry="16.5"/><text id="C6" fill="#979797" font-family="Source Code Pro" font-size="12" font-weight="700" text-anchor="middle"><tspan id="tspan20827" x="44.5" y="21" fill="gray">4b078</tspan></text></g><g id="Line-+-brown-2" fill="none" fill-rule="evenodd" transform="translate(93,60)"><path id="Line" fill="#8f8981" fill-rule="nonzero" d="m9 16h45v1h-45v4l-9-4.5 9-4.5z"/><g id="g20838" transform="translate(30)"><rect id="rect20832" width="89" height="33" fill="#efefe7" fill-rule="evenodd" rx="16.5" ry="16.5"/><text id="text20836" fill="#979797" font-family="Source Code Pro" font-size="12" font-weight="700" text-anchor="middle"><tspan id="tspan20834" x="44.5" y="21" fill="gray">1edee</tspan></text></g></g><g id="Line-+-brown-3" fill="none" fill-rule="evenodd" transform="translate(211.99 59.986)"><path id="path20841" fill="#8f8981" fill-rule="nonzero" d="m9 16h45v1h-45v4l-9-4.5 9-4.5z"/><g id="jessica" transform="translate(30)"><rect id="rect20843" width="89" height="33" fill="#b8e986" fill-rule="evenodd" rx="16.5" ry="16.5"/><text id="C3'" fill="#979797" font-family="Source Code Pro" font-size="12" font-weight="700" text-anchor="middle"><tspan id="tspan20845" x="44.5" y="21" fill="gray">fbff5</tspan></text></g></g><g id="g21090" transform="translate(-2,-6)"><path id="path20850" fill="#8f8981" d="m7.8327 4.8281 51.361 34.536-.558.82984-51.361-34.536-2.232 3.3194-4.9576-8.7563 9.9796 1.2877z" transform="translate(208.5,94.4)"/><g id="john" fill="none" fill-rule="evenodd" transform="translate(244,118)"><rect id="rect20852" width="89" height="33" fill="#fcc161" fill-rule="evenodd" rx="16.5" ry="16.5"/><text id="text20856" fill="#979797" font-family="Source Code Pro" font-size="12" font-weight="700" text-anchor="middle"><tspan id="tspan20854" x="44.5" y="21" fill="gray">738ee</tspan></text></g></g><path id="Line-4" fill="#8f8981" d="m335.83 99.828 51.361 34.536-.558.82984-51.361-34.536-2.232 3.3194-4.9576-8.7563 9.9796 1.2877z" transform="translate(-2.4,-6.8)"/><g id="g21304"><path id="Line-5" fill="#8f8981" d="m342 134h45v1h-45v4l-9-4.5 9-4.5z" transform="translate(-2,-6)"/><g id="g20868" fill="none" fill-rule="evenodd" transform="translate(361,112)"><rect id="rect20862" width="89" height="33" fill="#fcc161" fill-rule="evenodd" rx="16.5" ry="16.5"/><text id="text20866" fill="#979797" font-family="Source Code Pro" font-size="12" font-weight="700" text-anchor="middle"><tspan id="tspan20864" x="44.5" y="21" fill="gray">72bbc</tspan></text></g></g><g id="g21105" transform="translate(-2,-6)"><path id="Line-7" fill="#8f8981" d="m693.83 99.828 51.361 34.536-.558.82984-51.361-34.536-2.232 3.3194-4.9576-8.7563 9.9796 1.2877z" transform="translate(-.8 -1.2)"/><path id="Line-6" fill="#8f8981" d="m461 134h284v1h-284v4l-9-4.5 9-4.5z"/><g id="g20878" fill="none" fill-rule="evenodd" transform="translate(721,118)"><rect id="rect20872" width="89" height="33" fill="#b8e986" fill-rule="evenodd" rx="16.5" ry="16.5"/><text id="text20876" fill="#979797" font-family="Source Code Pro" font-size="12" font-weight="700" text-anchor="middle"><tspan id="tspan20874" x="44.5" y="21" fill="gray">8059c</tspan></text></g></g><g id="g21097" transform="translate(-2,-6)"><path id="path20880" fill="#8f8981" d="m9 16h45v1h-45v4l-9-4.5 9-4.5z" transform="translate(333,66)"/><g id="g20888" fill="none" fill-rule="evenodd" transform="translate(363,66)"><rect id="rect20882" width="89" height="33" fill="#b8e986" fill-rule="evenodd" rx="16.5" ry="16.5"/><text id="text20886" fill="#979797" font-family="Source Code Pro" font-size="12" font-weight="700" text-anchor="middle"><tspan id="tspan20884" x="44.5" y="21" fill="gray">8149a</tspan></text></g></g><g id="Line-+-brown-5" fill="none" fill-rule="evenodd" transform="translate(450,60)"><path id="path20891" fill="#8f8981" fill-rule="nonzero" d="m9 16h45v1h-45v4l-9-4.5 9-4.5z"/><g id="g20899" transform="translate(30)"><rect id="rect20893" width="89" height="33" fill="#b8e986" fill-rule="evenodd" rx="16.5" ry="16.5"/><text id="text20897" fill="#979797" font-family="Source Code Pro" font-size="12" font-weight="700" text-anchor="middle"><tspan id="tspan20895" x="44.5" y="21" fill="gray">23ac6</tspan></text></g></g><g id="g21119" transform="translate(-2,-6)"><path id="Line-3" fill="#8f8981" d="m580 82h45v1h-45v4l-9-4.5 9-4.5z"/><g id="g20909" fill="none" fill-rule="evenodd" transform="translate(601,66)"><rect id="rect20903" width="89" height="33" fill="#b8e986" fill-rule="evenodd" rx="16.5" ry="16.5"/><text id="text20907" fill="#979797" font-family="Source Code Pro" font-size="12" font-weight="700" text-anchor="middle"><tspan id="tspan20905" x="44.5" y="21" fill="gray">4af42</tspan></text></g></g><g id="g21470"><path id="Line-2" fill="#8f8981" d="m58 9v23h-1v-23h-4l4.5-9 4.5 9z" transform="translate(348,145)"/><g id="g21463"><rect id="Rectangle-2" width="116" height="38" fill="#f44d27" fill-rule="evenodd" transform="matrix(.86207 0 0 .86842 355.5 168)"/><text id="master" fill="#979797" fill-rule="evenodd" font-family="Source Code Pro" font-size="12" font-weight="700" text-anchor="middle" transform="translate(347.53 166.25)"><tspan id="tspan20913" x="58" y="21.515" fill="#f0f0f0">origin/master</tspan></text></g></g><g id="g21070" transform="translate(-2,-6)"><path id="path20918" fill="#8f8981" d="m57 103v-95h1v95h4l-4.5 9-4.5-9z" transform="translate(708,5.8)"/><g id="g21063" transform="translate(-.40034)"><rect id="rect20920" width="116" height="38" fill="#f44d27" fill-rule="evenodd" transform="matrix(.76724 0 0 .86842 721.4 10)"/><text id="text20924" fill="#979797" fill-rule="evenodd" font-family="Source Code Pro" font-size="12" font-weight="700" text-anchor="middle" transform="translate(708 8.8008)"><tspan id="tspan20922" x="58" y="21.515" fill="#f0f0f0">master</tspan></text></g></g><g id="g21112" transform="translate(-2,-6)"><path id="path20929" fill="#8f8981" d="m57 52v-43h1v43h4l-4.5 9-4.5-9z" transform="translate(588,5)"/><g id="g21050" transform="translate(-.72434)"><rect id="rect20931" width="116" height="38" fill="#f44d27" fill-rule="evenodd" transform="matrix(.76724 0 0 .86842 601.72 10)"/><text id="text20935" fill="#979797" fill-rule="evenodd" font-family="Source Code Pro" font-size="12" font-weight="700" text-anchor="middle" transform="translate(588 9.4428)"><tspan id="tspan20933" x="58" y="21.515" fill="#f0f0f0">issue54</tspan></text></g></g></g></svg>