<svg xmlns="http://www.w3.org/2000/svg" id="svg29970" version="1.1" viewBox="0 0 505 402.01"><metadata id="metadata29976"/><title id="title29802">images/topic-branches-1</title><desc id="desc29804">Created with Sketch.</desc><g id="g23153" transform="translate(1,3.0115)"><g id="brown" fill="none" fill-rule="evenodd" transform="translate(139,362)"><rect id="Rectangle-1" width="89" height="33" fill="#efefe7" fill-rule="evenodd" rx="16.5" ry="16.5"/><text id="C6" fill="#979797" font-family="Source Code Pro" font-size="12" font-weight="700" text-anchor="middle"><tspan id="tspan29807" x="44.5" y="21" fill="gray">C0</tspan></text></g><path id="Line" fill="#8f8981" d="m184 353v-25h1v25h4l-4.5 9-4.5-9z"/><g id="g29818" fill="none" fill-rule="evenodd" transform="translate(139,309)"><rect id="rect29812" width="89" height="33" fill="#efefe7" fill-rule="evenodd" rx="16.5" ry="16.5"/><text id="text29816" fill="#979797" font-family="Source Code Pro" font-size="12" font-weight="700" text-anchor="middle"><tspan id="tspan29814" x="44.5" y="21" fill="gray">C1</tspan></text></g><path id="path29820" fill="#8f8981" d="m184 300v-25h1v25h4l-4.5 9-4.5-9z"/><g id="g29828" fill="none" fill-rule="evenodd" transform="translate(139,256)"><rect id="rect29822" width="89" height="33" fill="#efefe7" fill-rule="evenodd" rx="16.5" ry="16.5"/><text id="text29826" fill="#979797" font-family="Source Code Pro" font-size="12" font-weight="700" text-anchor="middle"><tspan id="tspan29824" x="44.5" y="21" fill="gray">C3</tspan></text></g><path id="path29830" fill="#8f8981" d="m184 247v-25h1v25h4l-4.5 9-4.5-9z"/><g id="g29838" fill="none" fill-rule="evenodd" transform="translate(139,203)"><rect id="rect29832" width="89" height="33" fill="#efefe7" fill-rule="evenodd" rx="16.5" ry="16.5"/><text id="text29836" fill="#979797" font-family="Source Code Pro" font-size="12" font-weight="700" text-anchor="middle"><tspan id="tspan29834" x="44.5" y="21" fill="gray">C9</tspan></text></g><path id="path29840" fill="#8f8981" d="m184 194v-25h1v25h4l-4.5 9-4.5-9z"/><g id="g29848" fill="none" fill-rule="evenodd" transform="translate(139,150)"><rect id="rect29842" width="89" height="33" fill="#efefe7" fill-rule="evenodd" rx="16.5" ry="16.5"/><text id="text29846" fill="#979797" font-family="Source Code Pro" font-size="12" font-weight="700" text-anchor="middle"><tspan id="tspan29844" x="44.5" y="21" fill="gray">C10</tspan></text></g><path id="path29850" fill="#8f8981" d="m234.06 313.58 86.696-38.736.40794.91301-86.696 38.736 1.6318 3.652-10.053-.43708 6.3813-7.78 1.6318 3.652z"/><g id="g29858" fill="none" fill-rule="evenodd" transform="translate(275,256)"><rect id="rect29852" width="89" height="33" fill="#efefe7" fill-rule="evenodd" rx="16.5" ry="16.5"/><text id="text29856" fill="#979797" font-family="Source Code Pro" font-size="12" font-weight="700" text-anchor="middle"><tspan id="tspan29854" x="44.5" y="21" fill="gray">C2</tspan></text></g><path id="path29860" fill="#8f8981" d="m320 247v-25h1v25h4l-4.5 9-4.5-9z"/><g id="g29868" fill="none" fill-rule="evenodd" transform="translate(275,203)"><rect id="rect29862" width="89" height="33" fill="#efefe7" fill-rule="evenodd" rx="16.5" ry="16.5"/><text id="text29866" fill="#979797" font-family="Source Code Pro" font-size="12" font-weight="700" text-anchor="middle"><tspan id="tspan29864" x="44.5" y="21" fill="gray">C4</tspan></text></g><path id="path29870" fill="#8f8981" d="m320 194v-25h1v25h4l-4.5 9-4.5-9z"/><g id="g29878" fill="none" fill-rule="evenodd" transform="translate(275,150)"><rect id="rect29872" width="89" height="33" fill="#efefe7" fill-rule="evenodd" rx="16.5" ry="16.5"/><text id="text29876" fill="#979797" font-family="Source Code Pro" font-size="12" font-weight="700" text-anchor="middle"><tspan id="tspan29874" x="44.5" y="21" fill="gray">C5</tspan></text></g><path id="path29880" fill="#8f8981" d="m320 141v-25h1v25h4l-4.5 9-4.5-9z"/><g id="g29888" fill="none" fill-rule="evenodd" transform="translate(275,97)"><rect id="rect29882" width="89" height="33" fill="#efefe7" fill-rule="evenodd" rx="16.5" ry="16.5"/><text id="text29886" fill="#979797" font-family="Source Code Pro" font-size="12" font-weight="700" text-anchor="middle"><tspan id="tspan29884" x="44.5" y="21" fill="gray">C6</tspan></text></g><path id="path29890" fill="#8f8981" d="m131.63 157.25-83.798-40.518.4353-.90028 83.798 40.518 1.7412-3.6011 6.1437 7.969-10.061.13356 1.7412-3.6011z"/><g id="g29898" fill="none" fill-rule="evenodd" transform="translate(3,97)"><rect id="rect29892" width="89" height="33" fill="#efefe7" fill-rule="evenodd" rx="16.5" ry="16.5"/><text id="text29896" fill="#979797" font-family="Source Code Pro" font-size="12" font-weight="700" text-anchor="middle"><tspan id="tspan29894" x="44.5" y="21" fill="gray">C12</tspan></text></g><path id="path29900" fill="#8f8981" d="m48 88v-25h1v25h4l-4.5 9-4.5-9z"/><g id="g29908" fill="none" fill-rule="evenodd" transform="translate(3,44)"><rect id="rect29902" width="89" height="33" fill="#efefe7" fill-rule="evenodd" rx="16.5" ry="16.5"/><text id="text29906" fill="#979797" font-family="Source Code Pro" font-size="12" font-weight="700" text-anchor="middle"><tspan id="tspan29904" x="44.5" y="21" fill="gray">C13</tspan></text></g><path id="path29910" fill="#8f8981" d="m370.09 206.64 86.667-37.802.3998.9166-86.667 37.802 1.5992 3.6664-10.049-.52656 6.4504-7.7229 1.5992 3.6664z"/><g id="g29918" fill="none" fill-rule="evenodd" transform="translate(411,150)"><rect id="rect29912" width="89" height="33" fill="#efefe7" fill-rule="evenodd" rx="16.5" ry="16.5"/><text id="text29916" fill="#979797" font-family="Source Code Pro" font-size="12" font-weight="700" text-anchor="middle"><tspan id="tspan29914" x="44.5" y="21" fill="gray">C7</tspan></text></g><path id="path29920" fill="#8f8981" d="m456 141v-25h1v25h4l-4.5 9-4.5-9z"/><g id="g29928" fill="none" fill-rule="evenodd" transform="translate(411,97)"><rect id="rect29922" width="89" height="33" fill="#efefe7" fill-rule="evenodd" rx="16.5" ry="16.5"/><text id="text29926" fill="#979797" font-family="Source Code Pro" font-size="12" font-weight="700" text-anchor="middle"><tspan id="tspan29924" x="44.5" y="21" fill="gray">C8</tspan></text></g><path id="path29930" fill="#8f8981" d="m456 88v-25h1v25h4l-4.5 9-4.5-9z"/><g id="g29938" fill="none" fill-rule="evenodd" transform="translate(411,44)"><rect id="rect29932" width="89" height="33" fill="#efefe7" fill-rule="evenodd" rx="16.5" ry="16.5"/><text id="text29936" fill="#979797" font-family="Source Code Pro" font-size="12" font-weight="700" text-anchor="middle"><tspan id="tspan29934" x="44.5" y="21" fill="gray">C11</tspan></text></g><g id="g23037"><rect id="Rectangle-2" width="106" height="33" fill="#f44d27" fill-rule="evenodd" transform="matrix(.83962 0 0 1 139 106.9)"/><text id="master" fill="#979797" fill-rule="evenodd" font-family="Source Code Pro" font-size="12" font-weight="700" text-anchor="middle" transform="translate(130.6 107.22)"><tspan id="tspan29941" x="53" y="20" fill="#f0f0f0">master</tspan></text></g><g id="g23049" transform="translate(-.1 -5.005)"><rect id="rect29945" width="106" height="33" fill="#f44d27" fill-rule="evenodd" transform="matrix(.83962 0 0 1 275.1 59)"/><text id="text29949" fill="#979797" fill-rule="evenodd" font-family="Source Code Pro" font-size="12" font-weight="700" text-anchor="middle" transform="translate(266.48 59.958)"><tspan id="tspan29947" x="53" y="20" fill="#f0f0f0">iss91</tspan></text></g><g id="g23058" transform="translate(-.1 -5.0115)"><rect id="rect29953" width="106" height="33" fill="#f44d27" fill-rule="evenodd" transform="matrix(.83962 0 0 1 411.1 6)"/><text id="text29957" fill="#979797" fill-rule="evenodd" font-family="Source Code Pro" font-size="12" font-weight="700" text-anchor="middle" transform="translate(402.51 6.958)"><tspan id="tspan29955" x="53" y="20" fill="#f0f0f0">iss91v2</tspan></text></g><g id="g23066" transform="translate(-.19169)"><rect id="rect29961" width="106" height="33" fill="#f44d27" fill-rule="evenodd" transform="matrix(.83962 0 0 1 3.1917 .9885)"/><text id="text29965" fill="#979797" fill-rule="evenodd" font-family="Source Code Pro" font-size="12" font-weight="700" text-anchor="middle" transform="translate(-5.2027 1.9465)"><tspan id="tspan29963" x="53" y="20" fill="#f0f0f0">dumbidea</tspan></text></g></g></svg>