<svg xmlns="http://www.w3.org/2000/svg" id="svg31048" version="1.1" viewBox="0 0 384 163"><metadata id="metadata31054"/><title id="title31002">images/two-branches</title><desc id="desc31004">Created with Sketch.</desc><g id="g23831"><g id="g23756"><path id="Line-7" fill="#8f8981" d="m333 52v-29h1v29h4l-4.5 9-4.5-9z" transform="translate(4,4)"/><g id="ref" fill="none" fill-rule="evenodd" transform="translate(294,4)"><rect id="Rectangle-2" width="106" height="33" fill="#f44d27" fill-rule="evenodd" transform="scale(.81132 1)"/><text id="master" fill="#979797" font-family="Source Code Pro" font-size="12" font-weight="700" text-anchor="middle" transform="translate(-9.9003 .316)"><tspan id="tspan31011" x="53" y="20" fill="#f0f0f0">master</tspan></text></g></g><g id="g23800"><path id="Line-8" fill="#8f8981" d="m334 102v30h-1v-30h-4l4.5-9 4.5 9z" transform="translate(4,5)"/><g id="g31021" fill="none" fill-rule="evenodd" transform="translate(294,126)"><rect id="rect31015" width="106" height="33" fill="#f44d27" fill-rule="evenodd" transform="scale(.81132 1)"/><text id="text31019" fill="#979797" font-family="Source Code Pro" font-size="12" font-weight="700" text-anchor="middle" transform="translate(-10.128 -.236)"><tspan id="tspan31017" x="53" y="20" fill="#f0f0f0">testing</tspan></text></g></g><g id="g23763"><path id="Line" fill="#8f8981" d="m240 77h50v1h-50v4l-9-4.5 9-4.5z" transform="translate(4,4)"/><g id="other" fill="none" fill-rule="evenodd" transform="translate(294,65)"><rect id="rect31023" width="86" height="33" fill="#efefe7" fill-rule="evenodd"/><text id="text31027" fill="#979797" font-family="Source Code Pro" font-size="12" font-weight="700" text-anchor="middle"><tspan id="tspan31025" x="43" y="21" fill="gray">f30ab</tspan></text></g></g><g id="g23774"><g id="g23766"><path id="Line-2" fill="#8f8981" d="m95 77h50v1h-50v4l-9-4.5 9-4.5z" transform="translate(4,4)"/></g><g id="g31036" fill="none" fill-rule="evenodd" transform="translate(149,65)"><rect id="rect31030" width="86" height="33" fill="#efefe7" fill-rule="evenodd"/><text id="text31034" fill="#979797" font-family="Source Code Pro" font-size="12" font-weight="700" text-anchor="middle"><tspan id="tspan31032" x="43" y="21" fill="gray">34ac2</tspan></text></g></g><g id="g31044" fill="none" fill-rule="evenodd" transform="translate(4,65)"><rect id="rect31038" width="86" height="33" fill="#efefe7" fill-rule="evenodd"/><text id="text31042" fill="#979797" font-family="Source Code Pro" font-size="12" font-weight="700" text-anchor="middle"><tspan id="tspan31040" x="43" y="21" fill="gray">98ca9</tspan></text></g></g></svg>